<svg width="24" height="24" viewBox="0 0 24 24" fill="none" xmlns="http://www.w3.org/2000/svg">
<path d="M11.5516 1.90849C11.735 1.53687 12.265 1.53687 12.4484 1.90849L15.4104 7.91018C15.4832 8.05775 15.624 8.16003 15.7868 8.1837L22.4101 9.14611C22.8202 9.2057 22.984 9.70969 22.6872 9.99896L17.8946 14.6706C17.7767 14.7855 17.723 14.951 17.7508 15.1132L18.8822 21.7097C18.9522 22.1181 18.5235 22.4296 18.1567 22.2368L12.2327 19.1223C12.087 19.0457 11.913 19.0457 11.7673 19.1223L5.84331 22.2368C5.4765 22.4296 5.04778 22.1181 5.11784 21.7097L6.24923 15.1132C6.27704 14.951 6.22327 14.7855 6.10543 14.6706L1.3128 9.99896C1.01604 9.70969 1.17979 9.2057 1.5899 9.14611L8.21315 8.1837C8.37601 8.16003 8.51679 8.05775 8.58962 7.91018L11.5516 1.90849Z" fill="#FFDA52"/>
</svg>
