<svg width="24" height="24" viewBox="0 0 24 24" fill="none" xmlns="http://www.w3.org/2000/svg">
<path d="M16.5732 4.75098C17.3948 4.72873 18.1941 5.06639 18.8604 5.73242C19.5266 6.3987 19.8639 7.19786 19.8418 8.01953C19.8198 8.83242 19.4485 9.58171 18.8604 10.1699L9.43555 19.5938C9.27616 19.7531 9.06037 19.8428 8.83496 19.8428H5.59961C5.1305 19.8424 4.75002 19.4624 4.75 18.9932V15.7578C4.75022 15.5327 4.83981 15.3164 4.99902 15.1572L14.4238 5.73242C15.0118 5.14464 15.7608 4.77316 16.5732 4.75098ZM6.33787 15.9395C6.28161 15.9957 6.25 16.072 6.25 16.1516V18.0428C6.25 18.2085 6.38431 18.3428 6.55 18.3428H8.44117C8.52073 18.3428 8.59704 18.3112 8.6533 18.2549L16.0447 10.8635C16.1619 10.7463 16.1619 10.5564 16.0447 10.4392L14.1535 8.54807C14.0364 8.43091 13.8464 8.43091 13.7293 8.54807L6.33787 15.9395ZM16.6143 6.25C16.2474 6.26002 15.8487 6.42968 15.4844 6.79395L15.2145 7.06326C15.0972 7.18038 15.0971 7.3705 15.2143 7.48774L17.1055 9.3789C17.2225 9.49598 17.4123 9.49607 17.5295 9.37912L17.7998 9.10938C18.1642 8.745 18.3328 8.34547 18.3428 7.97852C18.3522 7.62071 18.2133 7.20757 17.7998 6.79395C17.3859 6.38021 16.9722 6.24033 16.6143 6.25Z" fill="currentColor"/>
</svg>
