<svg width="24" height="24" viewBox="0 0 24 24" fill="none" xmlns="http://www.w3.org/2000/svg">
<path d="M10.166 12.9424C10.6705 12.9934 11.0645 13.4196 11.0645 13.9375V19.002L11.0586 19.1035C11.0109 19.5744 10.6369 19.9485 10.166 19.9961L10.0645 20.002H5L4.89746 19.9961C4.4269 19.9481 4.05256 19.5742 4.00488 19.1035L4 19.002V13.9375C4 13.3852 4.44772 12.9375 5 12.9375H10.0645L10.166 12.9424ZM19.1035 12.9424C19.6078 12.9935 20.002 13.4197 20.002 13.9375V19.002L19.9961 19.1035C19.9484 19.5743 19.5743 19.9483 19.1035 19.9961L19.002 20.002H13.9375L13.835 19.9961C13.3644 19.9481 12.9901 19.5741 12.9424 19.1035L12.9375 19.002V13.9375C12.9375 13.3852 13.3852 12.9375 13.9375 12.9375H19.002L19.1035 12.9424ZM5.5 18.502H9.56445V14.4375H5.5V18.502ZM14.4375 18.502H18.502V14.4375H14.4375V18.502ZM10.166 4.00488C10.6705 4.05589 11.0645 4.48208 11.0645 5V10.0645L11.0586 10.166C11.0109 10.637 10.637 11.0109 10.166 11.0586L10.0645 11.0645H5L4.89746 11.0586C4.42683 11.0106 4.05247 10.6368 4.00488 10.166L4 10.0645V5C4 4.44772 4.44772 4 5 4H10.0645L10.166 4.00488ZM19.1035 4.00488C19.6078 4.05602 20.002 4.48218 20.002 5V10.0645L19.9961 10.166C19.9485 10.6369 19.5743 11.0108 19.1035 11.0586L19.002 11.0645H13.9375L13.835 11.0586C13.3643 11.0106 12.99 10.6367 12.9424 10.166L12.9375 10.0645V5C12.9375 4.44772 13.3852 4 13.9375 4H19.002L19.1035 4.00488ZM5.5 9.56445H9.56445V5.5H5.5V9.56445ZM14.4375 9.56445H18.502V5.5H14.4375V9.56445Z" fill="currentColor"/>
</svg>
