<svg width="24" height="24" viewBox="0 0 24 24" fill="none" xmlns="http://www.w3.org/2000/svg">
<path d="M21.6309 17.793C22.0451 17.793 22.3809 18.1288 22.3809 18.543C22.3808 18.9571 22.045 19.2929 21.6309 19.293H2.67969C2.26571 19.2927 1.92975 18.957 1.92969 18.543C1.92969 18.1289 2.26567 17.7932 2.67969 17.793H21.6309ZM21.6309 10.8965C22.0451 10.8965 22.3809 11.2323 22.3809 11.6465C22.3809 12.0607 22.0451 12.3965 21.6309 12.3965H2.67969C2.26567 12.3963 1.92969 12.0606 1.92969 11.6465C1.92969 11.2324 2.26567 10.8967 2.67969 10.8965H21.6309ZM21.6309 4C22.045 4.00002 22.3808 4.33586 22.3809 4.75C22.3809 5.1642 22.0451 5.49998 21.6309 5.5H2.67969C2.26567 5.49977 1.92969 5.16407 1.92969 4.75C1.92975 4.33598 2.26571 4.00023 2.67969 4H21.6309Z" fill="currentColor"/>
</svg>
