<svg width="36" height="36" viewBox="0 0 36 36" fill="none" xmlns="http://www.w3.org/2000/svg">
<g clip-path="url(#clip0_4460_469)">
<path fill-rule="evenodd" clip-rule="evenodd" d="M10.5791 0.108C12.4985 0.0196363 13.1105 0 18 0C22.8895 0 23.5015 0.0212727 25.4193 0.108C27.3371 0.194727 28.6462 0.500727 29.7916 0.944182C30.9911 1.39745 32.0793 2.106 32.9793 3.02236C33.8956 3.92073 34.6025 5.00727 35.0542 6.20836C35.4993 7.35382 35.8036 8.66291 35.892 10.5775C35.9804 12.5002 36 13.1122 36 18C36 22.8878 35.9787 23.5015 35.892 25.4209C35.8053 27.3355 35.4993 28.6445 35.0542 29.79C34.6023 30.9911 33.8943 32.0795 32.9793 32.9793C32.0793 33.8956 30.9911 34.6025 29.7916 35.0542C28.6462 35.4993 27.3371 35.8036 25.4225 35.892C23.5015 35.9804 22.8895 36 18 36C13.1105 36 12.4985 35.9787 10.5791 35.892C8.66455 35.8053 7.35545 35.4993 6.21 35.0542C5.00885 34.6023 3.92053 33.8943 3.02073 32.9793C2.10531 32.0801 1.39671 30.9923 0.944182 29.7916C0.500727 28.6462 0.196364 27.3371 0.108 25.4225C0.0196363 23.4998 0 22.8878 0 18C0 13.1122 0.0212727 12.4985 0.108 10.5807C0.194727 8.66291 0.500727 7.35382 0.944182 6.20836C1.39719 5.0075 2.10636 3.91974 3.02236 3.02073C3.92106 2.10551 5.00824 1.39692 6.20836 0.944182C7.35382 0.500727 8.66455 0.196364 10.5791 0.108ZM25.272 3.348C23.3738 3.26127 22.8044 3.24327 17.9984 3.24327C13.1924 3.24327 12.6229 3.26127 10.7247 3.348C8.96891 3.42818 8.01655 3.72109 7.38164 3.96818C6.54218 4.29545 5.94164 4.68327 5.31164 5.31327C4.71392 5.89384 4.25424 6.60125 3.96655 7.38327C3.71945 8.01818 3.42655 8.97054 3.34636 10.7264C3.25964 12.6245 3.24164 13.194 3.24164 18C3.24164 22.806 3.25964 23.3755 3.34636 25.2736C3.42655 27.0295 3.71945 27.9818 3.96655 28.6167C4.25455 29.3973 4.71436 30.1058 5.31164 30.6867C5.89255 31.284 6.60109 31.7438 7.38164 32.0318C8.01655 32.2789 8.96891 32.5718 10.7247 32.652C12.6229 32.7387 13.1907 32.7567 17.9984 32.7567C22.806 32.7567 23.3738 32.7387 25.272 32.652C27.0278 32.5718 27.9802 32.2789 28.6151 32.0318C29.4545 31.7045 30.0551 31.3167 30.6851 30.6867C31.2824 30.1058 31.7422 29.3973 32.0302 28.6167C32.2773 27.9818 32.5702 27.0295 32.6504 25.2736C32.7371 23.3755 32.7551 22.806 32.7551 18C32.7551 13.194 32.7371 12.6245 32.6504 10.7264C32.5702 8.97054 32.2773 8.01818 32.0302 7.38327C31.7029 6.54382 31.3151 5.94327 30.6851 5.31327C30.1045 4.71556 29.3971 4.25588 28.6151 3.96818C27.9802 3.72109 27.0278 3.42818 25.272 3.348ZM15.6993 23.5489C16.9833 24.0834 18.413 24.1555 19.7442 23.753C21.0755 23.3505 22.2257 22.4982 22.9985 21.3419C23.7712 20.1855 24.1185 18.7967 23.981 17.4127C23.8435 16.0287 23.2298 14.7354 22.2447 13.7536C21.6168 13.1261 20.8574 12.6455 20.0215 12.3466C19.1855 12.0477 18.2936 11.9379 17.4101 12.025C16.5266 12.1122 15.6733 12.3941 14.9119 12.8506C14.1504 13.307 13.4996 13.9267 13.0063 14.6648C12.513 15.403 12.1896 16.2414 12.0592 17.1196C11.9288 17.9978 11.9948 18.8939 12.2523 19.7436C12.5099 20.5932 12.9526 21.3752 13.5486 22.0332C14.1447 22.6912 14.8792 23.2088 15.6993 23.5489ZM11.4578 11.4578C12.3169 10.5987 13.3369 9.91719 14.4594 9.45223C15.5819 8.98727 16.785 8.74796 18 8.74796C19.215 8.74796 20.4181 8.98727 21.5406 9.45223C22.6631 9.91719 23.6831 10.5987 24.5422 11.4578C25.4013 12.3169 26.0828 13.3369 26.5478 14.4594C27.0127 15.5819 27.252 16.785 27.252 18C27.252 19.215 27.0127 20.4181 26.5478 21.5406C26.0828 22.6631 25.4013 23.6831 24.5422 24.5422C22.8071 26.2773 20.4538 27.252 18 27.252C15.5462 27.252 13.1929 26.2773 11.4578 24.5422C9.72272 22.8071 8.74796 20.4538 8.74796 18C8.74796 15.5462 9.72272 13.1929 11.4578 11.4578ZM29.304 10.1258C29.5169 9.92499 29.6873 9.68348 29.8052 9.41559C29.9231 9.14771 29.9861 8.85889 29.9903 8.56625C29.9946 8.2736 29.9401 7.98308 29.8301 7.71187C29.72 7.44066 29.5567 7.19429 29.3498 6.98734C29.1428 6.78038 28.8964 6.61706 28.6252 6.50703C28.354 6.397 28.0635 6.34251 27.7708 6.34677C27.4782 6.35104 27.1894 6.41398 26.9215 6.53187C26.6536 6.64975 26.4121 6.82019 26.2113 7.03309C25.8207 7.44714 25.6069 7.99711 25.6151 8.56625C25.6234 9.13539 25.8532 9.67889 26.2557 10.0814C26.6582 10.4839 27.2017 10.7136 27.7708 10.7219C28.34 10.7302 28.89 10.5164 29.304 10.1258Z" fill="#D1D5DB"/>
</g>
<defs>
<clipPath id="clip0_4460_469">
<rect width="36" height="36" fill="white"/>
</clipPath>
</defs>
</svg>
