<svg width="24" height="24" viewBox="0 0 24 24" fill="none" xmlns="http://www.w3.org/2000/svg">
<path d="M19.0029 17C19.5552 17 20.0029 17.4477 20.0029 18C20.0029 18.5523 19.5552 19 19.0029 19H5C4.44772 19 4 18.5523 4 18C4 17.4477 4.44772 17 5 17H19.0029ZM19.0029 11C19.5552 11 20.0029 11.4477 20.0029 12C20.0029 12.5523 19.5552 13 19.0029 13H5C4.44772 13 4 12.5523 4 12C4 11.4477 4.44772 11 5 11H19.0029ZM19.0029 5C19.5552 5 20.0029 5.44772 20.0029 6C20.0029 6.55228 19.5552 7 19.0029 7H5C4.44772 7 4 6.55228 4 6C4 5.44772 4.44772 5 5 5H19.0029Z" fill="currentColor"/>
</svg>
