<svg width="24" height="24" viewBox="0 0 24 24" fill="none" xmlns="http://www.w3.org/2000/svg">
<path d="M12.7646 18.2021C13.1789 18.2021 13.5146 18.5379 13.5146 18.9521C13.5143 19.3661 13.1787 19.7021 12.7646 19.7021H5C4.58603 19.7021 4.2503 19.3661 4.25 18.9521C4.25 18.538 4.58584 18.2022 5 18.2021H12.7646ZM19.5586 18.2021C19.9728 18.2021 20.3086 18.5379 20.3086 18.9521C20.3083 19.3661 19.9726 19.7021 19.5586 19.7021H15.6768C15.2627 19.7021 14.9271 19.3661 14.9268 18.9521C14.9268 18.5379 15.2625 18.2021 15.6768 18.2021H19.5586ZM8.88281 13.5518C9.29658 13.5523 9.63281 13.8879 9.63281 14.3018C9.63235 14.7153 9.29629 15.0512 8.88281 15.0518H5.00098C4.58705 15.0518 4.24949 14.7156 4.24902 14.3018C4.24902 13.8875 4.58676 13.5518 5.00098 13.5518H8.88281ZM19.5596 13.5518C19.9733 13.5524 20.3096 13.8879 20.3096 14.3018C20.3091 14.7152 19.973 15.0512 19.5596 15.0518H11.7949C11.381 15.0518 11.0454 14.7156 11.0449 14.3018C11.0449 13.8875 11.3807 13.5518 11.7949 13.5518H19.5596ZM12.7646 8.90039C13.1788 8.90039 13.5145 9.23632 13.5146 9.65039C13.5144 10.0644 13.1787 10.4004 12.7646 10.4004H5C4.586 10.4003 4.25025 10.0644 4.25 9.65039C4.25016 9.23636 4.58594 8.90045 5 8.90039H12.7646ZM19.5586 8.90039C19.9727 8.90039 20.3084 9.23632 20.3086 9.65039C20.3083 10.0644 19.9727 10.4004 19.5586 10.4004H15.6768C15.2627 10.4004 14.927 10.0644 14.9268 9.65039C14.9269 9.23632 15.2626 8.90039 15.6768 8.90039H19.5586ZM8.88281 4.25C9.29658 4.25053 9.63281 4.58611 9.63281 5C9.63256 5.41367 9.29642 5.74947 8.88281 5.75H5.00098C4.58692 5.75 4.24928 5.414 4.24902 5C4.24902 4.58579 4.58676 4.25 5.00098 4.25H8.88281ZM19.5596 4.25C19.9733 4.25059 20.3096 4.58615 20.3096 5C20.3093 5.41363 19.9731 5.74941 19.5596 5.75H11.7949C11.3809 5.75 11.0452 5.414 11.0449 5C11.0449 4.58579 11.3807 4.25 11.7949 4.25H19.5596Z" fill="currentColor"/>
</svg>
