<svg width="24" height="24" viewBox="0 0 24 24" fill="none" xmlns="http://www.w3.org/2000/svg">
<path d="M15.2173 18.75C15.2173 21.25 13.9673 22.5 12.0923 22.5C10.2173 22.5 8.96729 21.25 8.96729 18.75" stroke="currentColor" stroke-width="1.5"/>
<path d="M12 2V1.25H11.9999L12 2ZM13.8477 3.85352L13.1247 4.05306C13.2013 4.33045 13.4298 4.53957 13.7128 4.5913L13.8477 3.85352ZM18.9668 15.4219H18.2168V15.422L18.9668 15.4219ZM19.5527 16.8359L19.0224 17.3662L19.0226 17.3664L19.5527 16.8359ZM21.126 18.4082L21.6563 17.8779L21.6561 17.8777L21.126 18.4082ZM20.9844 18.75V19.5H20.9844L20.9844 18.75ZM3.05859 18.4082L2.52843 17.8777L2.52826 17.8779L3.05859 18.4082ZM4.63184 16.8359L5.162 17.3664L5.16222 17.3662L4.63184 16.8359ZM5.2168 15.4219L5.9668 15.422V15.4219H5.2168ZM10.1416 3.8916L10.2999 4.6247C10.5754 4.5652 10.7943 4.35629 10.8665 4.08389L10.1416 3.8916ZM12 2V2.75C12.3313 2.75 12.8609 3.09744 13.1247 4.05306L13.8477 3.85352L14.5706 3.65397C14.2339 2.43383 13.3363 1.25 12 1.25V2ZM13.8477 3.85352L13.7128 4.5913C16.2751 5.05952 18.2168 7.30319 18.2168 10H18.9668H19.7168C19.7168 6.56542 17.2442 3.71176 13.9825 3.11573L13.8477 3.85352ZM18.9668 10H18.2168V15.4219H18.9668H19.7168V10H18.9668ZM18.9668 15.4219L18.2168 15.422C18.2169 16.1513 18.5069 16.8507 19.0224 17.3662L19.5527 16.8359L20.0831 16.3056C19.8486 16.0712 19.7168 15.7531 19.7168 15.4218L18.9668 15.4219ZM19.5527 16.8359L19.0226 17.3664L20.5958 18.9387L21.126 18.4082L21.6561 17.8777L20.0829 16.3054L19.5527 16.8359ZM21.126 18.4082L20.5956 18.9385C20.249 18.5918 20.4947 18 20.9843 18L20.9844 18.75L20.9844 19.5C21.8304 19.5 22.255 18.4765 21.6563 17.8779L21.126 18.4082ZM20.9844 18.75V18H3.2002V18.75V19.5H20.9844V18.75ZM3.2002 18.75V18C3.69 18 3.93554 18.5919 3.58892 18.9385L3.05859 18.4082L2.52826 17.8779C1.92966 18.4765 2.35403 19.5 3.2002 19.5V18.75ZM3.05859 18.4082L3.58876 18.9387L5.162 17.3664L4.63184 16.8359L4.10167 16.3054L2.52843 17.8777L3.05859 18.4082ZM4.63184 16.8359L5.16222 17.3662C5.67828 16.8501 5.96669 16.1503 5.9668 15.422L5.2168 15.4219L4.4668 15.4218C4.46675 15.754 4.33523 16.0718 4.10146 16.3057L4.63184 16.8359ZM5.2168 15.4219H5.9668V10H5.2168H4.4668V15.4219H5.2168ZM5.2168 10H5.9668C5.9668 7.36387 7.82278 5.15974 10.2999 4.6247L10.1416 3.8916L9.98326 3.15851C6.83049 3.83948 4.4668 6.64239 4.4668 10H5.2168ZM10.1416 3.8916L10.8665 4.08389C11.1255 3.10767 11.6646 2.75002 12.0001 2.75L12 2L11.9999 1.25C10.6484 1.2501 9.74558 2.45932 9.41667 3.69931L10.1416 3.8916Z" fill="currentColor"/>
</svg>
