<svg width="24" height="24" viewBox="0 0 24 24" fill="none" xmlns="http://www.w3.org/2000/svg">
<path fill-rule="evenodd" clip-rule="evenodd" d="M16.0559 10.3418C16.3988 9.84216 17.1588 9.86142 17.4758 10.378L17.5364 10.4961L22.0071 21.0254C22.1689 21.4066 21.9906 21.8468 21.6096 22.0088C21.2284 22.1705 20.7881 21.9926 20.6262 21.6114L19.7483 19.544H13.2473L12.2278 21.6455C12.047 22.0181 11.5984 22.1738 11.2258 21.9932C10.8532 21.8124 10.6975 21.3639 10.8782 20.9912L15.9895 10.4571L16.0559 10.3418ZM13.9749 18.044H19.1116L16.7141 12.3995L13.9749 18.044ZM5.6858 1.00004C6.0999 0.995867 6.4393 1.32815 6.44361 1.74223V1.75785C6.44374 1.7685 6.44434 1.78515 6.44459 1.8057C6.4451 1.84781 6.44538 1.91073 6.44654 1.99027C6.44887 2.15004 6.45255 2.38083 6.45826 2.66215C6.45976 2.73593 6.46232 2.81318 6.46412 2.89359H10.9016C11.3157 2.8938 11.6516 3.2295 11.6516 3.64359C11.6515 4.05757 11.3156 4.39339 10.9016 4.39359H6.50709C6.51178 4.52982 6.51541 4.66875 6.52076 4.80863C6.53596 5.20631 6.55473 5.60883 6.57545 6.00102C7.41484 6.00094 8.41005 6.11642 9.33814 6.45902C10.6874 6.95721 11.972 7.97208 12.2913 9.82914C12.5856 11.542 12.1604 12.8195 11.429 13.7012C10.7211 14.5545 9.77594 14.9785 9.09107 15.1114C8.6846 15.19 8.29104 14.9241 8.21216 14.5176C8.13349 14.1114 8.39888 13.718 8.80494 13.6387C9.20479 13.5612 9.82178 13.2899 10.2747 12.7442C10.704 12.2267 11.0391 11.4 10.8128 10.083C10.7302 9.60301 10.5503 9.20843 10.2981 8.88285C10.107 10.4183 9.38955 11.4778 8.57447 12.17C8.53373 12.2125 8.48847 12.2502 8.43873 12.2823C7.75661 12.8215 7.02512 13.1127 6.48853 13.2168L6.46802 13.2207L6.44849 13.2237C5.62007 13.3384 4.44913 13.3481 3.39283 12.9444C2.29138 12.5233 1.31996 11.6459 1.05006 10.083C0.780829 8.5226 1.63812 7.41718 2.65162 6.79008C3.39297 6.33149 4.28811 6.07493 5.07447 6.03129C5.05399 5.63728 5.03615 5.24322 5.02174 4.86625C5.01563 4.70659 5.01133 4.54834 5.00611 4.39359H1.78834C1.37441 4.39335 1.03846 4.05755 1.03834 3.64359C1.03834 3.22953 1.37433 2.89383 1.78834 2.89359H4.96412C4.9626 2.82402 4.96054 2.7569 4.95923 2.69242C4.95346 2.40795 4.9489 2.17398 4.94654 2.01176C4.94537 1.93113 4.94511 1.86741 4.94459 1.82426C4.94433 1.80329 4.94375 1.78662 4.94361 1.77543V1.75785C4.93944 1.34389 5.27193 1.00459 5.6858 1.00004ZM5.1731 7.52934C4.65105 7.55579 3.98772 7.7271 3.44068 8.06547C2.76407 8.48414 2.39478 9.05831 2.52759 9.82816C2.69372 10.79 3.24119 11.2801 3.92896 11.543C4.65155 11.8191 5.52615 11.8325 6.21216 11.7413C6.28076 11.7276 6.35512 11.7071 6.43482 11.6827C6.35963 11.5982 6.28684 11.5094 6.22095 11.4131C5.84298 10.8605 5.60511 10.1124 5.40943 9.3018C5.30994 8.88963 5.23352 8.25354 5.1731 7.52934ZM6.67603 7.50102C6.72922 8.12205 6.79196 8.63755 6.86744 8.95023C7.05805 9.73971 7.24666 10.2558 7.45924 10.5664C7.56656 10.7233 7.66854 10.8125 7.78443 10.8594C8.36605 10.2822 8.84986 9.3892 8.84986 8.06156C8.84992 8.00123 8.85881 7.94297 8.87232 7.88676C8.8546 7.87998 8.83648 7.87285 8.81861 7.86625C8.12037 7.60851 7.34681 7.51001 6.67603 7.50102Z" fill="currentColor"/>
</svg>
