<svg width="24" height="24" viewBox="0 0 24 24" fill="none" xmlns="http://www.w3.org/2000/svg">
<path d="M9.81543 3.00002C13.5794 3.00014 16.6307 6.05145 16.6309 9.81544C16.6308 11.4294 16.0675 12.9107 15.1299 14.0781C15.1538 14.0968 15.1772 14.1167 15.1992 14.1387L20.2598 19.1983C20.5525 19.4911 20.5526 19.9669 20.2598 20.2598C19.9669 20.5526 19.4911 20.5526 19.1982 20.2598L14.1387 15.1992C14.1167 15.1773 14.0968 15.1538 14.0781 15.1299C12.9106 16.0675 11.4294 16.6308 9.81543 16.6309C6.05148 16.6308 3.00019 13.5794 3 9.81544C3.00011 6.0514 6.05143 3.00007 9.81543 3.00002ZM9.81543 4.50002C6.87988 4.50007 4.50011 6.87981 4.5 9.81544C4.50019 12.751 6.87992 15.1308 9.81543 15.1309C12.7509 15.1307 15.1307 12.751 15.1309 9.81544C15.1307 6.87986 12.7509 4.50014 9.81543 4.50002Z" fill="currentColor"/>
</svg>
