<svg width="48" height="24" viewBox="0 0 48 24" fill="none" xmlns="http://www.w3.org/2000/svg">
<path d="M37.9828 13.512V17.8656C37.9828 19.8831 37.8276 21.3962 37.517 22.405C37.2237 23.4314 36.7838 23.9623 36.1972 23.9977C35.8003 24.0331 35.5071 23.6526 35.3173 22.8563C35.1275 22.0599 35.0326 20.8653 35.0326 19.2725V13.5916C34.2217 13.6093 33.4885 13.6359 32.8329 13.6713C32.1772 13.689 31.6165 13.7155 31.1507 13.7509C30.9954 13.7686 30.8488 13.7952 30.7107 13.8306C30.59 13.866 30.4692 13.9013 30.3484 13.9367C30.2449 13.9721 30.1328 14.0164 30.012 14.0695C29.9085 14.1049 29.805 14.1403 29.7015 14.1757C29.4427 14.2818 29.158 14.3703 28.8474 14.4411C28.5369 14.4942 28.1746 14.4411 27.7605 14.2818C27.4327 14.1757 27.0359 14.0252 26.5701 13.8306C26.1042 13.6182 25.6384 13.3793 25.1726 13.1138C24.5515 12.7422 24.3013 12.4059 24.4221 12.1051C24.5428 11.8042 24.9397 11.698 25.6125 11.7865C26.1819 11.875 26.8892 11.9458 27.7346 11.9989C28.58 12.052 29.5807 12.0785 30.7366 12.0785C31.7718 12.0785 32.7638 12.0874 33.7128 12.1051C34.6789 12.1051 35.5761 12.1051 36.4042 12.1051C37.2323 12.1051 37.9742 12.1051 38.6298 12.1051C39.3027 12.0874 39.872 12.0608 40.3379 12.0254C40.8382 12.0077 41.2523 11.9812 41.5801 11.9458C41.9251 11.9104 42.1839 11.8573 42.3564 11.7865C42.4255 11.7688 42.5117 11.7334 42.6152 11.6803C42.7188 11.6272 42.8309 11.583 42.9517 11.5476C43.0724 11.5122 43.1846 11.4768 43.2881 11.4414C43.4089 11.406 43.521 11.3795 43.6245 11.3618C44.1594 11.3264 44.7201 11.3264 45.3067 11.3618C45.8933 11.3795 46.4195 11.4414 46.8853 11.5476C47.2476 11.6361 47.5237 11.7688 47.7135 11.9458C47.9205 12.1051 48.0154 12.3174 47.9981 12.5829C47.9636 12.9191 47.817 13.1669 47.5582 13.3262C47.3167 13.4855 46.9975 13.5651 46.6007 13.5651C46.3074 13.5651 45.9623 13.5651 45.5655 13.5651C45.1859 13.5474 44.7719 13.5385 44.3233 13.5385C43.892 13.5209 43.4261 13.512 42.9258 13.512C42.4427 13.4943 41.951 13.4855 41.4507 13.4855C40.9331 13.4855 40.3896 13.4943 39.8203 13.512C39.2509 13.512 38.6384 13.512 37.9828 13.512ZM32.2376 2.97317V6.15871C32.2376 6.47727 32.3498 6.69848 32.5741 6.82237C32.7983 6.94625 33.014 7.00819 33.221 7.00819L38.2158 6.92855C38.4228 6.92855 38.7161 6.91085 39.0956 6.87546C39.4925 6.82237 39.8462 6.68963 40.1567 6.47727C40.2602 6.42417 40.381 6.37993 40.519 6.34454C40.6743 6.29144 40.8641 6.25605 41.0884 6.23835C41.4507 6.22065 41.8475 6.22065 42.2788 6.23835C42.7274 6.25605 43.0811 6.28259 43.3399 6.31799C43.7539 6.40648 44.0559 6.56575 44.2456 6.79582C44.4354 7.02589 44.5131 7.2648 44.4785 7.51257C44.4613 7.74263 44.3405 7.955 44.1162 8.14967C43.892 8.34435 43.5728 8.44168 43.1587 8.44168L31.953 8.54787C31.6079 8.54787 31.2715 8.53017 30.9437 8.49477C30.6331 8.44168 30.3484 8.34435 30.0896 8.20277C29.8481 8.06119 29.6497 7.86652 29.4944 7.61875C29.3391 7.37099 29.2615 7.04358 29.2615 6.63654V3.05281C29.2615 2.78735 29.227 2.54843 29.158 2.33606C29.1062 2.106 29.0027 1.92902 28.8474 1.80514C28.6577 1.66356 28.3816 1.54853 28.0193 1.46004C27.6742 1.35385 27.3292 1.27422 26.9841 1.22112C26.8634 1.22112 26.7685 1.15918 26.6995 1.0353C26.6477 0.89372 26.6304 0.752141 26.6477 0.610562C26.6477 0.468982 26.6908 0.336251 26.7771 0.212368C26.8634 0.0884865 27.0014 0.0176972 27.1912 0C27.4672 0 27.8295 0.00884843 28.2781 0.0265457C28.7267 0.0265457 29.1925 0.0353943 29.6756 0.0530915C30.1414 0.088487 30.59 0.132731 31.0213 0.185822C31.4526 0.238915 31.8063 0.292007 32.0824 0.345099C32.2376 0.398192 32.3325 0.530923 32.367 0.743293C32.4188 0.937964 32.4188 1.12379 32.367 1.30076C32.3153 1.51313 32.2808 1.77859 32.2635 2.09715C32.2463 2.4157 32.2376 2.70771 32.2376 2.97317Z" fill="#D1D5DB"/>
<path d="M14.289 12.9014V14.0695C14.3063 15.7684 14.1165 17.0072 13.7197 17.7859C13.3401 18.5646 12.926 18.9628 12.4774 18.9805C12.1324 19.0159 11.8822 18.7416 11.7269 18.1576C11.5717 17.5736 11.494 16.5825 11.494 15.1844V12.9545C10.5106 12.9722 9.60484 12.9988 8.7767 13.0342C7.96582 13.0696 7.29296 13.1049 6.75812 13.1403C6.60284 13.158 6.45619 13.1846 6.31817 13.22C6.1974 13.2554 6.07663 13.2908 5.95586 13.3262C5.83509 13.3616 5.72294 13.4058 5.61943 13.4589C5.51591 13.4943 5.41239 13.5297 5.30887 13.5651C5.05008 13.6713 4.76541 13.7598 4.45486 13.8305C4.1443 13.8836 3.78199 13.8305 3.36792 13.6713C3.04012 13.5651 2.6433 13.4147 2.17747 13.22C1.71165 13.0076 1.24582 12.7687 0.779991 12.5032C0.158887 12.1316 -0.0912798 11.7953 0.0294904 11.4945C0.150261 11.1936 0.547077 11.0874 1.21994 11.1759C1.78928 11.2644 2.49665 11.3352 3.34204 11.3883C4.18744 11.4414 5.1881 11.4679 6.34405 11.4679C7.37922 11.4679 8.38851 11.4768 9.37193 11.4945C10.3726 11.4945 11.3129 11.4945 12.1928 11.4945C13.0727 11.4945 13.8663 11.4945 14.5737 11.4945C15.281 11.4768 15.8676 11.4502 16.3335 11.4148C16.8511 11.3971 17.2738 11.3706 17.6016 11.3352C17.9466 11.2998 18.1968 11.2467 18.3521 11.1759C18.4211 11.1582 18.5073 11.1228 18.6108 11.0697C18.7316 11.0166 18.8438 10.9724 18.9473 10.937C19.0681 10.9016 19.1802 10.8662 19.2837 10.8308C19.4045 10.7954 19.5166 10.7689 19.6201 10.7512C20.1722 10.7158 20.733 10.7158 21.3023 10.7512C21.8889 10.7689 22.4237 10.8308 22.9068 10.937C23.2519 11.0255 23.5279 11.1582 23.735 11.3352C23.942 11.4945 24.0283 11.7068 23.9937 11.9723C23.9592 12.3086 23.8212 12.5563 23.5797 12.7156C23.3381 12.8749 23.0103 12.9545 22.5963 12.9545C22.303 12.9545 21.9665 12.9545 21.587 12.9545C21.2074 12.9368 20.7933 12.928 20.3448 12.928C19.9134 12.9103 19.4476 12.9014 18.9473 12.9014C18.4642 12.8837 17.9725 12.8749 17.4722 12.8749C17.0063 12.8749 16.506 12.8837 15.9712 12.9014C15.4536 12.9014 14.8929 12.9014 14.289 12.9014ZM8.9061 18.3965V20.414C8.9061 20.7325 9.00962 20.9538 9.21665 21.0776C9.42369 21.2015 9.63935 21.2635 9.86364 21.2635L14.3408 21.2104C14.6341 21.2104 14.9532 21.1838 15.2983 21.1307C15.6434 21.0776 15.9712 20.9449 16.2817 20.7325C16.3335 20.6795 16.4111 20.6352 16.5146 20.5998C16.6181 20.5644 16.7303 20.5379 16.8511 20.5202C17.2306 20.4848 17.7137 20.4671 18.3003 20.4671C18.9041 20.4848 19.3527 20.5113 19.646 20.5467C20.0601 20.6175 20.3534 20.7679 20.5259 20.998C20.7157 21.2281 20.8106 21.4493 20.8106 21.6617C20.7933 21.9271 20.6639 22.1572 20.4224 22.3519C20.1809 22.5465 19.8531 22.6439 19.439 22.6439L8.62143 22.7501C8.29362 22.7501 7.97444 22.7235 7.66389 22.6704C7.35334 22.635 7.07729 22.5377 6.83575 22.3784C6.57696 22.2368 6.36993 22.0422 6.21465 21.7944C6.07663 21.5466 6.00762 21.2192 6.00762 20.8122V18.6354C6.00762 18.423 5.98174 18.2107 5.92998 17.9983C5.87822 17.7682 5.76608 17.6001 5.59355 17.4939C5.36926 17.37 5.11909 17.2727 4.84305 17.2019C4.567 17.1134 4.24782 17.0426 3.88551 16.9895C3.74749 16.9718 3.6526 16.9099 3.60084 16.8037C3.56633 16.6798 3.55771 16.5559 3.57496 16.4321C3.60946 16.2905 3.66985 16.1666 3.75611 16.0604C3.85963 15.9542 3.99765 15.8834 4.17018 15.8481C4.35997 15.8304 4.67052 15.8215 5.10184 15.8215C5.53316 15.8215 5.98174 15.8304 6.44757 15.8481C6.93065 15.8657 7.38785 15.8923 7.81917 15.9277C8.26774 15.9631 8.59555 16.0073 8.80258 16.0604C8.9061 16.1135 8.98374 16.2197 9.0355 16.379C9.10451 16.5382 9.11314 16.6975 9.06138 16.8568C8.99236 17.0692 8.94923 17.3258 8.93198 17.6266C8.91473 17.9275 8.9061 18.1841 8.9061 18.3965ZM8.41439 3.07934V6.10561C8.41439 6.42416 8.52654 6.64538 8.75082 6.76926C8.97511 6.89314 9.1994 6.95508 9.42369 6.95508L13.8232 6.87544C14.0302 6.87544 14.3235 6.85775 14.7031 6.82235C15.0999 6.76926 15.4622 6.63653 15.79 6.42416C15.8935 6.37107 16.0143 6.32682 16.1523 6.29143C16.3076 6.23834 16.4974 6.20294 16.7217 6.18524C17.084 6.16755 17.4808 6.16755 17.9121 6.18524C18.3607 6.20294 18.7144 6.22949 18.9732 6.26488C19.3872 6.35337 19.6805 6.51265 19.8531 6.74271C20.0428 6.97278 20.1291 7.2117 20.1118 7.45946C20.0946 7.68953 19.9738 7.9019 19.7495 8.09657C19.5253 8.29124 19.2061 8.38858 18.792 8.38858L8.1556 8.49476C7.81054 8.51246 7.47411 8.49476 7.14631 8.44167C6.83575 8.38858 6.55108 8.29124 6.29229 8.14966C6.05075 8.00808 5.85234 7.81341 5.69706 7.56565C5.54179 7.31788 5.46415 6.99048 5.46415 6.58344V3.15898C5.46415 2.89352 5.42964 2.6546 5.36063 2.44223C5.29162 2.21217 5.17948 2.03519 5.0242 1.91131C4.85167 1.76973 4.58425 1.6547 4.22194 1.56621C3.87688 1.46002 3.5232 1.38039 3.16089 1.32729C3.04012 1.32729 2.95385 1.26535 2.9021 1.14147C2.85034 0.999891 2.83308 0.858312 2.85034 0.716733C2.85034 0.575153 2.89347 0.442422 2.97973 0.318539C3.066 0.194657 3.20402 0.123868 3.3938 0.106171C3.66985 0.106171 4.03216 0.115019 4.48074 0.132717C4.92931 0.132717 5.38651 0.141565 5.85234 0.159262C6.31817 0.194657 6.76674 0.2389 7.19806 0.291993C7.64664 0.345086 8.00895 0.398178 8.285 0.45127C8.44027 0.504362 8.53516 0.637094 8.56967 0.849464C8.60417 1.04414 8.59555 1.22996 8.54379 1.40693C8.49203 1.6193 8.45753 1.88476 8.44027 2.20332C8.42302 2.52187 8.41439 2.81388 8.41439 3.07934Z" fill="#D1D5DB"/>
</svg>
