<svg width="64" height="20" viewBox="0 0 64 20" fill="none" xmlns="http://www.w3.org/2000/svg">
<path d="M43.9685 5.69597C43.9685 6.55997 43.5631 7.22664 42.7525 7.69597C41.9418 8.15464 40.6885 8.38397 38.9925 8.38397C37.3071 8.38397 36.0538 8.15464 35.2325 7.69597C34.4111 7.22664 34.0005 6.55997 34.0005 5.69597C34.0005 4.8533 34.4111 4.18664 35.2325 3.69597C36.0645 3.19464 37.3178 2.94397 38.9925 2.94397C40.6671 2.94397 41.9151 3.19464 42.7365 3.69597C43.5578 4.1973 43.9685 4.86397 43.9685 5.69597ZM41.6165 7.00797C42.2778 6.73064 42.6085 6.2933 42.6085 5.69597C42.6085 5.3973 42.5178 5.13597 42.3365 4.91197C42.1658 4.68797 41.9205 4.50664 41.6005 4.36797C41.2911 4.21864 40.9125 4.10664 40.4645 4.03197C40.0271 3.9573 39.5365 3.91997 38.9925 3.91997C38.4485 3.91997 37.9525 3.9573 37.5045 4.03197C37.0565 4.09597 36.6725 4.20264 36.3525 4.35197C36.0325 4.5013 35.7871 4.68797 35.6165 4.91197C35.4458 5.13597 35.3605 5.3973 35.3605 5.69597C35.3605 6.30397 35.6805 6.7413 36.3205 7.00797C36.9711 7.26397 37.8618 7.39197 38.9925 7.39197C40.1018 7.39197 40.9765 7.26397 41.6165 7.00797ZM43.7285 16.72C43.7285 16.848 43.7018 16.9333 43.6485 16.976C43.6058 17.0293 43.5205 17.056 43.3925 17.056H34.5445C34.4165 17.056 34.3258 17.0293 34.2725 16.976C34.2298 16.9333 34.2085 16.848 34.2085 16.72V12.72C34.2085 12.592 34.2298 12.5066 34.2725 12.464C34.3258 12.4106 34.4165 12.384 34.5445 12.384H38.3045V10.576H32.4805V9.48797H45.4725V10.576H39.6165V12.384H43.3925C43.5205 12.384 43.6058 12.4106 43.6485 12.464C43.7018 12.5066 43.7285 12.592 43.7285 12.72V16.72ZM42.4645 16V13.44H35.4725V16H42.4645Z" fill="#333333"/>
<path d="M31.5193 10.896H18.5273V9.82399H24.3673V7.90399H20.5913C20.4527 7.90399 20.362 7.88266 20.3193 7.83999C20.2767 7.79733 20.2553 7.71199 20.2553 7.58399V3.79199C20.2553 3.66399 20.2767 3.57866 20.3193 3.53599C20.3727 3.48266 20.4633 3.45599 20.5913 3.45599H29.7913V4.51199H21.5193V6.84799H29.9513V7.90399H25.6633V9.82399H31.5193V10.896ZM30.2073 17.056H20.6073C20.4793 17.056 20.3887 17.0293 20.3353 16.976C20.2927 16.9333 20.2713 16.848 20.2713 16.72V12.672C20.2713 12.544 20.2927 12.4587 20.3353 12.416C20.3887 12.3627 20.4793 12.336 20.6073 12.336H29.9033V13.392H21.5673V15.984H30.2073V17.056Z" fill="#333333"/>
</svg>
