<svg width="64" height="20" viewBox="0 0 64 20" fill="none" xmlns="http://www.w3.org/2000/svg">
<path d="M53.5638 14.1372C53.8817 14.4459 54.0155 14.809 53.9988 15.0814C53.982 15.3356 53.7311 15.5898 53.5136 15.6987C53.0284 15.9347 52.4428 16.08 51.7902 15.9529C51.4389 15.8803 50.3514 15.7713 49.7323 15.7532C48.4273 15.7169 42.9394 15.844 41.8184 15.9529C41.0153 16.0255 40.5468 15.8439 40.0449 15.2992C39.6434 14.8635 39.4761 14.4096 39.3589 14.1191C39.3087 13.992 39.3255 13.8467 39.4761 13.6833C39.6266 13.5199 40.0951 13.1931 40.2624 13.1023C40.4799 12.9752 40.6974 13.0115 40.9651 13.2112C41.5005 13.6107 41.785 13.647 42.3036 13.6288C42.5881 13.6288 43.9098 13.5925 45.2985 13.5562C45.2818 13.0115 45.2651 12.5576 45.2149 12.376C45.1981 12.2852 45.1814 12.1944 45.1814 12.1218C44.5289 12.14 44.027 12.1581 43.9098 12.1763C43.5752 12.2308 43.1737 12.2852 42.8892 12.2671C42.4375 12.2308 42.1029 11.8676 42.0359 11.3048C42.0025 11.0506 42.153 10.7238 42.404 10.4696C42.404 9.96117 42.3873 9.39832 42.3706 8.85361C42.2534 8.6902 42.2032 8.50864 42.1865 8.43601C42.153 8.29075 42.153 7.94578 42.2702 7.80052C42.4542 7.56449 42.7386 7.27398 43.274 7.23767C43.6087 7.21951 44.0604 7.40108 44.5289 7.38292C44.9472 7.36476 46.9047 7.34661 48.3102 7.32845L48.3269 6.43877C47.0888 6.49324 44.5624 6.49324 44.0604 6.40246C43.3577 6.27536 42.906 5.91223 42.4542 5.42199C42.22 5.1678 42.22 4.89545 42.3873 4.67757C42.4877 4.55047 42.6885 4.27812 42.8056 4.16918C42.9896 4.00577 43.1402 3.89683 43.3744 4.15102C43.5585 4.35075 43.9935 4.38706 44.5456 4.45969C45.1814 4.55047 47.7078 4.45969 48.2767 4.40522C48.6615 4.3689 48.9961 4.31443 49.2973 4.24181C49.4646 4.20549 49.5985 4.18734 49.749 4.20549C49.9833 4.24181 50.1004 4.29628 50.4016 4.56863C50.686 4.82282 50.87 5.00439 50.8198 5.24043C50.8031 5.33121 50.7529 5.63987 50.6358 5.76697C50.5856 5.82144 50.5354 5.85776 50.4685 5.89407C50.435 6.45693 50.4183 7.14688 50.4183 7.65527C50.4685 7.70974 50.5187 7.76421 50.5354 7.80052C50.5856 8.19997 50.5521 8.54495 50.4685 8.70836C50.3514 8.9444 50.0837 9.28937 49.6654 9.25306C48.9961 9.19859 46.4028 9.14412 44.5456 9.14412L44.5289 10.1427C46.3693 10.1246 48.7954 10.0883 49.7323 9.97933C50.1841 9.92486 50.5856 10.0883 50.9872 10.524C51.2716 10.8327 51.4891 11.4682 51.3887 11.9221C51.3552 12.0674 51.121 12.2671 50.9202 12.2126C50.6358 12.14 50.0167 12.0855 49.6152 12.0674H47.758C47.8417 12.3579 47.8751 12.6484 47.8584 13.0115C47.8584 13.1931 47.8584 13.3383 47.8417 13.4836L48.7619 13.4473C49.3308 13.4109 50.7194 13.3565 51.7902 13.3202C52.4762 13.302 53.2793 13.8649 53.5638 14.1372Z" fill="#333333"/>
<path d="M28.2432 5.83047C27.9347 5.63967 27.6263 5.34479 27.4892 5.1193C27.3692 4.91116 27.3349 4.84177 27.3863 4.65097C27.4035 4.58159 27.6777 4.14795 27.8833 4.07857C28.0889 3.99184 28.3803 4.19999 28.6545 4.19999L29.9569 4.1653C31.6534 4.1653 32.5445 4.1653 33.6755 4.13061C33.9155 4.11326 34.1725 4.07857 34.3267 4.04388C34.4467 4.00919 34.6352 3.9745 34.7894 4.02654C34.9265 4.06123 35.115 4.21734 35.4406 4.5469C35.7834 4.89381 35.9376 5.10196 35.9205 5.27541C35.8519 5.55294 35.3892 5.93454 34.9779 5.98658C34.5838 6.05596 33.5899 6.05596 33.1272 6.09065C32.6645 6.09065 30.6766 6.12534 29.854 6.14268C29.0315 6.16003 28.5345 6.02127 28.2432 5.83047ZM34.8066 8.62309C33.4185 8.53636 31.7048 8.53636 30.4024 8.57105C30.4024 8.74451 30.3853 9.10876 30.3853 9.49036C32.1846 9.45567 33.9155 9.38629 35.2521 9.21284C35.5092 9.17815 35.9205 9.33425 36.1775 9.59444C36.4517 9.85462 36.6745 10.2015 36.7773 10.427C36.863 10.6352 36.743 10.7913 36.6059 10.8607C36.4688 10.93 35.8348 11.3463 35.492 11.3463C33.5042 11.3637 30.8137 11.4331 28.6887 11.5545C28.4317 11.5718 28.0889 11.2943 27.9176 11.0341C27.7462 10.7913 27.6605 10.2362 27.6605 9.99338C27.6777 9.81993 27.8319 9.62913 28.0547 9.5424L27.9861 8.13742C27.969 8.13742 27.9518 8.12007 27.9518 8.12007C27.8148 8.03334 27.6434 7.75582 27.592 7.47829C27.5406 7.18341 27.5406 7.00996 27.6777 6.8712C27.6777 6.8712 27.849 6.66305 28.0033 6.66305C28.1575 6.66305 28.6716 6.76712 29.2028 6.78447C30.5566 6.8712 33.1786 6.81916 34.4638 6.73243C34.9437 6.69774 35.1493 6.66305 35.3035 6.66305C35.4235 6.68039 35.5777 6.71509 35.8005 6.97527C35.989 7.18341 36.1261 7.46094 36.0918 7.56501C36.0404 7.84254 35.869 8.12007 35.5434 8.34556C35.3207 8.51902 35.0636 8.64043 34.8066 8.62309ZM36.8972 12.4391C38.0454 12.4391 39.3992 13.289 39.3307 14.139C39.2793 14.7634 38.0625 15.0236 37.0686 14.9022C36.6573 14.8501 35.5949 14.7981 34.9608 14.7807C33.6241 14.746 28.346 14.8675 27.1978 14.9715C26.3753 15.0409 26.221 15.0062 25.6212 14.6073C25.21 14.3298 24.9701 14.0349 24.7644 13.792C24.5759 13.5666 24.6616 13.2543 25.0043 12.838C25.4156 12.335 25.587 12.0922 26.1354 12.3177C26.7523 12.5779 27.1636 12.6472 27.6948 12.6299C28.3117 12.6126 33.2814 12.5085 33.9669 12.4738C34.7894 12.4391 36.1946 12.4391 36.8972 12.4391Z" fill="#333333"/>
<path d="M22.6904 4.87807C22.7236 7.32749 22.707 11.789 22.707 13.3986C22.707 14.1509 22.5907 15.0782 22.3083 15.7255C21.9596 16.5128 21.3616 17.4401 21.2786 18C20.7471 17.0552 20.2655 15.7955 20.2987 14.6583C20.3651 12.2963 20.4149 7.46746 20.3983 5.28047C20.3983 4.38818 20.199 3.98577 19.9001 3.60086C19.5513 3.16347 19.6509 2.90103 20.1492 2.42864C20.6807 1.92126 20.9132 1.85127 21.4447 2.28867C22.4412 3.11098 22.6737 3.58337 22.6904 4.87807ZM18.2724 3.70584C19.2523 4.52815 19.4516 5.07052 19.4682 6.34772C19.5014 8.39474 19.4848 11.3166 19.435 12.5588C19.4018 13.3111 19.3021 14.2559 19.0032 14.8332C18.6046 15.6031 18.0897 16.3904 17.824 16.9502C17.4586 16.023 17.1098 14.6758 17.1098 13.6435C17.1098 12.7862 17.1264 11.8064 17.143 10.8092H17.0766C16.7112 10.7917 16.1465 10.7392 15.8475 10.4768C15.7811 10.4243 15.7146 10.3368 15.6482 10.2493C15.5485 10.4068 15.4323 10.5467 15.2828 10.7392C15.0835 11.0016 14.8177 11.0541 14.552 11.0541C14.0703 11.0541 13.2399 11.0541 12.5091 11.0716L12.5589 12.4013C13.2067 12.3838 13.871 12.3488 14.4025 12.3138C15.1665 12.2613 15.9305 12.1564 16.2129 12.1039C16.379 12.0689 16.4952 12.2263 16.5783 12.4013C16.7776 12.8037 16.6779 12.9437 16.2295 13.521C15.7977 14.0634 15.1831 14.3958 14.3195 14.4308C12.9742 14.4833 11.7451 14.5183 10.9313 14.3783C10.433 14.2909 10.2005 14.0809 10.1673 13.4861C10.134 12.9612 10.2337 12.6637 10.4496 12.5238C10.4164 11.8764 10.3832 11.1766 10.3666 10.5118C10.1839 10.1443 9.90152 9.67195 10.0344 9.427C10.1673 9.16456 10.4994 8.90213 10.9313 8.90213C11.1804 8.90213 11.496 8.97211 11.7949 9.0071C12.0108 9.04209 12.7582 9.0246 13.5721 9.0246L13.5555 7.69491C12.8081 7.7124 12.1603 7.7124 11.9942 7.7124C11.3299 7.7124 10.732 7.34499 10.3167 6.8551C10.051 6.54018 10.051 6.34772 10.4662 5.77036C10.732 5.40294 10.9147 5.28047 11.114 5.36795C11.3465 5.47293 11.6621 5.56041 11.9776 5.5954C12.5423 5.66538 13.8212 5.54291 14.2863 5.49042C14.4357 5.47293 14.7181 5.42044 14.9672 5.42044C15.5818 5.42044 16.1465 6.08528 15.9804 6.59267C15.8641 6.97758 15.7146 7.36249 15.615 7.62492C15.5984 7.7299 15.5818 7.85237 15.5818 7.93985C15.5818 8.06232 15.615 8.6047 15.6316 9.0071L15.8475 8.86713C16.1465 8.70967 16.6945 8.5872 17.1264 8.5872H17.1762C17.1928 7.88736 17.1928 7.22252 17.1928 6.62766C17.1928 5.73537 16.9437 5.36795 16.6613 5.00054C16.3125 4.56314 16.462 4.26571 16.9437 3.82831C17.4918 3.33843 17.7575 3.26844 18.2724 3.70584Z" fill="#333333"/>
</svg>
