<svg width="64" height="20" viewBox="0 0 64 20" fill="none" xmlns="http://www.w3.org/2000/svg">
<path d="M46.6035 15.9855C48.8092 15.9855 50.1326 15.4393 50.1326 14.4872C50.1326 13.5351 48.8092 12.9889 46.6035 12.9889C44.3821 12.9889 43.0744 13.5351 43.0744 14.4872C43.0744 15.4393 44.3821 15.9855 46.6035 15.9855ZM46.6035 11.99C49.6442 11.99 51.4402 12.8796 51.4402 14.4872C51.4402 16.0948 49.6442 16.9688 46.6035 16.9688C43.5786 16.9688 41.7668 16.0948 41.7668 14.4872C41.7668 12.8796 43.5786 11.99 46.6035 11.99ZM44.6499 8.27538V9.91418H48.5728V8.27538C47.9899 8.36902 47.3282 8.43145 46.6035 8.43145C45.8945 8.43145 45.2328 8.36902 44.6499 8.27538ZM42.9641 5.8406C42.9641 6.83948 44.3505 7.44818 46.6035 7.44818C48.8564 7.44818 50.2429 6.83948 50.2429 5.8406C50.2429 4.8261 48.8564 4.23302 46.6035 4.23302C44.3505 4.23302 42.9641 4.8261 42.9641 5.8406ZM49.849 9.91418H52.9999V10.9443H40.207V9.91418H43.3737V7.94762C42.2552 7.495 41.6407 6.79266 41.6407 5.8406C41.6407 4.2018 43.547 3.23413 46.6035 3.23413C49.6757 3.23413 51.5663 4.2018 51.5663 5.8406C51.5663 6.77705 50.9361 7.495 49.849 7.93201V9.91418Z" fill="#333333"/>
<path d="M31.5431 9.19621V5.04459H27.5729V9.19621H31.5431ZM32.8035 4.0301V10.2263H26.3125V4.0301H32.8035ZM27.5099 13.0669V12.0212H36.6949V17H35.403V13.0669H27.5099ZM38.7903 6.62096V7.68227H36.6949V11.2876H35.403V3H36.6949V6.62096H38.7903Z" fill="#333333"/>
<path d="M15.9943 5.4816V7.26087C15.9943 9.49275 17.6013 11.9744 19.6494 12.9264L18.9089 13.9565C17.3334 13.1761 16.01 11.5373 15.3641 9.66444C14.7181 11.709 13.3475 13.4883 11.7562 14.2999L11 13.2854C13.0166 12.2865 14.7181 9.63322 14.7181 7.26087V5.4816H11.4884V4.42029H19.1295V5.4816H15.9943ZM24.4389 8.63434V9.71126H22.1071V16.9844H20.8153V3H22.1071V8.63434H24.4389Z" fill="#333333"/>
</svg>
