<svg width="64" height="20" viewBox="0 0 64 20" fill="none" xmlns="http://www.w3.org/2000/svg">
<path d="M41.2596 4.69738H51.5991L51.3504 5.66911H41.0109L41.2596 4.69738ZM42.592 15.8387C42.5683 15.9058 42.5565 16.0063 42.5565 16.1403C42.5565 16.3637 42.6335 16.5424 42.7874 16.6764C42.9414 16.7993 43.1605 16.8607 43.4448 16.8607H52.594L51.6169 18H42.3788C41.9525 18 41.6149 17.8827 41.3662 17.6482C41.1293 17.4136 41.0109 17.1009 41.0109 16.7099C41.0109 16.5647 41.0286 16.4084 41.0642 16.2408L41.8636 12.9236H43.3026L42.592 15.8387ZM46.9446 2L46.3583 4.39581H41.3307L41.5616 3.42408H45.168L45.5233 2H46.9446ZM53.8198 15.4199L52.8427 16.5592H43.5158C43.2908 16.5592 43.125 16.5201 43.0184 16.4419C42.9236 16.3637 42.8763 16.2408 42.8763 16.0733C42.8763 16.0286 42.8881 15.9504 42.9118 15.8387L43.6224 12.9236H45.0614L44.4574 15.4199H53.8198ZM51.9012 3.42408L51.6702 4.39581H46.6781L47.2644 2H48.6678L48.3125 3.42408H51.9012ZM50.1424 14.0126L52.9849 2.45236H54.3883L51.5459 14.0126H50.1424ZM54.3883 9.47225L53.2691 14.0126H51.8656L53.2691 8.28272H56.6268L56.3425 9.47225H54.3883ZM56.9999 6.79162L56.6979 7.98115H53.3402L54.7081 2.45236H56.1116L55.0457 6.79162H56.9999ZM48.1526 6.13822C48.7922 6.13822 49.3074 6.31134 49.6982 6.65759C50.1009 6.99267 50.3023 7.43386 50.3023 7.98115C50.3023 8.19337 50.2786 8.38883 50.2312 8.56754L49.9114 9.87435C49.7338 10.6115 49.3725 11.1644 48.8277 11.533C48.2948 11.9016 47.6256 12.0859 46.8202 12.0859H42.823C42.1834 12.0859 41.6623 11.9183 41.2596 11.5832C40.8688 11.237 40.6733 10.7902 40.6733 10.2429C40.6733 10.0307 40.697 9.83525 40.7444 9.65655L41.0642 8.34974C41.2418 7.61257 41.5971 7.05969 42.1301 6.6911C42.6749 6.32251 43.35 6.13822 44.1554 6.13822H48.1526ZM46.7314 11.0974C47.2525 11.0974 47.6611 10.9913 47.9572 10.7791C48.2651 10.5557 48.4783 10.215 48.5968 9.75707L48.8633 8.70157C48.9106 8.47819 48.9343 8.32182 48.9343 8.23246C48.9343 7.87504 48.804 7.6014 48.5435 7.41152C48.2948 7.22164 47.9454 7.1267 47.4953 7.1267H44.2442C43.7231 7.1267 43.3086 7.23839 43.0006 7.46178C42.7045 7.674 42.4973 8.00907 42.3788 8.46702L42.1123 9.52251C42.065 9.7459 42.0413 9.90227 42.0413 9.99162C42.0413 10.349 42.1656 10.6227 42.4144 10.8126C42.6749 11.0024 43.0302 11.0974 43.4803 11.0974H46.7314ZM47.4953 7.42827C47.8506 7.42827 48.123 7.50646 48.3125 7.66283C48.502 7.8192 48.5968 8.037 48.5968 8.31623C48.5968 8.41675 48.579 8.53403 48.5435 8.66806L48.2948 9.65655C48.1882 10.0698 48.0164 10.3658 47.7796 10.5445C47.5427 10.712 47.1933 10.7958 46.7314 10.7958H43.4803C43.125 10.7958 42.8526 10.7176 42.6631 10.5613C42.4736 10.4049 42.3788 10.1871 42.3788 9.90785C42.3788 9.80733 42.3966 9.69005 42.4321 9.55602L42.6808 8.56754C42.7874 8.15428 42.9592 7.86387 43.196 7.69633C43.4329 7.51763 43.7823 7.42827 44.2442 7.42827H47.4953ZM46.909 9.80733L47.2466 8.41675H44.0666L43.729 9.80733H46.909Z" fill="#333333"/>
<path d="M31.3637 8.98276C31.7148 8.98276 31.93 8.7931 32.0093 8.41379L33.0286 3.91379H26.6407L26.9125 2.7069H34.6935L33.2834 8.89655C33.2042 9.25287 33.0399 9.54598 32.7908 9.77586C32.5416 10.0057 32.2301 10.1207 31.8564 10.1207H28.3056L27.762 12.5345H32.9437L33.1985 11.3793H36.8511L35.3391 18H33.963L35.2032 12.6034H33.98L33.0796 13.7414H26.7936C26.4085 13.7414 26.216 13.5862 26.216 13.2759C26.216 13.2299 26.2273 13.1494 26.2499 13.0345L27.1674 8.98276H31.3637ZM26.5727 4.22414H32.6548L31.7204 8.34483C31.6865 8.47127 31.6412 8.55747 31.5845 8.60345C31.5392 8.64943 31.4713 8.67241 31.3807 8.67241H26.9295L25.9441 13.0345C25.9215 13.1724 25.9102 13.2644 25.9102 13.3103C25.9102 13.5402 25.9781 13.7241 26.114 13.8621C26.2613 13.9885 26.4651 14.0517 26.7256 14.0517H32.8247L31.8903 15.2586H25.5194C25.1683 15.2586 24.8852 15.1494 24.67 14.931C24.4548 14.7126 24.3472 14.431 24.3472 14.0862C24.3472 13.9483 24.3642 13.8103 24.3981 13.6724L25.8082 7.53448H30.5142L30.9899 5.43103H26.3009L26.5727 4.22414ZM35.6449 18L39.2976 2H40.6737L37.021 18H35.6449ZM34.0649 7.82759L34.3368 6.60345H37.9385L36.9191 11.069H33.2664L33.5553 9.84483H35.8318L36.2905 7.82759H34.0649ZM38.9918 2L38.0064 6.2931H34.4047L34.6935 5.06897H36.9191L37.6157 2H38.9918Z" fill="#333333"/>
<path d="M14.7436 11.8086C15.2282 11.8086 15.6058 11.7021 15.8764 11.489C16.1581 11.2759 16.3554 10.9394 16.4681 10.4795L16.7724 9.11672C16.8063 8.98212 16.8232 8.84753 16.8232 8.71293C16.8232 8.36523 16.7105 8.08482 16.485 7.87171C16.2596 7.65861 15.9384 7.55205 15.5213 7.55205H12.2413C11.7566 7.55205 11.3734 7.65861 11.0916 7.87171C10.8211 8.08482 10.6294 8.42131 10.5167 8.88118L10.2124 10.244C10.1786 10.3785 10.1617 10.5131 10.1617 10.6477C10.1617 10.9954 10.2744 11.2759 10.4998 11.489C10.7253 11.7021 11.0465 11.8086 11.4635 11.8086H12.8838L12.0891 15.2913L7.30433 15.3754L7.55794 14.2986L10.9563 14.2482L11.2776 12.8349C10.466 12.8349 9.85171 12.6555 9.43466 12.2965C9.01761 11.9376 8.80909 11.4441 8.80909 10.816C8.80909 10.5356 8.83727 10.2832 8.89362 10.0589L9.13033 8.99895C9.32194 8.14651 9.67136 7.52401 10.1786 7.13144C10.6971 6.72766 11.4297 6.52576 12.3765 6.52576H15.7073C16.5188 6.52576 17.1331 6.70522 17.5502 7.06414C17.9672 7.42306 18.1758 7.91658 18.1758 8.54469C18.1758 8.8251 18.1476 9.07746 18.0912 9.30179L17.8545 10.3617C17.6629 11.2142 17.3078 11.8423 16.7894 12.2461C16.2821 12.6386 15.5551 12.8349 14.6083 12.8349H14.3209L14.0165 14.1977L18.0743 14.1304L20.7964 2.38696H22.1321L18.497 18H17.1613L17.956 14.6015L17.5333 15.1903L12.3934 15.2913L13.1881 11.8086H14.7436ZM11.4974 11.5058C11.1705 11.5058 10.9169 11.4217 10.7365 11.2534C10.5675 11.0852 10.4829 10.8552 10.4829 10.5636C10.4829 10.4402 10.4998 10.3113 10.5336 10.1767L10.8211 8.91483C10.9112 8.54469 11.0634 8.2755 11.2776 8.10726C11.503 7.93901 11.8242 7.85489 12.2413 7.85489H15.4875C15.8144 7.85489 16.0623 7.93901 16.2314 8.10726C16.4118 8.2755 16.5019 8.50543 16.5019 8.79706C16.5019 8.92043 16.485 9.04942 16.4512 9.18402L16.1638 10.4458C16.0736 10.816 15.9158 11.0852 15.6904 11.2534C15.4762 11.4217 15.1606 11.5058 14.7436 11.5058H11.4974ZM21.8447 10.6646L20.137 18H18.8013L20.7964 9.41956H23.9919L23.7045 10.6646H21.8447ZM24.3469 7.88854L24.0595 9.11672H20.864L22.4364 2.38696H23.7721L22.4871 7.88854H24.3469ZM7 16.755L7.2367 15.6782L17.3135 15.4932L16.5188 16.5868L7 16.755ZM9.5361 4.96109H19.41L19.1733 5.97056H9.2994L9.5361 4.96109ZM15.031 2L14.4223 4.65825H9.62064L9.84043 3.64879H13.2557L13.6277 2H15.031ZM19.7143 3.64879L19.4945 4.65825H14.7267L15.3353 2H16.7386L16.3667 3.64879H19.7143ZM15.1832 8.88118H12.1736L11.8017 10.4795H14.8112L15.1832 8.88118Z" fill="#333333"/>
</svg>
