<svg width="64" height="20" viewBox="0 0 64 20" fill="none" xmlns="http://www.w3.org/2000/svg">
<path d="M42.1086 9.40752C41.6286 9.58885 41.074 9.77019 40.4446 9.95152C39.8153 10.1329 39.1646 10.3035 38.4926 10.4635C37.8206 10.6235 37.1593 10.7622 36.5086 10.8795C35.8686 10.9969 35.3033 11.0715 34.8126 11.1035C34.3753 11.1355 34.0553 11.0662 33.8526 10.8955C33.6606 10.7249 33.5646 10.3995 33.5646 9.91952V6.14352C33.5646 5.82352 33.4633 5.61552 33.2606 5.51952C33.058 5.42352 32.7806 5.33819 32.4286 5.26352C32.2366 5.21019 32.1513 5.09285 32.1726 4.91152C32.194 4.73019 32.3166 4.62885 32.5406 4.60752C32.6473 4.60752 32.7966 4.60752 32.9886 4.60752C33.1806 4.60752 33.394 4.61285 33.6286 4.62352C33.8633 4.64485 34.1033 4.66619 34.3486 4.68752C34.594 4.69819 34.8233 4.71419 35.0366 4.73552C35.1646 4.75685 35.3246 4.76752 35.5166 4.76752C35.7193 4.76752 35.9273 4.76752 36.1406 4.76752C36.354 4.76752 36.5566 4.76219 36.7486 4.75152C36.9513 4.73019 37.1166 4.70885 37.2446 4.68752C37.3086 4.68752 37.3726 4.67685 37.4366 4.65552C37.5113 4.63419 37.5753 4.60752 37.6286 4.57552C37.6713 4.54352 37.7246 4.51152 37.7886 4.47952C37.8526 4.43685 37.9273 4.41019 38.0126 4.39952C38.2366 4.36752 38.4766 4.35685 38.7326 4.36752C38.9886 4.36752 39.2393 4.37819 39.4846 4.39952C39.7193 4.43152 39.89 4.50619 39.9966 4.62352C40.1033 4.73019 40.1566 4.84752 40.1566 4.97552C40.1566 5.10352 40.098 5.22085 39.9806 5.32752C39.8633 5.43419 39.7033 5.48752 39.5006 5.48752C39.202 5.49819 38.8446 5.50352 38.4286 5.50352C38.0233 5.50352 37.6126 5.50352 37.1966 5.50352C36.77 5.50352 36.3593 5.50885 35.9646 5.51952C35.5806 5.51952 35.2606 5.51952 35.0046 5.51952V7.32752C35.3566 7.32752 35.7513 7.32219 36.1886 7.31152C36.626 7.30085 36.9673 7.26352 37.2126 7.19952C37.2446 7.19952 37.2766 7.19419 37.3086 7.18352C37.3513 7.17285 37.3886 7.15685 37.4206 7.13552C37.4526 7.12485 37.4793 7.11419 37.5006 7.10352C37.5326 7.09285 37.5593 7.08219 37.5806 7.07152C37.6126 7.06085 37.6393 7.04485 37.6606 7.02352C37.6926 7.00219 37.7246 6.98085 37.7566 6.95952C37.7886 6.94885 37.8206 6.93819 37.8526 6.92752C37.8953 6.91685 37.938 6.90619 37.9806 6.89552C38.2046 6.87419 38.4393 6.86352 38.6846 6.86352C38.93 6.86352 39.1646 6.87419 39.3886 6.89552C39.5806 6.91685 39.73 6.98619 39.8366 7.10352C39.9433 7.21019 39.9966 7.32219 39.9966 7.43952C39.9966 7.56752 39.9433 7.68485 39.8366 7.79152C39.73 7.88752 39.5753 7.94085 39.3726 7.95152C39.2126 7.96219 38.946 7.97285 38.5726 7.98352C38.21 7.99419 37.8046 8.00485 37.3566 8.01552C36.9193 8.01552 36.482 8.02085 36.0446 8.03152C35.618 8.03152 35.2713 8.03152 35.0046 8.03152V9.45552C35.0046 9.57285 35.0313 9.67952 35.0846 9.77552C35.1486 9.86085 35.2606 9.90352 35.4206 9.90352C35.8473 9.89285 36.3433 9.85552 36.9086 9.79152C37.474 9.71685 38.0606 9.62619 38.6686 9.51952C39.2766 9.41285 39.8793 9.29019 40.4766 9.15152C41.074 9.01285 41.618 8.86352 42.1086 8.70352V4.47952C42.1086 4.22352 42.0873 4.01019 42.0446 3.83952C42.002 3.66885 41.9166 3.53552 41.7886 3.43952C41.6073 3.31152 41.394 3.21019 41.1486 3.13552C40.914 3.06085 40.6793 3.00219 40.4446 2.95952C40.3593 2.94885 40.3006 2.90619 40.2686 2.83152C40.2473 2.75685 40.242 2.68219 40.2526 2.60752C40.274 2.53285 40.3166 2.46885 40.3806 2.41552C40.4446 2.35152 40.5353 2.31952 40.6526 2.31952C41.058 2.33019 41.5273 2.37285 42.0606 2.44752C42.6046 2.51152 43.0686 2.60219 43.4526 2.71952C43.5166 2.75152 43.57 2.81552 43.6126 2.91152C43.6553 2.99685 43.6606 3.09819 43.6286 3.21552C43.5753 3.37552 43.5326 3.54085 43.5006 3.71152C43.4793 3.87152 43.4686 4.03152 43.4686 4.19152V7.43952C43.7033 7.42885 43.938 7.40752 44.1726 7.37552C44.4073 7.33285 44.594 7.24752 44.7326 7.11952C44.7966 7.03419 44.978 6.98619 45.2766 6.97552C45.586 6.96485 45.8633 6.97552 46.1086 7.00752C46.3753 7.07152 46.5673 7.16752 46.6846 7.29552C46.802 7.42352 46.85 7.54619 46.8286 7.66352C46.8073 7.79152 46.7166 7.90352 46.5566 7.99952C46.4073 8.08485 46.1993 8.12752 45.9326 8.12752H43.4686V9.27952C43.4686 10.1009 43.3833 10.7729 43.2126 11.2955C43.042 11.8182 42.8553 12.0795 42.6526 12.0795C42.4606 12.0902 42.322 11.8982 42.2366 11.5035C42.162 11.0982 42.1193 10.6022 42.1086 10.0155V9.40752ZM40.2206 11.8395C41.2446 11.8395 42.066 12.0955 42.6846 12.6075C43.314 13.1089 43.6286 13.7915 43.6286 14.6555C43.6286 15.4875 43.314 16.1649 42.6846 16.6875C42.066 17.2102 41.2446 17.4715 40.2206 17.4715C39.7193 17.4715 39.2606 17.4022 38.8446 17.2635C38.4286 17.1355 38.066 16.9435 37.7566 16.6875C37.458 16.4422 37.2233 16.1435 37.0526 15.7915C36.882 15.4502 36.7966 15.0715 36.7966 14.6555C36.7966 14.2289 36.882 13.8449 37.0526 13.5035C37.2233 13.1515 37.4633 12.8529 37.7726 12.6075C38.0713 12.3622 38.4286 12.1755 38.8446 12.0475C39.2713 11.9089 39.73 11.8395 40.2206 11.8395ZM40.2206 12.7675C39.5913 12.7675 39.09 12.9542 38.7166 13.3275C38.3433 13.7009 38.1566 14.1595 38.1566 14.7035C38.1566 15.2155 38.3433 15.6475 38.7166 15.9995C39.09 16.3622 39.5913 16.5435 40.2206 16.5435C40.85 16.5435 41.3406 16.3622 41.6926 15.9995C42.0553 15.6475 42.2366 15.2155 42.2366 14.7035C42.2366 14.1595 42.0553 13.7009 41.6926 13.3275C41.3406 12.9542 40.85 12.7675 40.2206 12.7675Z" fill="#333333"/>
<path d="M28.4998 4.17552V8.30352C28.7238 8.29285 28.9532 8.27152 29.1878 8.23952C29.4225 8.19685 29.6145 8.11152 29.7638 7.98352C29.8172 7.90885 29.9932 7.86619 30.2918 7.85552C30.6012 7.84485 30.8785 7.85552 31.1238 7.88752C31.3905 7.95152 31.5825 8.04752 31.6998 8.17552C31.8172 8.29285 31.8652 8.41552 31.8438 8.54352C31.8225 8.67152 31.7318 8.78352 31.5718 8.87952C31.4225 8.96485 31.2145 9.00752 30.9478 9.00752H28.4998V13.8715C28.5105 15.0235 28.4412 15.9462 28.2918 16.6395C28.1532 17.3329 27.9558 17.6795 27.6998 17.6795C27.5825 17.6902 27.4865 17.6155 27.4118 17.4555C27.3478 17.2955 27.2892 17.0822 27.2358 16.8155C27.1932 16.5489 27.1612 16.2395 27.1398 15.8875C27.1292 15.5462 27.1238 15.1889 27.1238 14.8155V4.47952C27.1238 4.22352 27.1025 4.01019 27.0598 3.83952C27.0172 3.66885 26.9318 3.53552 26.8038 3.43952C26.6225 3.31152 26.4092 3.21019 26.1638 3.13552C25.9292 3.06085 25.6945 3.00219 25.4598 2.95952C25.3745 2.94885 25.3158 2.90619 25.2838 2.83152C25.2625 2.75685 25.2572 2.68219 25.2678 2.60752C25.2892 2.53285 25.3318 2.46885 25.3958 2.41552C25.4598 2.35152 25.5505 2.31952 25.6678 2.31952C26.0732 2.33019 26.5478 2.37285 27.0918 2.44752C27.6358 2.51152 28.0998 2.60219 28.4838 2.71952C28.5478 2.75152 28.6012 2.81552 28.6438 2.91152C28.6865 2.99685 28.6918 3.09819 28.6598 3.21552C28.6065 3.37552 28.5638 3.53552 28.5318 3.69552C28.5105 3.85552 28.4998 4.01552 28.4998 4.17552ZM24.8198 5.67952V11.0075C24.8198 11.3702 24.7292 11.7062 24.5478 12.0155C24.3665 12.3142 24.1958 12.4635 24.0358 12.4635C23.9398 12.4635 23.8598 12.4422 23.7958 12.3995C23.7318 12.3569 23.6785 12.3089 23.6358 12.2555C23.5932 12.1915 23.5558 12.1275 23.5238 12.0635C23.4918 11.9995 23.4705 11.9462 23.4598 11.9035L19.8598 11.9675C19.8172 12.0635 19.7318 12.2022 19.6038 12.3835C19.4865 12.5649 19.3265 12.6609 19.1238 12.6715C18.9745 12.6929 18.8305 12.5915 18.6918 12.3675C18.5638 12.1435 18.4998 11.7702 18.4998 11.2475V6.59152C18.4998 6.48485 18.4892 6.36752 18.4678 6.23952C18.4465 6.10085 18.3878 5.98885 18.2918 5.90352C18.1958 5.81819 18.0572 5.74885 17.8758 5.69552C17.6945 5.63152 17.5132 5.58352 17.3318 5.55152C17.2678 5.55152 17.2198 5.51952 17.1878 5.45552C17.1665 5.39152 17.1612 5.32219 17.1718 5.24752C17.1825 5.17285 17.2092 5.10352 17.2518 5.03952C17.3052 4.97552 17.3798 4.93819 17.4758 4.92752C17.7638 4.91685 18.1372 4.93285 18.5958 4.97552C19.0545 5.01819 19.4438 5.07685 19.7638 5.15152C19.8278 5.18352 19.8758 5.25285 19.9078 5.35952C19.9505 5.45552 19.9558 5.55685 19.9238 5.66352C19.9132 5.69552 19.9025 5.73285 19.8918 5.77552C19.8918 5.81819 19.8865 5.87152 19.8758 5.93552C19.8758 5.98885 19.8705 6.04752 19.8598 6.11152C19.8598 6.17552 19.8598 6.23952 19.8598 6.30352V7.40752L23.4598 7.32752V5.96752C23.4598 5.86085 23.4438 5.74352 23.4118 5.61552C23.3905 5.48752 23.3318 5.38085 23.2358 5.29552C23.1505 5.21019 23.0012 5.13552 22.7878 5.07152C22.5852 5.00752 22.3932 4.95952 22.2118 4.92752C22.1478 4.92752 22.0998 4.89552 22.0678 4.83152C22.0465 4.76752 22.0412 4.69819 22.0518 4.62352C22.0625 4.54885 22.0892 4.47952 22.1318 4.41552C22.1852 4.35152 22.2598 4.31419 22.3558 4.30352C22.4945 4.30352 22.6652 4.30885 22.8678 4.31952C23.0705 4.33019 23.2838 4.34619 23.5078 4.36752C23.7318 4.38885 23.9505 4.41552 24.1638 4.44752C24.3772 4.47952 24.5638 4.51152 24.7238 4.54352C24.7878 4.57552 24.8358 4.64485 24.8678 4.75152C24.9105 4.84752 24.9158 4.94885 24.8838 5.05552C24.8732 5.08752 24.8625 5.12485 24.8518 5.16752C24.8518 5.21019 24.8465 5.25819 24.8358 5.31152C24.8358 5.36485 24.8305 5.42352 24.8198 5.48752C24.8198 5.55152 24.8198 5.61552 24.8198 5.67952ZM23.4598 8.14352L19.8598 8.20752V11.1835L23.4598 11.1035V8.14352Z" fill="#333333"/>
</svg>
