<svg width="64" height="20" viewBox="0 0 64 20" fill="none" xmlns="http://www.w3.org/2000/svg">
<path d="M53.9998 11.1326H40.8022V9.54144H43.77V7.82873C43.2379 7.59668 42.8295 7.30387 42.5447 6.95028C42.2599 6.59669 42.1194 6.19521 42.1231 5.74586C42.1231 5.18232 42.3367 4.69429 42.7639 4.28177C43.1948 3.86924 43.8056 3.55249 44.5963 3.33149C45.3907 3.1105 46.3218 3 47.3898 3C48.454 3 49.3814 3.1105 50.1721 3.33149C50.9627 3.55249 51.5735 3.86924 52.0044 4.28177C52.4354 4.69429 52.6508 5.18232 52.6508 5.74586C52.6471 6.20258 52.4991 6.60958 52.2068 6.96685C51.9183 7.32044 51.5004 7.61326 50.9534 7.8453V9.54144H53.9998V11.1326ZM42.3086 14.4309C42.3086 13.8858 42.5091 13.4217 42.91 13.0387C43.3147 12.6556 43.8955 12.3665 44.6525 12.1713C45.4132 11.9724 46.32 11.8729 47.3729 11.8729C48.4146 11.8729 49.3121 11.9724 50.0653 12.1713C50.8222 12.3665 51.4011 12.6556 51.8021 13.0387C52.2068 13.4217 52.411 13.8858 52.4148 14.4309C52.411 14.9797 52.2068 15.4457 51.8021 15.8287C51.4011 16.2155 50.8241 16.5083 50.0709 16.7072C49.3177 16.9061 48.4184 17.0037 47.3729 17C46.3162 17.0037 45.4094 16.9061 44.6525 16.7072C43.8955 16.5083 43.3147 16.2155 42.91 15.8287C42.5091 15.4457 42.3086 14.9797 42.3086 14.4309ZM44.2309 5.74586C44.2272 6.13628 44.4951 6.43094 45.0347 6.62983C45.5743 6.82873 46.3593 6.92818 47.3898 6.92818C48.4128 6.92818 49.1959 6.82873 49.7393 6.62983C50.2864 6.43094 50.5599 6.13628 50.5599 5.74586C50.5599 5.35175 50.2864 5.05156 49.7393 4.8453C49.1922 4.63904 48.409 4.53591 47.3898 4.53591C46.3631 4.53591 45.578 4.63904 45.0347 4.8453C44.4951 5.05156 44.2272 5.35175 44.2309 5.74586ZM44.3771 14.4309C44.3696 14.7882 44.6131 15.0589 45.1078 15.2431C45.6024 15.4236 46.3424 15.5138 47.328 15.5138C48.3322 15.5138 49.091 15.4236 49.6044 15.2431C50.1177 15.0626 50.3763 14.7919 50.38 14.4309C50.3763 14.0773 50.1234 13.8158 49.6212 13.6464C49.1191 13.4733 48.3697 13.3831 47.3729 13.3757C46.3649 13.3831 45.6117 13.4733 45.1134 13.6464C44.6187 13.8158 44.3733 14.0773 44.3771 14.4309ZM48.9355 9.54144V8.34254C48.4708 8.40147 47.9556 8.43094 47.3898 8.43094C46.8127 8.43094 46.29 8.40147 45.8216 8.34254V9.54144H48.9355Z" fill="#333333"/>
<path d="M40.1712 4.06451V6.10358H36.6661V15.5801H34.2022V6.10358H30.6812V4.06451H40.1712Z" fill="#333333"/>
<path d="M25.7768 11.4395H23.2891V15.5801H20.8569V4.06451H25.9596C27.1359 4.06451 28.0738 4.36139 28.7733 4.95514C29.4727 5.54889 29.8224 6.46816 29.8224 7.71295C29.8224 9.07233 29.4727 10.0333 28.7733 10.5958C28.0738 11.1583 27.075 11.4395 25.7768 11.4395ZM26.9213 9.04108C27.2393 8.76504 27.3982 8.32754 27.3982 7.72858C27.3982 7.12962 27.2366 6.70253 26.9134 6.44733C26.5955 6.19212 26.1477 6.06451 25.5702 6.06451H23.2891V9.45514H25.5702C26.1477 9.45514 26.5981 9.31712 26.9213 9.04108Z" fill="#333333"/>
<path d="M14.9199 11.4395H12.4321V15.5801H10V4.06451H15.1027C16.279 4.06451 17.2169 4.36139 17.9163 4.95514C18.6158 5.54889 18.9655 6.46816 18.9655 7.71295C18.9655 9.07233 18.6158 10.0333 17.9163 10.5958C17.2169 11.1583 16.2181 11.4395 14.9199 11.4395ZM16.0644 9.04108C16.3823 8.76504 16.5413 8.32754 16.5413 7.72858C16.5413 7.12962 16.3797 6.70253 16.0565 6.44733C15.7385 6.19212 15.2908 6.06451 14.7132 6.06451H12.4321V9.45514H14.7132C15.2908 9.45514 15.7412 9.31712 16.0644 9.04108Z" fill="#333333"/>
</svg>
