<svg width="64" height="20" viewBox="0 0 64 20" fill="none" xmlns="http://www.w3.org/2000/svg">
<path d="M58.345 12.9629C58.3768 10.9919 58.4404 5.51678 58.3768 3.89952C58.345 3.14143 58.3291 2.75396 58.202 2.46757C57.9477 1.8611 59.5368 1.82741 59.4892 2.46757C59.3303 4.53969 59.3938 10.975 59.4415 12.9629C59.4574 13.6536 58.3291 13.6536 58.345 12.9629ZM48 7.74051C48 9.66101 49.3507 11.0087 51.3689 11.0087C53.244 11.0087 54.6583 9.66101 54.6583 7.74051C54.6583 5.78632 53.244 4.37122 51.3689 4.37122C49.3507 4.37122 48 5.87056 48 7.74051ZM49.0488 7.72367C49.0488 6.25803 50.0182 5.24724 51.3371 5.24724C52.6878 5.24724 53.5936 6.25803 53.5936 7.72367C53.5936 9.10508 52.6878 10.1327 51.3371 10.1327C50.0182 10.1327 49.0488 9.10508 49.0488 7.72367ZM52.1793 13.7547C52.0363 13.2325 53.4029 13.2493 53.387 13.8389C53.3711 14.4117 53.3553 15.7763 53.3553 16.4333C53.3553 16.905 53.5142 17.124 54.0545 17.124C55.8184 17.1408 58.345 17.1071 59.5051 17.0566C59.9341 17.0398 60.2678 18 59.6957 18H54.0545C52.8309 18 52.3223 17.5451 52.3223 16.4333C52.3223 15.8268 52.3065 14.8666 52.2747 14.3443C52.2588 14.0748 52.2111 13.8726 52.1793 13.7547Z" fill="#333333"/>
<path d="M41.3762 8.34791C40.7541 8.41388 40.723 7.19346 41.314 7.24293C42.0605 7.29241 43.0092 7.3254 43.9269 7.3089C43.9424 5.97304 43.9424 4.67016 43.9113 3.87854C43.8802 3.1364 43.8491 2.75708 43.7091 2.47671C43.4603 1.88299 45.0156 1.80053 44.9844 2.47671C44.8445 4.50524 44.9067 9.04058 44.9533 10.9866C44.9689 11.6628 43.8491 11.6628 43.8647 10.9866C43.8802 10.228 43.9113 9.22199 43.9113 8.18299C43.0559 8.19948 42.0605 8.26545 41.3762 8.34791ZM33.2577 11.267C35.2951 10.0466 37.3947 7.29241 38.0479 5.34634C36.9592 5.34634 35.8861 5.36283 35.0462 5.4288C34.533 5.44529 34.3775 4.37331 34.8752 4.3898C36.6637 4.45577 39.4166 4.57121 41.2829 4.3898C41.7961 4.35681 41.905 5.44529 41.3762 5.4288C40.7385 5.41231 40.0076 5.37932 39.2455 5.36283C39.0433 5.97304 38.7322 6.59974 38.3434 7.22644C39.2921 7.96859 40.5208 9.25497 40.9407 10.0301C41.3451 10.7558 40.2098 11.1351 40.0076 10.6898C39.6032 9.71675 38.67 8.59529 37.8768 7.91911C36.6793 9.56832 34.984 11.0691 33.5065 11.8113C33.0088 12.0586 32.7911 11.5639 33.2577 11.267ZM37.8302 12.306C39.261 12.3555 42.3249 12.372 43.6314 12.372C44.6423 12.372 45 12.8008 45 13.8563V17.501C45 18.1607 43.9113 18.1607 43.9424 17.534C43.9891 16.2476 43.9891 14.6974 43.9891 13.8233C43.9891 13.444 43.8647 13.2131 43.4914 13.2131C42.9159 13.2131 39.5876 13.2131 38.0013 13.312C37.4569 13.345 37.2547 12.273 37.8302 12.306Z" fill="#333333"/>
<path d="M29.856 10.8533C29.8719 9.95993 29.9037 8.73573 29.9196 7.51152C28.919 7.54461 27.6167 7.59423 26.9179 7.67695C26.2668 7.77621 26.235 6.51892 26.8544 6.56855C27.6167 6.63472 28.8555 6.66781 29.9196 6.65126C29.9355 5.5594 29.9355 4.53372 29.9037 3.87198C29.8719 3.12753 29.8084 2.74703 29.7131 2.4658C29.4272 1.88678 31.0313 1.80406 30.9995 2.4658C30.9042 4.48409 30.9201 8.90116 30.9678 10.8533C30.9837 11.5316 29.8084 11.5316 29.856 10.8533ZM19.2152 10.6217C21.1846 9.28166 23.4239 5.95644 24.0433 4.00433C24.0909 3.85544 24.1227 3.62383 24.1068 3.49148C23.9798 2.99518 25.5362 3.1937 25.3297 3.88853C25.0915 4.78187 24.5833 5.77447 23.948 6.73398C24.9486 7.37917 26.4097 8.83499 26.9179 9.69524C27.3308 10.4066 26.1556 10.8036 25.965 10.3735C25.4727 9.2982 24.3451 8.00782 23.4874 7.39571C22.2963 9.01696 20.7875 10.4893 19.517 11.2007C19.0564 11.4488 18.7864 10.9029 19.2152 10.6217ZM24.615 14.956C24.615 16.7262 25.8856 18 27.7914 18C29.5702 18 30.9042 16.7262 30.9042 14.956C30.9042 13.1528 29.5702 11.8293 27.7914 11.8293C25.8856 11.8293 24.615 13.2355 24.615 14.956ZM25.6474 14.9395C25.6474 13.5829 26.5526 12.673 27.7596 12.673C29.0302 12.673 29.8719 13.5829 29.8719 14.9395C29.8719 16.2464 29.0302 17.1563 27.7596 17.1563C26.5526 17.1563 25.6474 16.2464 25.6474 14.9395Z" fill="#333333"/>
<path d="M14.9001 10.4793C14.9001 9.10744 14.966 7.17355 14.966 5.57025C14.966 4.92562 14.966 4.33058 14.9495 3.86777C14.9166 3.12397 14.8672 2.7438 14.7355 2.46281C14.6037 2.16529 14.966 2 15.3447 2C15.7069 2 16.0856 2.14876 16.0692 2.46281C16.0198 3.75207 16.0033 5.83471 16.0033 7.68595C16.843 7.66942 17.7816 7.65289 18.5554 7.61983C18.8518 7.60331 19 7.86777 19 8.13223C19 8.42975 18.8353 8.72727 18.4896 8.67769C17.831 8.61157 16.876 8.54545 16.0198 8.52893C16.0198 9.2562 16.0362 9.95041 16.0362 10.4628C16.0362 10.7934 15.7398 10.9587 15.4599 10.9587C15.18 10.9587 14.9001 10.8099 14.9001 10.4793ZM4 11.9008C4 11.7686 4.08233 11.6364 4.29638 11.5372C6.60154 10.4463 9.91109 7.63636 10.9978 5.66942C11.0307 5.60331 11.0637 5.53719 11.0637 5.47107C11.0637 5.30578 10.9155 5.20661 10.7014 5.20661C9.66411 5.19008 7.24369 5.23967 5.97585 5.32231C5.64654 5.33884 5.41603 4.97521 5.41603 4.67769C5.41603 4.44628 5.54775 4.26446 5.84413 4.28099C6.60154 4.31405 7.72119 4.33058 8.79144 4.33058C9.66411 4.33058 10.5203 4.31405 11.1625 4.31405C11.7881 4.31405 12.3315 4.7438 12.3315 5.32231C12.3315 5.47107 12.2986 5.63636 12.2162 5.80165C11.1625 7.98347 7.45774 10.9091 4.51043 12.2149C4.46103 12.2314 4.41164 12.2479 4.36224 12.2479C4.16465 12.2479 4 12.0826 4 11.9008ZM9.13721 12.6777C9.00549 12.3802 9.35126 12.2149 9.72997 12.2149C9.97695 12.2149 10.2239 12.2975 10.3392 12.4628L14.6696 12.4132C15.5423 12.3967 16.2667 12.6116 16.2667 13.7025C16.2667 13.8347 16.2503 13.9835 16.2338 14.1488L15.8222 16.7438H16.0362C16.3491 16.7438 16.4973 16.9752 16.4973 17.2066C16.4973 17.4545 16.3326 17.7025 15.9868 17.6694C15.1471 17.5868 12.0351 17.5537 10.4709 17.5207C10.4709 17.8347 10.2075 18 9.96048 18C9.68057 18 9.41712 17.8182 9.40066 17.4711C9.38419 16.1488 9.36773 14.7107 9.31833 13.7851C9.30187 13.3223 9.26894 12.9256 9.13721 12.6777ZM10.3886 13.3223L10.438 16.7107L14.966 16.7438L15.18 14.1488C15.2294 13.5702 15.0154 13.3058 14.3897 13.3058L10.3886 13.3223Z" fill="#333333"/>
</svg>
