<svg width="64" height="20" viewBox="0 0 64 20" fill="none" xmlns="http://www.w3.org/2000/svg">
<path d="M52.4636 11.2265H39.4912V9.63531H42.4083V7.9226C41.8853 7.69056 41.4838 7.39774 41.2039 7.04415C40.924 6.69056 40.7859 6.28908 40.7896 5.83973C40.7896 5.27619 40.9995 4.78816 41.4194 4.37564C41.843 3.96312 42.4433 3.64636 43.2205 3.42536C44.0013 3.20437 44.9166 3.09387 45.9663 3.09387C47.0124 3.09387 47.924 3.20437 48.7012 3.42536C49.4783 3.64636 50.0787 3.96312 50.5023 4.37564C50.9258 4.78816 51.1376 5.27619 51.1376 5.83973C51.1339 6.29645 50.9884 6.70345 50.7012 7.06072C50.4175 7.41431 50.0069 7.70713 49.4691 7.93918V9.63531H52.4636V11.2265ZM40.9719 14.5248C40.9719 13.9797 41.1689 13.5156 41.563 13.1325C41.9608 12.7495 42.5317 12.4604 43.2757 12.2651C44.0234 12.0662 44.9148 11.9668 45.9498 11.9668C46.9737 11.9668 47.8559 12.0662 48.5962 12.2651C49.3402 12.4604 49.9093 12.7495 50.3034 13.1325C50.7012 13.5156 50.9019 13.9797 50.9056 14.5248C50.9019 15.0736 50.7012 15.5395 50.3034 15.9226C49.9093 16.3093 49.342 16.6022 48.6017 16.8011C47.8614 16.9999 46.9774 17.0976 45.9498 17.0939C44.9111 17.0976 44.0198 16.9999 43.2757 16.8011C42.5317 16.6022 41.9608 16.3093 41.563 15.9226C41.1689 15.5395 40.9719 15.0736 40.9719 14.5248ZM42.8614 5.83973C42.8577 6.23015 43.121 6.52481 43.6514 6.72371C44.1818 6.9226 44.9535 7.02205 45.9663 7.02205C46.9719 7.02205 47.7417 6.9226 48.2757 6.72371C48.8135 6.52481 49.0824 6.23015 49.0824 5.83973C49.0824 5.44562 48.8135 5.14544 48.2757 4.93918C47.738 4.73291 46.9682 4.62978 45.9663 4.62978C44.9571 4.62978 44.1855 4.73291 43.6514 4.93918C43.121 5.14544 42.8577 5.44562 42.8614 5.83973ZM43.005 14.5248C42.9977 14.8821 43.2371 15.1528 43.7233 15.337C44.2094 15.5174 44.9369 15.6077 45.9056 15.6077C46.8927 15.6077 47.6385 15.5174 48.1431 15.337C48.6477 15.1565 48.9019 14.8858 48.9056 14.5248C48.9019 14.1712 48.6533 13.9097 48.1597 13.7403C47.6662 13.5672 46.9295 13.4769 45.9498 13.4696C44.959 13.4769 44.2187 13.5672 43.7288 13.7403C43.2426 13.9097 43.0013 14.1712 43.005 14.5248ZM47.4857 9.63531V8.43641C47.029 8.49534 46.5225 8.52481 45.9663 8.52481C45.3991 8.52481 44.8853 8.49534 44.4249 8.43641V9.63531H47.4857Z" fill="#333333"/>
<path d="M36.9891 8.46405H33.1272V9.81764H38.6355V11.4143H25.6631V9.81764H31.1272V8.46405H27.2653V3.453H36.9891V8.46405ZM27.0996 12.4696H37.0554V17.116H35.0609V14.0331H27.0996V12.4696ZM35.0277 6.90052V5.00549H29.2156V6.90052H35.0277Z" fill="#333333"/>
<path d="M24.1223 17.116H22.2383V2.88397H24.1223V17.116ZM11.5366 12.9613C12.207 12.5488 12.7558 12.011 13.183 11.3481C13.6103 10.6851 13.9215 9.95764 14.1167 9.16574C14.3119 8.37016 14.4095 7.54696 14.4095 6.69613V5.93922H12.0781V4.34254H18.4869V5.93922H16.3322V6.69613C16.3285 7.52854 16.4206 8.32228 16.6084 9.07734C16.7963 9.83241 17.1002 10.5212 17.52 11.1436C17.9399 11.7624 18.4814 12.2615 19.1444 12.6409L17.9786 14.105C17.3598 13.744 16.8368 13.2615 16.4095 12.6575C15.9823 12.0534 15.6434 11.3536 15.393 10.558C15.1351 11.4236 14.7852 12.1878 14.3433 12.8508C13.9013 13.5138 13.3672 14.0405 12.741 14.4309L11.5366 12.9613ZM17.4758 7.76795H19.3488V3.12154H21.2162V16.453H19.3488V9.37016H17.4758V7.76795Z" fill="#333333"/>
</svg>
