<svg width="64" height="20" viewBox="0 0 64 20" fill="none" xmlns="http://www.w3.org/2000/svg">
<path d="M49.7387 5.65625C49.7387 5.17187 49.8739 4.75 50.1444 4.40625C50.4149 4.07812 50.7905 3.8125 51.3014 3.59375C51.7822 3.39062 52.3833 3.23437 53.1045 3.14063C53.8107 3.04687 54.6071 3 55.5086 3C56.3801 3 57.1765 3.04687 57.8978 3.14063C58.604 3.23437 59.205 3.39062 59.7159 3.59375C60.2117 3.8125 60.6024 4.07812 60.8729 4.40625C61.1283 4.75 61.2636 5.17187 61.2636 5.65625C61.2636 6.09375 61.1584 6.46875 60.963 6.78125C60.7527 7.09375 60.4522 7.35937 60.0615 7.5625V8.95312H61.9998V11.1719H49.0024V8.95312H50.9408V7.54687C50.1294 7.14062 49.7387 6.5 49.7387 5.65625ZM55.5086 17C54.547 17 53.7055 16.9531 52.9843 16.8594C52.248 16.7656 51.632 16.6094 51.1361 16.4062C50.6252 16.1875 50.2346 15.9062 49.9791 15.5625C49.7087 15.2188 49.5885 14.7969 49.5885 14.2969C49.5885 13.7969 49.7087 13.375 49.9791 13.0312C50.2346 12.7031 50.6252 12.4219 51.1361 12.2031C51.632 12 52.248 11.8437 52.9843 11.75C53.7055 11.6562 54.547 11.6094 55.5086 11.6094C56.4402 11.6094 57.2817 11.6562 58.033 11.75C58.7542 11.8437 59.3853 12 59.8962 12.2031C60.3921 12.4219 60.7677 12.7031 61.0382 13.0312C61.2936 13.375 61.4288 13.7969 61.4288 14.2969C61.4288 14.7969 61.2936 15.2188 61.0382 15.5625C60.7677 15.9062 60.3921 16.1875 59.8962 16.4062C59.3853 16.6094 58.7542 16.7656 58.033 16.8594C57.2817 16.9531 56.4402 17 55.5086 17ZM55.5086 14.8438C56.3801 14.8438 57.0713 14.7969 57.5822 14.7187C58.063 14.625 58.3185 14.4844 58.3185 14.2969C58.3185 14.1094 58.063 13.9687 57.5822 13.875C57.0713 13.7969 56.3801 13.75 55.5086 13.75C54.6221 13.75 53.9309 13.7969 53.4501 13.875C52.9392 13.9687 52.6988 14.1094 52.6988 14.2969C52.6988 14.4844 52.9392 14.625 53.4501 14.7187C53.9309 14.7969 54.6221 14.8438 55.5086 14.8438ZM55.5086 6.0625C56.3501 6.0625 57.0112 6.04687 57.477 5.98437C57.9278 5.95312 58.1532 5.84375 58.1532 5.65625C58.1532 5.48437 57.9278 5.375 57.477 5.3125C57.0112 5.26562 56.3501 5.23438 55.5086 5.23438C54.6522 5.23438 53.991 5.26562 53.5403 5.3125C53.0745 5.375 52.8491 5.48437 52.8491 5.65625C52.8491 5.84375 53.0745 5.95312 53.5403 5.98437C53.991 6.04687 54.6522 6.0625 55.5086 6.0625ZM55.5086 8.29687C54.9226 8.29687 54.3817 8.28125 53.9009 8.25V8.95312H57.1014V8.25C56.5905 8.28125 56.0646 8.29687 55.5086 8.29687Z" fill="#333333"/>
<path d="M47.2751 3.15631V9.76569H44.1647V3.15631H47.2751ZM44.1647 12.5938V12.1251H35.4046V10.3126H47.2751V14.4063H38.53V14.8751H47.4253V16.6876H35.4046V12.5938H44.1647ZM38.7554 7.40631C39.1761 7.40631 39.5367 7.32819 39.8072 7.17194C40.0777 7.01569 40.2129 6.78131 40.2129 6.43756C40.2129 6.12506 40.0777 5.87506 39.8072 5.70319C39.5367 5.54694 39.1761 5.45319 38.7554 5.45319C38.3347 5.45319 37.9891 5.54694 37.7186 5.70319C37.4481 5.87506 37.3129 6.12506 37.3129 6.43756C37.3129 6.78131 37.4481 7.01569 37.7186 7.17194C37.9891 7.32819 38.3347 7.40631 38.7554 7.40631ZM34.3228 6.43756C34.3228 5.90631 34.4279 5.42194 34.6383 5.00006C34.8487 4.59381 35.1492 4.25006 35.5399 3.96881C35.9155 3.70319 36.3813 3.50006 36.9373 3.35944C37.4782 3.23444 38.0792 3.15631 38.7554 3.15631C39.4165 3.15631 40.0326 3.23444 40.5885 3.35944C41.1295 3.50006 41.5953 3.70319 41.9859 3.96881C42.3616 4.25006 42.6621 4.59381 42.8725 5.00006C43.0828 5.42194 43.188 5.90631 43.188 6.43756C43.188 6.98444 43.0828 7.45319 42.8725 7.85944C42.6621 8.26569 42.3616 8.60944 41.9859 8.87506C41.5953 9.15631 41.1295 9.37506 40.5885 9.50006C40.0326 9.64069 39.4165 9.70319 38.7554 9.70319C38.0792 9.70319 37.4782 9.64069 36.9373 9.50006C36.3813 9.37506 35.9155 9.15631 35.5399 8.87506C35.1492 8.60944 34.8487 8.26569 34.6383 7.85944C34.4279 7.45319 34.3228 6.98444 34.3228 6.43756Z" fill="#333333"/>
<path d="M21.7676 13.5313H25.7494V16.2188H18.8525V3.46881H21.7676V13.5313ZM26.5758 16.3751V10.1876L24.1567 11.0313V8.07819L26.5758 7.23444V3.15631H29.4909V16.3751H26.5758ZM33.067 16.3751H30.137V3.15631H33.067V16.3751Z" fill="#333333"/>
<path d="M16.9357 11.2969V16.6875H3.56269V11.2969H16.9357ZM7.03367 4.54688V4.8125L8.52123 5.84375C8.53625 5.65625 8.55128 5.4375 8.56631 5.21875C8.56631 5 8.58133 4.78125 8.58133 4.53125V3.125H11.3912V4.54688C11.3912 5.45313 11.316 6.23437 11.1658 6.89063L13.2243 8.39063L11.5264 10.5L10.0088 9.3125C9.42278 9.98438 8.58133 10.5469 7.49947 11L6.08704 9.1875C6.41761 9.04688 6.7031 8.89063 6.97356 8.71875C7.229 8.5625 7.45439 8.39063 7.64973 8.17188L6.55284 7.39062C6.28237 8.10938 5.8917 8.70313 5.38082 9.1875C4.86994 9.6875 4.23885 10.0781 3.50259 10.375L2 8.32812C2.78135 8.0625 3.35233 7.60938 3.71295 6.98438C4.04352 6.375 4.22383 5.5625 4.22383 4.53125V3.125H7.03367V4.54688ZM12.0974 7.26563V4.3125L13.8254 3.92187V3.15625H16.9357V10.75H13.8254V6.875L12.0974 7.26563ZM6.67305 13.5V14.4844H13.8254V13.5H6.67305Z" fill="#333333"/>
</svg>
