<svg width="64" height="20" viewBox="0 0 64 20" fill="none" xmlns="http://www.w3.org/2000/svg">
<path d="M51.7097 2V13.3536H50.3985V2H51.7097ZM53.9999 7.41452V8.59485H51.3076V7.41452H53.9999ZM52.0768 16.8384V18H42.5838V16.8384H52.0768ZM43.8775 12.829V17.2881H42.5838V12.829H43.8775ZM48.7377 5.18501H40.311V4.02342H48.7377V5.18501ZM45.1712 2V4.84778H43.8775V2H45.1712ZM41.0103 7.73302C41.0103 7.05855 41.1968 6.44028 41.5698 5.87822C41.9544 5.31616 42.4148 4.87276 42.9509 4.54801C43.4987 4.22326 44.0057 4.06089 44.4719 4.06089C44.9614 4.06089 45.4859 4.22326 46.0453 4.54801C46.6048 4.87276 47.0768 5.31616 47.4614 5.87822C47.8577 6.44028 48.0558 7.05855 48.0558 7.73302C48.0558 8.43248 47.9043 9.05699 47.6013 9.60656C47.2983 10.1436 46.8728 10.5683 46.3251 10.8806C45.7773 11.1803 45.1595 11.3302 44.4719 11.3302C43.8076 11.3302 43.2132 11.1803 42.6887 10.8806C42.1642 10.5683 41.7504 10.1436 41.4474 9.60656C41.156 9.05699 41.0103 8.43248 41.0103 7.73302ZM42.2341 7.73302C42.2341 8.45746 42.4439 9.05074 42.8635 9.51288C43.2831 9.97502 43.8192 10.2061 44.4719 10.2061C45.1595 10.2061 45.7248 9.97502 46.1677 9.51288C46.6106 9.05074 46.8321 8.45746 46.8321 7.73302C46.8321 6.9961 46.6106 6.39032 46.1677 5.91569C45.7248 5.44106 45.1595 5.20375 44.4719 5.20375C43.8192 5.20375 43.2831 5.44106 42.8635 5.91569C42.4439 6.39032 42.2341 6.9961 42.2341 7.73302Z" fill="#333333"/>
<path d="M37.3472 3V4.052H26.6349V3H37.3472ZM37.3472 7.00846V8.06046H26.6349V7.00846H37.3472ZM29.9396 3.3809V7.6977H28.5286V3.3809H29.9396ZM35.4349 3.3809V7.6977H34.0611V3.3809H35.4349ZM39.3337 9.43894V10.5272H24.667V9.43894H39.3337ZM36.9759 11.9782V15.4244H28.3429V17.3833H26.9505V14.4268H35.602V13.0121H26.8948V11.9782H36.9759ZM37.4957 16.948V18H26.9505V16.948H37.4957Z" fill="#333333"/>
<path d="M22.7111 2V11.0394H21.2861V2H22.7111ZM22.7111 11.9861V18H12.584V11.9861H22.7111ZM13.971 13.0998V16.8677H21.3241V13.0998H13.971ZM10 9.44316L12.565 6.15777C12.8437 5.81129 13.0337 5.48337 13.135 5.17401C13.249 4.85228 13.306 4.53055 13.306 4.20882V2.44548H14.598V4.20882C14.598 4.64192 14.522 5.08739 14.37 5.54524C14.218 6.00309 13.9584 6.46713 13.591 6.93736L11.026 10.2227L10 9.44316ZM16.9161 10.2227L14.351 6.93736C13.9837 6.46713 13.724 6.00309 13.572 5.54524C13.42 5.08739 13.344 4.64192 13.344 4.20882V2.44548H14.636V4.20882C14.636 4.53055 14.6867 4.84609 14.788 5.15545C14.902 5.46481 15.0984 5.79892 15.377 6.15777L17.9421 9.44316L16.9161 10.2227Z" fill="#333333"/>
</svg>
