<svg width="64" height="20" viewBox="0 0 64 20" fill="none" xmlns="http://www.w3.org/2000/svg">
<path d="M47.5287 6.91023C47.8165 7.16632 48.1043 7.41127 48.3921 7.64509C48.6909 7.86778 49.0009 8.09603 49.3218 8.32985C49.6428 8.55254 49.9804 8.78636 50.3346 9.03132C50.6999 9.26514 51.0983 9.51009 51.53 9.76618L50.5504 10.6347C50.2516 10.3229 49.9693 10.0334 49.7037 9.76618C49.4381 9.49896 49.1669 9.24287 48.8902 8.99791C48.6245 8.74182 48.3533 8.48573 48.0766 8.22965C47.7999 7.97356 47.5066 7.68963 47.1967 7.37787C46.4994 8.24635 45.7246 9.00348 44.8723 9.64927C44.0311 10.2951 43.1733 10.8685 42.2989 11.3695L42 11.0355C42.5977 10.6347 43.1788 10.1949 43.7433 9.71608C44.3189 9.22617 44.8446 8.71399 45.3206 8.17954C45.7965 7.64509 46.2116 7.08838 46.5658 6.50939C46.92 5.93041 47.1801 5.35143 47.3461 4.77244C47.4014 4.61656 47.4291 4.49965 47.4291 4.42171C47.4402 4.34377 47.3793 4.2547 47.2465 4.15449C47.1358 4.08768 46.9974 4.00418 46.8314 3.90397C46.6765 3.80376 46.4717 3.69241 46.2171 3.56994L46.4994 3.23591C46.9532 3.35839 47.3848 3.4753 47.7944 3.58664C48.215 3.69798 48.6411 3.84273 49.0728 4.02088C48.8846 4.55532 48.6577 5.0675 48.3921 5.55741C48.1375 6.03619 47.8497 6.48713 47.5287 6.91023ZM51.8123 2C52.3768 2.06681 52.9357 2.15588 53.4891 2.26722C54.0536 2.36743 54.5573 2.46207 55 2.55115C54.9447 2.75157 54.9004 2.97982 54.8672 3.23591C54.834 3.492 54.8174 3.73138 54.8174 3.95407V8.66388C54.8174 8.8643 54.8063 9.09812 54.7842 9.36534C54.7731 9.63257 54.751 9.89422 54.7178 10.1503C54.6956 10.4064 54.6679 10.6514 54.6347 10.8852C54.6126 11.119 54.5849 11.3027 54.5517 11.4363L53.8212 11.5532C53.788 11.3083 53.7603 10.9965 53.7382 10.618C53.7161 10.2394 53.705 9.89422 53.705 9.58246V3.95407C53.705 3.5755 53.5334 3.27488 53.1903 3.05219C52.8582 2.81837 52.338 2.61795 51.6296 2.45094L51.8123 2ZM47.3295 12.5052C47.9051 12.5052 48.536 12.4997 49.2222 12.4885C49.9195 12.4662 50.6058 12.4384 51.281 12.405C51.9672 12.3716 52.6147 12.3382 53.2235 12.3048C53.8433 12.2603 54.3691 12.2102 54.8008 12.1545C54.7786 12.2992 54.762 12.4217 54.751 12.5219C54.751 12.611 54.7454 12.6945 54.7344 12.7724C54.7233 12.8392 54.7178 12.9116 54.7178 12.9896C54.7178 13.0564 54.7178 13.1343 54.7178 13.2234V15.5616C54.7178 15.7286 54.7067 15.9235 54.6845 16.1461C54.6735 16.3577 54.6569 16.5692 54.6347 16.7808C54.6126 17.0035 54.5849 17.2095 54.5517 17.3987C54.5185 17.5992 54.4853 17.755 54.4521 17.8664L53.7216 18C53.6884 17.7216 53.6552 17.382 53.622 16.9812C53.5998 16.5915 53.5888 16.2463 53.5888 15.9457V12.9395C53.1571 12.9283 52.6867 12.9283 52.1775 12.9395C51.6794 12.9506 51.1703 12.9673 50.6501 12.9896C50.1409 13.0118 49.6318 13.0397 49.1226 13.0731C48.6245 13.1065 48.1541 13.1399 47.7114 13.1733C47.3572 13.1955 47.0417 13.2234 46.765 13.2568C46.4883 13.2902 46.1673 13.3347 45.802 13.3904L45.304 12.3549C45.6249 12.3994 45.957 12.4384 46.3001 12.4718C46.6543 12.4941 46.9974 12.5052 47.3295 12.5052Z" fill="#333333"/>
<path d="M31.2368 5.57025C30.8576 5.55923 30.4839 5.56474 30.1158 5.58678C29.7477 5.60882 29.3685 5.63636 28.9781 5.66942C28.7439 5.69146 28.4093 5.71901 27.9743 5.75207C27.5504 5.7741 27.1377 5.8292 26.7362 5.91736L26.184 4.89256C26.4294 4.94766 26.7529 4.99725 27.1544 5.04132C27.5671 5.0854 27.9464 5.10744 28.2921 5.10744C28.8833 5.10744 29.5247 5.09642 30.2162 5.07438C30.9078 5.04132 31.6997 4.98072 32.592 4.89256C32.5697 5.03581 32.5307 5.22314 32.4749 5.45455C32.4303 5.68595 32.3968 5.86226 32.3745 5.98347L32.0064 8.49587C32.1068 8.48485 32.2072 8.47383 32.3076 8.46281C32.408 8.45179 32.5028 8.44077 32.592 8.42975L32.5251 9.22314C31.7332 9.16804 30.9691 9.16253 30.2329 9.20661C29.4968 9.23967 28.8443 9.27273 28.2754 9.30578C28.2754 9.40496 28.2698 9.51515 28.2587 9.63636C28.2475 9.75758 28.242 9.86226 28.242 9.95041V12.0826C28.242 12.281 28.2977 12.4408 28.4093 12.562C28.532 12.6722 28.6993 12.7163 28.9112 12.6942C29.6697 12.6281 30.4895 12.5014 31.3707 12.314C32.263 12.1267 33.2668 11.8567 34.3822 11.5041V4.64463C34.3822 4.28099 34.2595 3.98898 34.0142 3.76859C33.7799 3.54821 33.3338 3.35537 32.6757 3.19008L32.8764 2.7438C33.423 2.80992 33.9082 2.88154 34.332 2.95868C34.7559 3.03581 35.1853 3.12948 35.6203 3.23967C35.5757 3.43802 35.5367 3.66942 35.5032 3.93388C35.4698 4.18733 35.453 4.42424 35.453 4.64463V8.99174C35.8992 8.99174 36.2784 8.98623 36.5907 8.97521C36.9142 8.95317 37.2879 8.9146 37.7117 8.8595V3.93388C37.7117 3.57025 37.5779 3.27824 37.3102 3.05785C37.0425 2.82645 36.5573 2.62259 35.8546 2.44628L36.0386 2C36.5963 2.07713 37.1205 2.16529 37.6113 2.26446C38.1021 2.36364 38.565 2.4573 39 2.54545C38.9554 2.7438 38.9163 2.9697 38.8829 3.22314C38.8494 3.47658 38.8327 3.7135 38.8327 3.93388V13.1901C38.8327 13.5317 38.8215 13.9174 38.7992 14.3471C38.7881 14.7769 38.7713 15.2121 38.749 15.6529C38.7267 16.0826 38.6933 16.4959 38.6486 16.8926C38.6152 17.3003 38.5761 17.6419 38.5315 17.9174L37.8623 18C37.84 17.7906 37.8177 17.5427 37.7954 17.2562C37.7842 16.9697 37.7675 16.6667 37.7452 16.3471C37.734 16.0275 37.7229 15.7025 37.7117 15.3719C37.7117 15.0413 37.7117 14.7163 37.7117 14.3967V9.57025C37.4886 9.57025 37.2879 9.57576 37.1094 9.58678C36.9309 9.5978 36.758 9.60882 36.5907 9.61983C36.4234 9.63085 36.245 9.64187 36.0553 9.65289C35.8769 9.66391 35.6761 9.67493 35.453 9.68595V12.595C35.453 12.9366 35.4419 13.3223 35.4196 13.7521C35.4084 14.1818 35.3861 14.6171 35.3526 15.0579C35.3303 15.4876 35.3024 15.9008 35.269 16.2975C35.2355 16.7052 35.1965 17.0468 35.1519 17.3223L34.4994 17.405C34.477 17.1956 34.4603 16.9477 34.4492 16.6612C34.438 16.3857 34.4269 16.0882 34.4157 15.7686C34.4045 15.449 34.3934 15.124 34.3822 14.7934C34.3822 14.4518 34.3822 14.1212 34.3822 13.8017V11.9669C33.2668 12.3857 32.2462 12.7328 31.3205 13.0083C30.3947 13.2837 29.4801 13.4821 28.5766 13.6033C28.0412 13.6694 27.6675 13.5978 27.4556 13.3884C27.2548 13.168 27.1544 12.8044 27.1544 12.2975V10.2479C27.1544 10.0386 27.1377 9.86777 27.1042 9.73554C27.0819 9.59229 27.0317 9.47658 26.9537 9.38843C26.8756 9.28926 26.7585 9.20661 26.6023 9.1405C26.4462 9.06336 26.2454 8.98623 26 8.90909L26.1673 8.52893C27.1266 8.61708 27.991 8.66116 28.7606 8.66116C29.5414 8.66116 30.3166 8.63361 31.0862 8.57851L31.2368 5.57025Z" fill="#333333"/>
<path d="M19.9626 9.05608C20.0651 8.66026 20.1562 8.22485 20.2359 7.74987C20.3269 7.26357 20.4066 6.78293 20.4749 6.30794C19.974 6.3758 19.4561 6.44365 18.921 6.51151C18.386 6.57936 17.8623 6.64722 17.3501 6.71507C16.8492 6.77162 16.3767 6.82251 15.9328 6.86775C15.4888 6.90168 15.1074 6.92995 14.7887 6.95257C14.6179 6.96388 14.413 6.98084 14.174 7.00346C13.9463 7.02608 13.7015 7.0487 13.4397 7.07131C13.1893 7.09393 12.9331 7.12221 12.6713 7.15613C12.4095 7.17875 12.1704 7.20702 11.9541 7.24095L11.3565 6.20616C11.8118 6.26271 12.2672 6.30229 12.7225 6.32491C13.1779 6.34753 13.5877 6.35318 13.952 6.34187C14.4073 6.33056 14.9025 6.30794 15.4376 6.27402C15.9726 6.24009 16.5247 6.20051 17.0939 6.15527C17.6631 6.11003 18.238 6.05914 18.8186 6.00259C19.4105 5.93474 19.9797 5.86123 20.5261 5.78206C20.5831 5.43148 20.6229 5.09786 20.6457 4.7812C20.6798 4.46454 20.7026 4.1705 20.714 3.89908C20.2814 3.89908 19.826 3.90474 19.3479 3.91605C18.8698 3.92735 18.3974 3.94432 17.9306 3.96694C17.4753 3.97825 17.0313 3.99521 16.5987 4.01783C16.1661 4.04045 15.7734 4.05741 15.4205 4.06872C15.2497 4.08003 15.0391 4.09134 14.7887 4.10265C14.5496 4.11396 14.2935 4.13092 14.0203 4.15354C13.7584 4.16485 13.4966 4.18747 13.2348 4.22139C12.9843 4.24401 12.7567 4.27229 12.5518 4.30621L11.9712 3.22053C12.4265 3.27708 12.8819 3.32231 13.3372 3.35624C13.7926 3.39017 14.2024 3.40713 14.5667 3.40713C15.1928 3.40713 15.8303 3.40148 16.4792 3.39017C17.1281 3.37886 17.7713 3.36189 18.4088 3.33928C19.0462 3.30535 19.6667 3.26577 20.27 3.22053C20.8734 3.16398 21.4369 3.09047 21.9605 3L22.285 3.30535C22.2053 3.72379 22.1028 4.19312 21.9776 4.71334C21.8637 5.22226 21.7385 5.74248 21.6019 6.27402C21.4653 6.79424 21.323 7.2975 21.175 7.78379C21.027 8.25878 20.879 8.67157 20.7311 9.02215H20.7823C21.5678 8.98822 22.3134 8.94299 23.0192 8.88644C23.725 8.81859 24.3853 8.73942 25 8.64895L24.8292 9.76856C24.3739 9.74594 23.8104 9.72898 23.1387 9.71767C22.4785 9.70636 21.7613 9.69505 20.9872 9.68374C20.6684 9.68374 20.2586 9.6894 19.7577 9.70071C19.2568 9.70071 18.7104 9.70636 18.1185 9.71767C17.5379 9.72898 16.9402 9.74594 16.3255 9.76856C15.7108 9.77987 15.1245 9.79683 14.5667 9.81945C14.0089 9.84207 13.508 9.86469 13.064 9.88731C12.6201 9.89862 12.2842 9.90992 12.0566 9.92123C11.6126 9.94385 11.1686 9.97213 10.7247 10.0061C10.2921 10.04 9.86517 10.0852 9.44397 10.1418L9 8.97126C9.53504 9.02781 10.0416 9.07304 10.5197 9.10697C10.9979 9.12959 11.5044 9.15221 12.0395 9.17483C12.2899 9.18614 12.6087 9.19179 12.9957 9.19179C13.3828 9.19179 13.8097 9.19179 14.2764 9.19179C14.7432 9.18048 15.2327 9.16917 15.7449 9.15786C16.2686 9.14655 16.7809 9.13524 17.2817 9.12394C17.7826 9.11263 18.2608 9.10132 18.7161 9.09001C19.1829 9.0787 19.5984 9.06739 19.9626 9.05608ZM20.4578 12.3131C20.1732 12.3018 19.7919 12.2962 19.3138 12.2962C18.847 12.2962 18.3518 12.3018 17.8282 12.3131C17.3159 12.3244 16.815 12.3414 16.3255 12.364C15.8474 12.3753 15.4603 12.3923 15.1644 12.4149C14.9139 12.4375 14.5553 12.4658 14.0886 12.4997C13.6332 12.5337 13.1893 12.5902 12.7567 12.6694L12.159 11.6007C12.2956 11.6233 12.455 11.6515 12.6371 11.6855C12.8193 11.7081 13.0128 11.7307 13.2177 11.7533C13.4226 11.7759 13.6275 11.7986 13.8324 11.8212C14.0487 11.8325 14.248 11.8381 14.4301 11.8381C14.8741 11.8381 15.4034 11.8381 16.0181 11.8381C16.6443 11.8381 17.2988 11.8325 17.9819 11.8212C18.6649 11.7986 19.3479 11.7759 20.0309 11.7533C20.714 11.7194 21.3344 11.6742 21.8922 11.6176C21.8581 11.7307 21.8182 11.8947 21.7727 12.1096C21.7385 12.3131 21.7044 12.5224 21.6702 12.7372L21.397 14.23C21.4995 14.2187 21.5848 14.2131 21.6531 14.2131C21.7328 14.2131 21.8068 14.2074 21.8751 14.1961L21.7898 15.0104C21.1295 14.9764 20.4237 14.9595 19.6724 14.9595C18.921 14.9595 18.1925 14.9708 17.4867 14.9934C16.7922 15.0047 16.1604 15.0217 15.5912 15.0443C15.0221 15.0669 14.5952 15.0839 14.3106 15.0952C14.2992 15.2083 14.2878 15.327 14.2764 15.4514C14.2764 15.5645 14.2764 15.6663 14.2764 15.7568V16.7746C14.2764 16.9782 14.3163 17.1082 14.3959 17.1648C14.487 17.2326 14.6862 17.2722 14.9936 17.2835C15.4148 17.2948 15.9612 17.2948 16.6329 17.2835C17.3045 17.2722 18.0046 17.2439 18.7332 17.1987C19.4618 17.1648 20.1732 17.1195 20.8677 17.063C21.5735 17.0065 22.1711 16.9386 22.6606 16.8594L22.4216 17.9112C21.7841 17.8886 21.084 17.8716 20.3212 17.8603C19.5585 17.8603 18.7901 17.866 18.016 17.8773C17.2419 17.8886 16.4963 17.9055 15.7791 17.9282C15.0733 17.9508 14.4586 17.9734 13.9349 17.996C13.6389 18.0186 13.4226 17.9451 13.286 17.7755C13.1608 17.6171 13.0982 17.4079 13.0982 17.1478V16.0452C13.0982 15.8303 13.0811 15.655 13.047 15.5193C13.0242 15.3723 12.9673 15.2535 12.8762 15.1631C12.7965 15.0613 12.677 14.9764 12.5176 14.9086C12.3582 14.8407 12.1419 14.7672 11.8687 14.6881L12.0566 14.2979C12.6713 14.3658 13.3372 14.411 14.0544 14.4336C14.783 14.4562 15.5173 14.4675 16.2572 14.4675C16.9972 14.4562 17.72 14.4393 18.4258 14.4166C19.143 14.3827 19.8033 14.3488 20.4066 14.3149L20.4578 12.3131Z" fill="#333333"/>
</svg>
