<svg width="64" height="20" viewBox="0 0 64 20" fill="none" xmlns="http://www.w3.org/2000/svg">
<path d="M43.2818 8.48991C43.6018 8.23391 43.9218 7.92457 44.2418 7.56191C44.5618 7.19924 44.8552 6.84724 45.1218 6.50591C45.3885 6.15391 45.6125 5.83924 45.7938 5.56191C45.9858 5.28457 46.1138 5.09791 46.1778 5.00191C46.2845 4.83124 46.4125 4.70324 46.5618 4.61791C46.7218 4.53257 46.8712 4.53791 47.0098 4.63391C47.2765 4.82591 47.3192 5.09257 47.1378 5.43391C47.0205 5.64724 46.8285 5.92991 46.5618 6.28191C46.3058 6.63391 45.9698 7.04991 45.5538 7.52991C45.8632 7.77524 46.1565 8.02591 46.4338 8.28191C46.7112 8.53791 46.9405 8.79924 47.1218 9.06591C47.1858 9.17257 47.2285 9.31124 47.2498 9.48191C47.2818 9.65258 47.2338 9.78591 47.1058 9.88191C46.9672 9.97791 46.8178 9.99391 46.6578 9.92991C46.4978 9.86591 46.3538 9.74324 46.2258 9.56191C46.0978 9.40191 45.9218 9.20457 45.6978 8.96991C45.4845 8.73524 45.2018 8.52191 44.8498 8.32991L43.7138 9.51391C43.3298 9.89791 43.0525 10.1539 42.8818 10.2819C42.7858 10.3566 42.6792 10.4206 42.5618 10.4739C42.4445 10.5166 42.3378 10.4739 42.2418 10.3459C42.1778 10.2819 42.1405 10.1912 42.1298 10.0739C42.1192 9.95657 42.1352 9.84457 42.1778 9.73791C42.2098 9.64191 42.2578 9.55657 42.3218 9.48191C42.3965 9.39657 42.4712 9.32191 42.5458 9.25791L42.0178 8.90591L41.7618 8.71391L41.5218 8.48991C41.3298 8.70324 41.1165 8.91657 40.8818 9.12991C40.6578 9.34324 40.4658 9.51391 40.3058 9.64191C40.1778 9.73791 40.0391 9.80191 39.8898 9.83391C39.7405 9.85524 39.6232 9.82324 39.5378 9.73791C39.4312 9.64191 39.3725 9.54058 39.3618 9.43391C39.3618 9.31658 39.4205 9.20991 39.5378 9.11391C39.7192 8.97524 39.9698 8.74057 40.2898 8.40991C40.6205 8.07924 40.9618 7.71657 41.3138 7.32191C41.6658 6.92724 41.9965 6.53791 42.3058 6.15391C42.6258 5.75924 42.8658 5.42857 43.0258 5.16191C43.1218 5.00191 43.2605 4.88457 43.4418 4.80991C43.6338 4.72457 43.8098 4.74591 43.9698 4.87391C44.1192 5.02324 44.1672 5.16724 44.1138 5.30591C44.1032 5.38057 44.0765 5.45524 44.0338 5.52991C43.9912 5.59391 43.9538 5.65791 43.9218 5.72191C43.8578 5.83924 43.7618 5.98324 43.6338 6.15391C43.5058 6.32457 43.3618 6.50591 43.2018 6.69791C43.0418 6.88991 42.8765 7.08191 42.7058 7.27391C42.5458 7.45524 42.3965 7.61524 42.2578 7.75391C42.4071 7.91391 42.5672 8.05791 42.7378 8.18591C42.9085 8.31391 43.0898 8.41524 43.2818 8.48991ZM49.4578 14.9379C49.4365 15.0872 49.4152 15.2206 49.3938 15.3379C49.3832 15.4659 49.3672 15.5832 49.3458 15.6899C49.3352 15.7859 49.3245 15.8712 49.3138 15.9459C49.3032 16.0206 49.2925 16.0846 49.2818 16.1379C49.2498 16.2979 49.2018 16.4046 49.1378 16.4579C49.0845 16.5112 48.9938 16.5539 48.8658 16.5859C48.6525 16.6606 48.4605 16.7032 48.2898 16.7139C47.9698 16.7779 47.7512 16.7406 47.6338 16.6019C47.5378 16.5166 47.5112 16.3992 47.5538 16.2499C47.6072 16.1006 47.7405 15.9619 47.9538 15.8339C48.0818 15.7592 48.1885 15.6686 48.2738 15.5619C48.3698 15.4659 48.4445 15.3006 48.4978 15.0659C48.5192 14.9059 48.5405 14.6926 48.5618 14.4259C48.5831 14.1592 48.6045 13.9086 48.6258 13.6739C48.6685 13.0872 48.7058 12.3939 48.7378 11.5939C48.7698 10.7939 48.7912 9.97791 48.8018 9.14591C48.8125 8.30324 48.8072 7.48724 48.7858 6.69791C48.7645 5.90857 48.7271 5.20991 48.6738 4.60191C48.6525 4.46324 48.6152 4.34057 48.5618 4.23391C48.5085 4.12724 48.4232 4.03657 48.3058 3.96191C47.9752 3.75924 47.9005 3.52991 48.0818 3.27391C48.1565 3.14591 48.2792 3.07124 48.4498 3.04991C48.6312 3.02857 48.8392 3.09791 49.0738 3.25791C49.3192 3.43924 49.4738 3.65257 49.5378 3.89791C49.6018 4.13257 49.6445 4.37791 49.6658 4.63391C49.7298 5.38057 49.7671 6.22324 49.7778 7.16191C49.7885 8.08991 49.7832 9.02324 49.7618 9.96191C49.7405 10.9219 49.7032 11.8392 49.6498 12.7139C49.5965 13.5779 49.5325 14.3192 49.4578 14.9379Z" fill="#333333"/>
<path d="M27.6774 8.16991C28.0294 8.35124 28.6214 8.49524 29.4534 8.60191C29.8801 8.65524 30.3174 8.69791 30.7654 8.72991C31.2241 8.75124 31.7094 8.76191 32.2214 8.76191C32.4667 8.76191 32.7121 8.76191 32.9574 8.76191C33.2134 8.75124 33.4694 8.74057 33.7254 8.72991C33.8214 8.45257 33.9174 8.17524 34.0134 7.89791C34.1094 7.62057 34.2001 7.34324 34.2854 7.06591C34.4027 6.70324 34.5147 6.34591 34.6214 5.99391C34.7281 5.63124 34.8347 5.26857 34.9414 4.90591C35.0054 4.63924 34.8721 4.50591 34.5414 4.50591C34.2107 4.50591 33.8747 4.51124 33.5334 4.52191C33.1921 4.52191 32.8561 4.52724 32.5254 4.53791C32.1841 4.54857 31.8427 4.56991 31.5014 4.60191C31.1707 4.62324 30.8454 4.65524 30.5254 4.69791C30.3334 4.72991 30.1681 4.71391 30.0294 4.64991C29.9014 4.58591 29.8427 4.47924 29.8534 4.32991C29.8641 4.14857 29.9441 4.02057 30.0934 3.94591C30.2427 3.86057 30.3814 3.80191 30.5094 3.76991C30.7974 3.75924 31.1227 3.74324 31.4854 3.72191C31.8587 3.70057 32.2427 3.68457 32.6374 3.67391C33.0321 3.65257 33.4321 3.64191 33.8374 3.64191C34.2427 3.64191 34.6214 3.64724 34.9734 3.65791C35.0907 3.66857 35.2027 3.67924 35.3094 3.68991C35.4161 3.70057 35.5121 3.71124 35.5974 3.72191C35.7894 3.74324 35.9227 3.77524 35.9974 3.81791C36.1041 3.90324 36.1521 4.03657 36.1414 4.21791C36.1414 4.38857 36.0934 4.64991 35.9974 5.00191C35.9441 5.16191 35.8641 5.40724 35.7574 5.73791C35.6614 6.05791 35.5494 6.41524 35.4214 6.80991L34.9894 8.02591L34.7654 8.64991L35.0854 8.61791C36.0667 8.52191 37.0054 8.31924 37.9014 8.00991C38.0081 7.97791 38.1414 7.96191 38.3014 7.96191C38.4614 7.96191 38.5734 8.06857 38.6374 8.28191C38.6801 8.44191 38.6374 8.59124 38.5094 8.72991C38.3814 8.86857 38.1627 8.97524 37.8534 9.04991C37.4374 9.15657 36.9574 9.24724 36.4134 9.32191C35.8801 9.39657 35.3254 9.45524 34.7494 9.49791C34.1734 9.55124 33.6187 9.58857 33.0854 9.60991C32.5627 9.63124 32.1147 9.63657 31.7414 9.62591C30.8027 9.62591 29.9761 9.58857 29.2614 9.51391C28.5467 9.43924 27.8961 9.30591 27.3094 9.11391C27.0107 9.01791 26.8241 8.91124 26.7494 8.79391C26.6854 8.67657 26.6907 8.52191 26.7654 8.32991C26.8294 8.15924 26.9521 8.07391 27.1334 8.07391C27.3254 8.07391 27.5067 8.10591 27.6774 8.16991ZM29.3734 11.8339C29.3734 11.6419 29.4481 11.4926 29.5974 11.3859C29.7467 11.2686 29.9601 11.2099 30.2374 11.2099C30.6961 11.2312 31.1601 11.2312 31.6294 11.2099C31.8534 11.2099 32.0614 11.2099 32.2534 11.2099C32.4561 11.1992 32.6214 11.1939 32.7494 11.1939C33.2934 11.1939 33.7841 11.1779 34.2214 11.1459C34.6694 11.1139 35.0267 11.0819 35.2934 11.0499C35.4214 11.0392 35.5227 11.0499 35.5974 11.0819C35.6827 11.1139 35.7521 11.1566 35.8054 11.2099C35.8694 11.2526 35.9121 11.3059 35.9334 11.3699C35.9654 11.4232 35.9921 11.4712 36.0134 11.5139C36.0561 11.6206 36.0614 11.7326 36.0294 11.8499C36.0081 11.9566 35.9014 12.1006 35.7094 12.2819C35.5707 12.4206 35.3894 12.5966 35.1654 12.8099C34.9414 13.0232 34.6587 13.2632 34.3174 13.5299C34.1041 13.7112 33.8907 13.8766 33.6774 14.0259C33.4747 14.1752 33.2827 14.3139 33.1014 14.4419C32.9201 14.5699 32.7494 14.6872 32.5894 14.7939C32.4401 14.9006 32.3174 14.9966 32.2214 15.0819C32.2534 15.1779 32.3281 15.2792 32.4454 15.3859C32.5627 15.5032 32.7014 15.6099 32.8614 15.7059C33.0214 15.8019 33.1867 15.8819 33.3574 15.9459C33.5387 16.0099 33.7094 16.0419 33.8694 16.0419C34.3174 16.0419 34.7067 15.9192 35.0374 15.6739C35.3681 15.4286 35.6614 15.1779 35.9174 14.9219C36.1841 14.6552 36.4454 14.6286 36.7014 14.8419C36.8294 14.9486 36.8774 15.0766 36.8454 15.2259C36.8241 15.3859 36.7654 15.5192 36.6694 15.6259C36.5201 15.7859 36.3601 15.9459 36.1894 16.1059C36.0187 16.2659 35.8161 16.4099 35.5814 16.5379C35.3467 16.6659 35.0747 16.7672 34.7654 16.8419C34.4561 16.9166 34.0934 16.9539 33.6774 16.9539C33.1654 16.9539 32.6801 16.8046 32.2214 16.5059C31.7627 16.2286 31.4214 15.9246 31.1974 15.5939C31.1014 15.5939 30.9627 15.6152 30.7814 15.6579C30.6107 15.7112 30.4294 15.7859 30.2374 15.8819C30.0774 15.9779 29.9334 16.0366 29.8054 16.0579C29.6881 16.0899 29.5814 16.1059 29.4854 16.1059C29.3681 16.1059 29.2827 16.0686 29.2294 15.9939C29.1867 15.9299 29.1654 15.8446 29.1654 15.7379C29.1654 15.3966 29.3681 15.0659 29.7734 14.7459C29.9654 14.6072 30.1947 14.4899 30.4614 14.3939C30.7387 14.3086 31.0374 14.2659 31.3574 14.2659C31.4854 14.2339 31.6134 14.1859 31.7414 14.1219C31.8801 14.0579 32.0081 13.9886 32.1254 13.9139C32.2534 13.8392 32.3654 13.7646 32.4614 13.6899C32.5681 13.6152 32.6534 13.5566 32.7174 13.5139C32.9841 13.3326 33.2721 13.1086 33.5814 12.8419C33.8907 12.5752 34.1574 12.3139 34.3814 12.0579H33.3734L32.1894 12.1219C31.9974 12.1539 31.8054 12.1806 31.6134 12.2019C31.4321 12.2232 31.2561 12.2392 31.0854 12.2499C30.9254 12.2606 30.7707 12.2712 30.6214 12.2819C30.4827 12.2926 30.3654 12.2979 30.2694 12.2979C29.9174 12.3406 29.6774 12.3246 29.5494 12.2499C29.4321 12.1646 29.3734 12.0259 29.3734 11.8339Z" fill="#333333"/>
<path d="M16.9688 7.25789C17.8008 6.61789 18.5208 5.97789 19.1288 5.33789C19.7368 4.68722 20.2221 4.08989 20.5848 3.54589C20.7128 3.35389 20.8568 3.23655 21.0168 3.19389C21.1875 3.15122 21.3315 3.17789 21.4488 3.27389C21.5448 3.39122 21.5875 3.51922 21.5768 3.65789C21.5768 3.78589 21.5395 3.91922 21.4648 4.05789C21.3368 4.24989 21.2195 4.41522 21.1128 4.55389C21.0168 4.68189 20.9368 4.78855 20.8728 4.87389C20.9368 4.95922 21.0381 5.07122 21.1768 5.20989C21.3261 5.33789 21.4915 5.47655 21.6728 5.62589C21.8648 5.78589 22.0675 5.94589 22.2808 6.10589C22.4941 6.25522 22.7075 6.39389 22.9208 6.52189C23.1875 6.70322 23.4435 6.82055 23.6888 6.87389C23.9875 6.94855 24.1955 7.02322 24.3128 7.09789C24.4301 7.17255 24.4888 7.26855 24.4888 7.38589C24.4675 7.63122 24.3288 7.78055 24.0728 7.83389C23.8915 7.87655 23.6888 7.89255 23.4648 7.88189C23.2408 7.86055 23.0381 7.81789 22.8568 7.75389C22.7288 7.72189 22.6061 7.66855 22.4888 7.59389C22.3715 7.50855 22.2808 7.39122 22.2168 7.24189C22.0141 7.10322 21.8115 6.95922 21.6088 6.80989C21.4061 6.66055 21.2088 6.51655 21.0168 6.37789C20.8355 6.23922 20.6648 6.11122 20.5048 5.99389C20.3448 5.87655 20.2115 5.77522 20.1048 5.68989C19.7101 6.11655 19.3635 6.46322 19.0648 6.72989C18.7661 6.99655 18.4835 7.24189 18.2168 7.46589C17.9288 7.70055 17.6781 7.86589 17.4648 7.96189C17.2515 8.04722 17.0328 8.05789 16.8088 7.99389C16.6808 7.97255 16.6275 7.88189 16.6488 7.72189C16.6808 7.55122 16.7875 7.39655 16.9688 7.25789ZM20.3928 7.14589C20.5421 7.14589 20.6648 7.17255 20.7608 7.22589C20.8568 7.27922 20.9421 7.39655 21.0168 7.57789C21.1661 7.98322 21.2248 8.38322 21.1928 8.77789C21.1715 9.16189 21.0701 9.48189 20.8888 9.73789C20.8141 9.83389 20.7981 9.90855 20.8408 9.96189C20.8835 10.0152 20.9528 10.0366 21.0488 10.0259C21.4648 10.0152 21.8861 9.99922 22.3128 9.97789C22.7501 9.95655 23.1661 9.94055 23.5608 9.92989C23.9661 9.91922 24.3395 9.91389 24.6808 9.91389C25.0221 9.91389 25.3155 9.91389 25.5608 9.91389C25.6141 9.92455 25.6781 9.94055 25.7528 9.96189C25.8275 9.97255 25.8968 9.99389 25.9608 10.0259C26.0248 10.0686 26.0781 10.1272 26.1208 10.2019C26.1635 10.2659 26.1848 10.3566 26.1848 10.4739C26.1848 10.6232 26.0995 10.7459 25.9288 10.8419C25.7688 10.9272 25.5288 10.9539 25.2088 10.9219C25.0381 10.9112 24.8355 10.9059 24.6008 10.9059C24.3661 10.8952 24.1101 10.8899 23.8328 10.8899C23.5661 10.8899 23.2835 10.8899 22.9848 10.8899C22.6968 10.8899 22.4088 10.8899 22.1208 10.8899C21.5128 10.9006 20.9475 10.9166 20.4248 10.9379C19.9128 10.9592 19.5288 10.9806 19.2728 11.0019C18.7928 11.0552 18.3715 11.0926 18.0088 11.1139C17.6461 11.1352 17.3048 11.1566 16.9848 11.1779C16.6541 11.1886 16.3288 11.1939 16.0088 11.1939C15.6888 11.1939 15.3528 11.1939 15.0008 11.1939C14.6808 11.1939 14.4675 11.1566 14.3608 11.0819C14.2648 11.0072 14.2168 10.8686 14.2168 10.6659C14.2168 10.4206 14.2968 10.2552 14.4568 10.1699C14.6168 10.0739 14.7928 10.0259 14.9848 10.0259L15.7048 10.0739C15.8541 10.0846 16.0301 10.0952 16.2328 10.1059C16.4355 10.1166 16.6648 10.1272 16.9208 10.1379C17.1875 10.1486 17.4808 10.1539 17.8008 10.1539C18.1315 10.1432 18.5101 10.1272 18.9368 10.1059C19.0221 10.1059 19.0968 10.0952 19.1608 10.0739C19.2355 10.0526 19.2995 10.0312 19.3528 10.0099C19.6088 9.88189 19.8115 9.70589 19.9608 9.48189C20.1101 9.24722 20.2061 8.97522 20.2488 8.66589C20.2701 8.45255 20.2595 8.24989 20.2168 8.05789C20.1741 7.86589 20.1155 7.70055 20.0408 7.56189C19.9981 7.49789 20.0035 7.41789 20.0568 7.32189C20.1208 7.21522 20.2328 7.15655 20.3928 7.14589ZM23.5448 15.2259C23.5448 15.3752 23.4915 15.5086 23.3848 15.6259C23.2781 15.7539 23.0861 15.8712 22.8088 15.9779C22.4675 16.0952 22.0995 16.1912 21.7048 16.2659C21.3101 16.3512 20.9101 16.3939 20.5048 16.3939C20.2915 16.3939 20.0515 16.3886 19.7848 16.3779C19.5181 16.3672 19.3101 16.3512 19.1608 16.3299C18.8088 16.2766 18.5101 16.1752 18.2648 16.0259C18.0195 15.8766 17.8701 15.6579 17.8168 15.3699C17.7421 14.9219 17.7155 14.5379 17.7368 14.2179C17.7581 13.8872 17.7741 13.5299 17.7848 13.1459C17.7848 12.8899 17.8221 12.6926 17.8968 12.5539C17.9715 12.4046 18.1261 12.3192 18.3608 12.2979C18.5208 12.2872 18.6381 12.3406 18.7128 12.4579C18.7981 12.5752 18.8408 12.7406 18.8408 12.9539C18.8408 13.1886 18.8301 13.3912 18.8088 13.5619C18.7875 13.7219 18.7661 13.8766 18.7448 14.0259C18.7235 14.1966 18.7181 14.3726 18.7288 14.5539C18.7395 14.7459 18.7555 14.9006 18.7768 15.0179C18.7981 15.1566 18.8888 15.2472 19.0488 15.2899C19.2088 15.3432 19.3848 15.3806 19.5768 15.4019C19.6728 15.4126 19.8008 15.4179 19.9608 15.4179C20.1208 15.4286 20.2861 15.4286 20.4568 15.4179C20.6381 15.4179 20.8141 15.4126 20.9848 15.4019C21.1661 15.3912 21.3208 15.3752 21.4488 15.3539C21.7368 15.3006 22.0035 15.2152 22.2488 15.0979C22.4941 14.9912 22.7235 14.9006 22.9368 14.8259C23.1715 14.7406 23.3315 14.7352 23.4168 14.8099C23.5021 14.8952 23.5448 15.0339 23.5448 15.2259Z" fill="#333333"/>
</svg>
