<svg width="64" height="20" viewBox="0 0 64 20" fill="none" xmlns="http://www.w3.org/2000/svg">
<path d="M49.5588 3.72567L52.5378 3.29426V6.63306L53.9999 6.46424V8.09613L52.5378 8.24619V13.2169L49.5588 13.4045V3.72567ZM40.311 9.27784C40.311 8.4025 40.6948 7.75225 41.4624 7.32708C42.23 6.88941 43.2109 6.67058 44.4049 6.67058C45.5015 6.67058 46.3787 6.8644 47.0367 7.25205C47.6946 7.6397 48.0236 8.23994 48.0236 9.05275C48.0236 9.9406 47.6337 10.5971 46.8539 11.0223C46.0741 11.4474 45.0689 11.66 43.8383 11.66C42.7661 11.66 41.9072 11.4725 41.2614 11.0973C40.6278 10.7097 40.311 10.1032 40.311 9.27784ZM40.311 4.56975L42.9611 4.23212C42.4981 3.95701 42.0656 3.55686 41.6635 3.03165L43.7287 2C43.9846 2.41266 44.3135 2.79406 44.7156 3.1442C45.1299 3.49433 45.5746 3.73193 46.0498 3.85698L48.115 3.59437V5.92028L40.311 6.55803V4.56975ZM43.1073 12.7667L45.5746 12.6166V15.5428L52.5378 15.3177V18H44.9166C44.4171 18 43.9906 17.8187 43.6373 17.456C43.284 17.0934 43.1073 16.6557 43.1073 16.143V12.7667ZM43.3997 9.27784C43.3875 9.37788 43.3814 9.50918 43.3814 9.67175C43.3814 10.247 43.5581 10.5346 43.9115 10.5346C44.1673 10.5346 44.3866 10.4158 44.5694 10.1782C44.7522 9.9406 44.874 9.56546 44.9349 9.05275C44.9471 8.96522 44.9532 8.84017 44.9532 8.67761C44.9532 8.08988 44.7704 7.79601 44.4049 7.79601C44.1612 7.79601 43.9419 7.92106 43.747 8.17116C43.5642 8.40875 43.4485 8.77765 43.3997 9.27784Z" fill="#333333"/>
<path d="M39.3332 12.7978L24.6665 13.5331V11.4007L39.3332 9.80147V12.7978ZM27.492 14.2868L37.1025 13.9007V18H34.3327V16.2904L27.492 16.511V14.2868ZM37.1025 9.39706L30.0945 10.2243L29.3323 10.3346C29.2704 10.3468 29.1712 10.3529 29.0349 10.3529C28.6012 10.3529 28.2356 10.2365 27.9382 10.0037C27.6407 9.77083 27.492 9.47059 27.492 9.10294V4.37868L37.1025 3V4.70956L30.0945 5.62868V6.23529L37.1025 5.27941V6.98897L30.0945 7.85294V8.38603L37.1025 7.48529V9.39706Z" fill="#333333"/>
<path d="M24.6667 12.707L10 13.4551V11.2855L16.4504 10.5748V9.62095L14.6658 9.78928C14.1577 9.83915 13.724 9.70199 13.3646 9.3778C13.0052 9.04115 12.8255 8.62344 12.8255 8.12469V4.08479L21.6924 3V5.13217L15.428 5.78678V7.39526L21.6924 6.42269V9.09726L18.9227 9.3778V10.2943L24.6667 9.65835V12.707ZM12.8255 14.2219L22.436 13.8292V18H19.6662V16.2606L12.8255 16.485V14.2219Z" fill="#333333"/>
</svg>
