<svg width="64" height="20" viewBox="0 0 64 20" fill="none" xmlns="http://www.w3.org/2000/svg">
<path d="M53.4 8.65642H43.6V8.11197H42.8667V7.56751H42.2167V6.97036H41.6167V3.68606H42.1833V3.08891H42.7833V2.52689H43.45V2H53.5167V2.52689H54.2167V3.08891H54.8167V3.68606H55.3833V6.97036H54.7833V7.56751H54.1333V8.11197H53.4V8.65642ZM51.3167 5.68826H51.8833V4.96817H51.3167V4.44127H45.6833V4.96817H45.1167V5.68826H45.6833V6.19759H51.3167V5.68826ZM41 10.079H41.5667V9.48189H55.4333V10.079H56V11.7827H55.4333V12.3798H50.4V13.7673H49.6333V14.3469H47.3667V13.7673H46.6V12.3798H41.5667V11.7827H41V10.079ZM42.35 18V17.2975H41.6833V13.697H42.35V13.0472H44.65V13.697H45.3167V15.0494H54.9167V15.7519H55.5833V17.2975H54.9167V18H42.35Z" fill="#333333"/>
<path d="M29.4219 16.7881H28.7377V17.4907H26.6853V16.7881H26.0011V5.30187H24.6841V4.59934H24V2.70253H24.6841V2H33.2702V2.70253H33.9544V7.14599H35.3911V2.70253H36.0753V2H38.3159V2.70253H39V17.2975H38.3159V18H36.0753V17.2975H35.3911V10.5181H33.9544V16.7179H33.2702V17.4204H31.2178V16.7179H30.5336V5.30187H29.4219V16.7881Z" fill="#333333"/>
<path d="M21.4 2V2.69793H22.0667V4.47764H21.4V5.17557H12.5V6.72846H21.5V7.42639H22.1667V9.20611H21.5V9.90404H9.55V9.20611H8.88333V2.69793H9.55V2H21.4ZM8.68333 14.3184V13.638H8V11.6663H8.68333V10.9684H22.3167V11.6663H23V13.638H22.3167V14.3184H17.3833V17.3021H16.7167V18H14.2833V17.3021H13.6167V14.3184H8.68333Z" fill="#333333"/>
</svg>
