<svg width="64" height="20" viewBox="0 0 64 20" fill="none" xmlns="http://www.w3.org/2000/svg">
<path d="M52.1596 9.81214V10.8177H39.4966V9.81214H42.6347V7.85082C41.5242 7.41988 40.8999 6.71269 40.8999 5.77899C40.8999 4.14363 42.7784 3.20441 45.817 3.20441C48.8447 3.20441 50.7231 4.14363 50.7231 5.77899C50.7231 6.70717 50.1043 7.41435 49.0104 7.83977V9.81214H52.1596ZM41.0214 14.3315C41.0214 12.7514 42.8115 11.8784 45.817 11.8895C48.8005 11.8784 50.5905 12.7514 50.6016 14.3315C50.5905 15.9226 48.8005 16.7956 45.817 16.7956C42.8115 16.7956 41.0214 15.9226 41.0214 14.3315ZM42.1706 5.77899C42.1596 6.79557 43.5518 7.3812 45.817 7.3812C48.0712 7.3812 49.4745 6.79557 49.4745 5.77899C49.4745 4.77347 48.0712 4.16573 45.817 4.16573C43.5518 4.16573 42.1596 4.77347 42.1706 5.77899ZM42.2701 14.3315C42.259 15.2818 43.596 15.8453 45.817 15.8342C48.027 15.8453 49.364 15.2818 49.375 14.3315C49.364 13.3923 48.027 12.8398 45.817 12.8287C43.596 12.8398 42.259 13.3923 42.2701 14.3315ZM43.8612 9.81214H47.7949V8.17126C47.2093 8.27623 46.5463 8.33148 45.817 8.33148C45.0988 8.33148 44.4413 8.28175 43.8612 8.17678V9.81214Z" fill="#333333"/>
<path d="M38.3647 10.0442V11.0607H32.7073V13.9005H31.4918V11.0607H25.6465V10.0442H38.3647ZM27.2818 16.5193V12.5303H28.5084V15.5027H36.9504V16.5193H27.2818ZM27.3039 8.453V3.61322H36.7073V8.453H27.3039ZM28.5084 7.46957H35.4918V4.59665H28.5084V7.46957Z" fill="#333333"/>
<path d="M14.7464 3.4917V5.25965H21.6193V3.4917H22.8459V9.04971H18.7796V10.5304H24.5033V11.5469H11.8403V10.5304H17.5641V9.04971H13.5199V3.4917H14.7464ZM13.4757 16.5193V12.6519H14.7133V15.5027H23.089V16.5193H13.4757ZM14.7464 8.05523H21.6193V6.23203H14.7464V8.05523Z" fill="#333333"/>
</svg>
