<svg width="64" height="20" viewBox="0 0 64 20" fill="none" xmlns="http://www.w3.org/2000/svg">
<path d="M33.9205 13.2303C33.9205 12.8862 34.0222 12.6311 34.2256 12.465C34.441 12.287 34.6863 12.198 34.9615 12.198C35.2128 12.198 35.4462 12.287 35.6615 12.465C35.8889 12.6311 36.0026 12.8862 36.0026 13.2303V15.3126C36.0026 15.6567 36.0803 15.9058 36.2359 16.0601C36.4034 16.2143 36.6188 16.2914 36.882 16.2914H43.6128C43.9 16.2914 44.1154 16.3804 44.259 16.5584C44.4026 16.7364 44.4743 16.9321 44.4743 17.1457C44.4743 17.3593 44.4026 17.5551 44.259 17.733C44.1154 17.911 43.9 18 43.6128 18H36.4692C35.7034 18 35.0872 17.7746 34.6205 17.3237C34.1538 16.8728 33.9205 16.2202 33.9205 15.366V13.2303ZM32.8795 11.059C32.5803 11.059 32.359 10.9759 32.2154 10.8098C32.0718 10.6437 32 10.4479 32 10.2225C32 9.98517 32.0718 9.78346 32.2154 9.61735C32.359 9.45124 32.5803 9.36819 32.8795 9.36819H45.1025C45.4017 9.36819 45.6231 9.45124 45.7667 9.61735C45.9222 9.78346 46 9.98517 46 10.2225C46 10.4479 45.9222 10.6437 45.7667 10.8098C45.6231 10.9759 45.4017 11.059 45.1025 11.059H32.8795ZM42.1051 4.63404C42.1051 4.28995 42.0214 4.05265 41.8538 3.92214C41.6863 3.79162 41.4769 3.72636 41.2256 3.72636H34.6026C34.2915 3.72636 34.0641 3.63737 33.9205 3.4594C33.7769 3.28142 33.7051 3.07379 33.7051 2.83648C33.7051 2.63478 33.7769 2.44494 33.9205 2.26696C34.0641 2.08899 34.2915 2 34.6026 2H41.441C42.2068 2 42.841 2.2195 43.3436 2.65851C43.8581 3.09752 44.1154 3.73823 44.1154 4.58064C44.1154 5.09084 44.0795 5.64257 44.0077 6.23582C43.9359 6.82907 43.8402 7.35706 43.7205 7.8198C43.6607 8.06897 43.535 8.25287 43.3436 8.37152C43.1521 8.49017 42.9547 8.5495 42.7513 8.5495C42.4641 8.5495 42.2128 8.44865 41.9974 8.24694C41.794 8.04524 41.7282 7.75454 41.8 7.37486C41.8837 6.93585 41.9555 6.46719 42.0154 5.96885C42.0752 5.45866 42.1051 5.01372 42.1051 4.63404Z" fill="#333333"/>
<path d="M18.8795 10.1124C18.5803 10.1124 18.359 10.0375 18.2154 9.88757C18.0718 9.72613 18 9.53586 18 9.31676C18 9.08613 18.0718 8.89009 18.2154 8.72865C18.359 8.56721 18.5803 8.48649 18.8795 8.48649H31.1025C31.4017 8.48649 31.6231 8.56721 31.7667 8.72865C31.9222 8.89009 32 9.08613 32 9.31676C32 9.53586 31.9222 9.72613 31.7667 9.88757C31.6231 10.0375 31.4017 10.1124 31.1025 10.1124H26.0231V11.0811C26.4897 11.1733 26.9145 11.329 27.2974 11.5481C27.6923 11.7557 28.0273 12.0151 28.3026 12.3265C28.5778 12.6263 28.7872 12.9607 28.9308 13.3297C29.0863 13.6987 29.1641 14.085 29.1641 14.4886C29.1641 14.973 29.0624 15.4227 28.859 15.8378C28.6555 16.2645 28.3684 16.6393 27.9974 16.9622C27.6265 17.285 27.1837 17.5387 26.6692 17.7232C26.1547 17.9077 25.5923 18 24.982 18C24.3718 18 23.8094 17.9077 23.2949 17.7232C22.7923 17.5387 22.3556 17.285 21.9846 16.9622C21.6256 16.6393 21.3444 16.2645 21.141 15.8378C20.9376 15.4227 20.8359 14.973 20.8359 14.4886C20.8359 14.0735 20.9077 13.6814 21.0513 13.3124C21.2068 12.9434 21.4222 12.609 21.6974 12.3092C21.9726 12.0094 22.3017 11.7557 22.6846 11.5481C23.0675 11.329 23.4983 11.1733 23.9769 11.0811V10.1124H18.8795ZM21.9487 5.06162C21.9487 5.36144 22.0265 5.58631 22.182 5.73622C22.3376 5.8746 22.553 5.94378 22.8282 5.94378H29.2359C29.5111 5.94378 29.7145 6.03027 29.8461 6.20324C29.9897 6.37622 30.0615 6.56649 30.0615 6.77405C30.0615 6.98162 29.9897 7.17189 29.8461 7.34487C29.7145 7.50631 29.5111 7.58703 29.2359 7.58703H22.5051C21.7393 7.58703 21.1231 7.37946 20.6564 6.96432C20.1897 6.54919 19.9564 5.92649 19.9564 5.09622V3.79892C19.9564 3.21081 20.106 2.76685 20.4051 2.46703C20.7043 2.15568 21.1769 2 21.8231 2H29.1102C29.3855 2 29.5949 2.08649 29.7384 2.25946C29.882 2.43243 29.9538 2.6227 29.9538 2.83027C29.9538 3.03784 29.882 3.22811 29.7384 3.40108C29.5949 3.57405 29.3855 3.66054 29.1102 3.66054H22.5231C22.1402 3.66054 21.9487 3.83928 21.9487 4.19676V5.06162ZM22.8282 14.4886C22.8282 15.0306 23.0256 15.4804 23.4205 15.8378C23.8154 16.1953 24.3359 16.3741 24.982 16.3741C25.6282 16.3741 26.1487 16.1953 26.5436 15.8378C26.9385 15.4804 27.1359 15.0306 27.1359 14.4886C27.1359 13.9467 26.9385 13.4969 26.5436 13.1395C26.1487 12.782 25.6282 12.6032 24.982 12.6032C24.3359 12.6032 23.8154 12.782 23.4205 13.1395C23.0256 13.4969 22.8282 13.9467 22.8282 14.4886Z" fill="#333333"/>
</svg>
