<svg width="64" height="20" viewBox="0 0 64 20" fill="none" xmlns="http://www.w3.org/2000/svg">
<path d="M50.1381 5.90532C50.1381 5.45834 50.2742 5.06458 50.5464 4.72402C50.8291 4.37282 51.2217 4.07483 51.7243 3.83006C52.2268 3.58529 52.8235 3.39904 53.5145 3.27134C54.2055 3.14363 54.9593 3.07977 55.7759 3.07977C56.5925 3.07977 57.3463 3.14895 58.0373 3.2873C58.7388 3.41501 59.3408 3.60125 59.8433 3.84602C60.3458 4.0908 60.7384 4.38878 61.0211 4.73998C61.3038 5.08054 61.4451 5.46899 61.4451 5.90532C61.4451 6.3523 61.2986 6.75671 61.0054 7.11855C60.7123 7.46975 60.2987 7.76774 59.7648 8.01251V9.4652H62.9998V10.9498H49.9968C49.6932 10.9498 49.5152 11.0988 49.4629 11.3968L48.1123 9.4652H51.8028V8.01251C51.2688 7.76774 50.8553 7.46975 50.5622 7.11855C50.2795 6.76736 50.1381 6.36294 50.1381 5.90532ZM61.6964 14.3181C61.6964 15.1589 61.1939 15.8134 60.1888 16.2816C59.1837 16.7605 57.7494 17 55.8859 17C54.0223 17 52.5828 16.7605 51.5672 16.2816C50.5621 15.8134 50.0596 15.1589 50.0596 14.3181C50.0596 13.4774 50.5621 12.8229 51.5672 12.3546C52.5828 11.8757 54.0223 11.6362 55.8859 11.6362C57.7494 11.6362 59.1837 11.8757 60.1888 12.3546C61.1939 12.8229 61.6964 13.4774 61.6964 14.3181ZM52.9021 5.90532C52.9021 6.27781 53.1429 6.60772 53.6245 6.89506C54.1061 7.17177 54.8232 7.31012 55.7759 7.31012C56.7286 7.31012 57.4458 7.17177 57.9274 6.89506C58.4195 6.60772 58.6655 6.27781 58.6655 5.90532C58.6655 5.53284 58.4195 5.20825 57.9274 4.93155C57.4353 4.6442 56.7182 4.50053 55.7759 4.50053C54.8337 4.50053 54.1165 4.6442 53.6245 4.93155C53.1429 5.20825 52.9021 5.53284 52.9021 5.90532ZM58.7754 14.3181C58.7754 13.8818 58.5085 13.5465 57.9745 13.3124C57.451 13.0783 56.7548 12.9612 55.8859 12.9612C55.0064 12.9612 54.2997 13.0783 53.7658 13.3124C53.2423 13.5465 52.9806 13.8818 52.9806 14.3181C52.9806 14.7545 53.2423 15.0897 53.7658 15.3238C54.2893 15.558 54.996 15.675 55.8859 15.675C56.7548 15.675 57.451 15.558 57.9745 15.3238C58.5085 15.0897 58.7754 14.7545 58.7754 14.3181ZM55.7759 8.73087C55.5351 8.73087 55.2996 8.72555 55.0692 8.71491C54.8494 8.70427 54.6348 8.6883 54.4254 8.66702V9.4652H57.1422V8.66702C56.9223 8.6883 56.6972 8.70427 56.4669 8.71491C56.2471 8.72555 56.0167 8.73087 55.7759 8.73087Z" fill="#333333"/>
<path d="M36.3342 12.4824C37.601 12.4824 38.6951 12.4345 39.6164 12.3387C40.5377 12.2323 41.3962 12.0673 42.1919 11.8438L42.3489 12.8336C41.6056 13.2805 40.6529 13.6051 39.4908 13.8073C38.3286 14.0095 37.0671 14.1106 35.7061 14.1106H33.4289V5.66591C33.4289 5.45307 33.3766 5.27747 33.2719 5.13912C33.1672 4.99012 33.0102 4.89966 32.8008 4.86774L36.1301 3.90992V4.42076H40.9198V5.96922H36.1301V8.23605H40.4487V9.7047H36.1301V12.4824H36.3342ZM43.1655 16.7925V9.62488H41.4381L40.6843 7.9966H43.1655V4.67617C43.1655 4.52718 43.1341 4.38883 43.0713 4.26112C43.0085 4.12277 42.8986 4.02167 42.7415 3.95781L45.9452 3V15.3398C45.9452 15.8507 45.8248 16.2178 45.584 16.4413C45.3432 16.6755 44.961 16.7925 44.4376 16.7925H43.1655Z" fill="#333333"/>
<path d="M17.7563 11.5724C18.3426 11.4767 18.9393 11.2585 19.5466 10.9179C20.1538 10.5774 20.7034 10.157 21.1955 9.65682C21.698 9.15663 22.1063 8.5979 22.4204 7.98065C22.7345 7.36339 22.8915 6.73017 22.8915 6.08098V5.20299C22.8915 4.99014 22.8392 4.81454 22.7345 4.67619C22.6298 4.52719 22.4728 4.43674 22.2634 4.40481L25.9853 3.43103V5.09124C25.9853 5.49565 25.9486 5.89474 25.8753 6.28851C25.802 6.67163 25.7235 6.98558 25.6398 7.23036C26.2365 7.241 26.8071 7.33146 27.3515 7.50174C27.9064 7.66137 28.3932 7.89019 28.812 8.18817C29.2413 8.48616 29.5815 8.84268 29.8328 9.25773C30.0945 9.67278 30.2254 10.141 30.2254 10.6625C30.2254 11.0244 30.0997 11.3383 29.8485 11.6044C29.6077 11.8704 29.2727 12.0247 28.8434 12.0673C28.3932 12.1099 27.9849 12.0567 27.6185 11.9077C27.2625 11.7587 27.0113 11.498 26.8647 11.1255C27.0217 10.8168 27.0898 10.5082 27.0688 10.1996C27.0479 9.89095 26.9537 9.60893 26.7862 9.35351C26.6187 9.0981 26.3883 8.87461 26.0952 8.68304C25.8125 8.48084 25.488 8.33717 25.1215 8.25203C24.797 8.75222 24.3887 9.22048 23.8966 9.65682C23.4045 10.0825 22.8392 10.4603 22.2006 10.7902C21.5724 11.1095 20.8814 11.3702 20.1276 11.5724C19.3738 11.764 18.5834 11.8704 17.7563 11.8917V11.5724ZM31.5916 15.26H18.5886C18.285 15.26 18.107 15.409 18.0547 15.707L16.7041 13.7754H31.5916V15.26Z" fill="#333333"/>
<path d="M14.4585 11.8279H10.1241V13.9351H15.8875V15.4197H2.8845C2.58088 15.4197 2.4029 15.5687 2.35056 15.8666L1 13.9351H7.34448V11.8279H3.33992L2.55471 10.3592H5.44428L4.95745 6.24062H7.62715L8.01976 10.3592H9.60588L9.99848 6.24062H12.6682L12.1814 10.3592H14.4585V11.8279ZM14.1444 5.57015H4.32928C4.06754 5.57015 3.9105 5.70318 3.85816 5.96924L2.86879 4.1015H14.1444V5.57015Z" fill="#333333"/>
</svg>
