<svg width="64" height="20" viewBox="0 0 64 20" fill="none" xmlns="http://www.w3.org/2000/svg">
<path d="M44.8603 3.08597H43.6614V2H46.1515V13.9095H44.8603V3.08597ZM33.83 11.7557L33 10.905L37.2424 6.90498V4.57014H33.5349V3.39367H42.2596V4.57014H38.5336V7.01358L42.7945 10.905L41.9644 11.7557L37.8142 7.99095L33.83 11.7557ZM35.9144 18V12.8416H37.2055V16.8235H47V18H35.9144Z" fill="#333333"/>
<path d="M27.371 3.18316H26.2147V2H28.6163V6.15017H31V7.33333H28.6163V11.4653H27.371V3.18316ZM17 10.0637C17.7353 9.89382 18.4468 9.63292 19.1347 9.281C19.8344 8.92909 20.4274 8.52256 20.9136 8.06143C21.5066 7.49109 21.9928 6.88434 22.3723 6.24118C22.7637 5.59803 23.0068 4.95487 23.1017 4.31172H17.5159V3.07395H24.4003V3.40159C24.4003 4.10542 24.2757 4.79105 24.0267 5.45848C23.7776 6.1259 23.4515 6.75085 23.0483 7.33333C22.6451 7.91581 22.2063 8.43762 21.7319 8.89875C21.1745 9.43269 20.5163 9.89989 19.7573 10.3003C19.0102 10.6887 18.2274 10.9738 17.4091 11.1559L17 10.0637ZM28.7942 18H27.5489V13.4312H18.8501V12.248H28.7942V18Z" fill="#333333"/>
</svg>
