<svg width="64" height="20" viewBox="0 0 64 20" fill="none" xmlns="http://www.w3.org/2000/svg">
<path d="M43.2199 13.5592V15.9429H50.2199V2.5551H52.4133V6.63673H53.9999V8.85714H52.4133V18H41.0421V13.5592H43.2199ZM45.3666 2V3.09388H48.2133V5.24898H46.751C47.3577 5.78776 47.7466 6.4898 47.7466 7.27347V8.53061C47.7466 10.1469 46.0977 11.4694 44.2155 11.4694C42.3177 11.4694 40.7777 10.1469 40.7777 8.53061V7.33878C40.7777 6.47347 41.1666 5.7551 41.7421 5.24898H40.311V3.09388H43.1888V2H45.3666ZM45.7399 8.05714V7.71429C45.7399 6.96326 45.0866 6.34286 44.2777 6.34286C43.4688 6.34286 42.7999 6.96326 42.7999 7.71429V8.05714C42.7999 8.82449 43.4688 9.42857 44.2777 9.42857C45.0866 9.42857 45.7399 8.82449 45.7399 8.05714Z" fill="#333333"/>
<path d="M35.215 18H24.6665V15.9863H26.3897V11.7051H28.5477V15.9863H33.1053V3H35.215V7.63002H36.2457V3H38.3554V18H36.2457V9.78647H35.215V18ZM31.8491 13.2114H29.6267V9.26321H25.2302V7.24947H29.6267V5.2833H24.9886V3.07928H31.8491V13.2114Z" fill="#333333"/>
<path d="M10.6367 7.09671V6.1084C10.6367 4.4187 12.0533 3 13.8042 3H19.8847C21.6356 3 23.0522 4.4187 23.0522 6.1084V7.09671C23.0522 8.7864 21.6356 10.2051 19.8847 10.2051H13.8042C12.0533 10.2051 10.6367 8.7864 10.6367 7.09671ZM10 12.2774H23.6889V14.2699H20.6646V18H18.4362V14.2699H15.2527V18H13.0243V14.2699H10V12.2774ZM12.881 6.60255C12.881 7.38363 13.3586 8.06908 14.2499 8.06908H19.439C20.3303 8.06908 20.8079 7.38363 20.8079 6.60255C20.8079 5.82147 20.3303 5.13603 19.439 5.13603H14.2499C13.3586 5.13603 12.881 5.82147 12.881 6.60255Z" fill="#333333"/>
</svg>
