<svg width="64" height="20" viewBox="0 0 64 20" fill="none" xmlns="http://www.w3.org/2000/svg">
<path d="M47.1904 13.6367C47.2006 13.5699 47.2158 13.4976 47.2361 13.4197C47.2463 13.3418 47.2768 13.275 47.3276 13.2194C47.4393 13.1749 47.546 13.1192 47.6476 13.0525C47.739 12.9746 47.8355 12.9022 47.9371 12.8355C48.0387 12.7687 48.1403 12.7186 48.2418 12.6852C48.3536 12.6407 48.4806 12.624 48.6228 12.6352L48.6837 12.6185C48.7955 12.6074 48.8971 12.5962 48.9885 12.5851C49.0901 12.5628 49.1967 12.5239 49.3085 12.4683L49.7961 12.2012H49.7809C49.8317 12.1567 49.8875 12.1177 49.9485 12.0844C50.0094 12.051 50.0704 12.0231 50.1313 12.0009C50.1516 11.9786 50.172 11.9619 50.1923 11.9508C50.2228 11.9286 50.2431 11.9007 50.2532 11.8674C50.304 11.8562 50.3548 11.8395 50.4056 11.8173C50.4666 11.7839 50.5326 11.7561 50.6037 11.7338C50.6545 11.7116 50.7104 11.7004 50.7713 11.7004C50.8323 11.6893 50.8932 11.6782 50.9542 11.6671C51.1573 11.5447 51.3554 11.4334 51.5484 11.3332C51.7516 11.2331 51.97 11.1496 52.2037 11.0829C52.3053 11.0272 52.3916 10.9883 52.4627 10.966C52.5338 10.9438 52.6252 10.8993 52.737 10.8325C52.8386 10.7768 52.9706 10.699 53.1332 10.5988C53.3059 10.4987 53.4735 10.4041 53.636 10.3151C53.8087 10.2149 53.9611 10.1259 54.0932 10.048C54.2252 9.97009 54.3065 9.92002 54.337 9.89776C54.3674 9.88664 54.3979 9.87551 54.4284 9.86438C54.469 9.84213 54.5046 9.81987 54.5351 9.79762C54.6366 9.74198 54.7281 9.68634 54.8093 9.6307C54.9008 9.57506 55.0023 9.53055 55.1141 9.49717L55.1903 9.48048L55.2665 9.4304L55.3427 9.39702L55.4646 9.33025L55.5712 9.28018C55.5915 9.25792 55.6068 9.24679 55.6169 9.24679C55.6779 9.18003 55.7795 9.1077 55.9217 9.02981C56.0741 8.94078 56.2366 8.86845 56.4093 8.81282C56.7141 8.6459 57.029 8.49568 57.3541 8.36215C57.6791 8.22861 57.994 8.05613 58.2988 7.84471C58.3496 7.78907 58.4309 7.72787 58.5426 7.6611C58.6645 7.58321 58.7661 7.52757 58.8474 7.49419C58.9083 7.44968 58.9997 7.38847 59.1216 7.31058C59.2537 7.22156 59.3908 7.1381 59.5331 7.06021C59.6753 6.97119 59.8124 6.89886 59.9445 6.84322C60.0867 6.78758 60.1883 6.75976 60.2492 6.75976H60.4016C60.554 6.78202 60.6962 6.83209 60.8283 6.90998C60.9603 6.97675 61.0162 7.11028 60.9959 7.31058L60.9806 7.39404L60.9654 7.44411C60.9654 7.46637 60.9654 7.49975 60.9654 7.54426C60.9654 7.57764 60.9553 7.60546 60.9349 7.62772L60.9197 7.64441C60.8791 7.71118 60.7876 7.79463 60.6454 7.89478C60.5032 7.99493 60.3457 8.09508 60.173 8.19523C60.0105 8.28425 59.848 8.36215 59.6854 8.42891C59.5331 8.49568 59.4264 8.52906 59.3654 8.52906C59.3146 8.57357 59.2588 8.61252 59.1978 8.6459C59.1369 8.66816 59.081 8.70154 59.0302 8.74605C58.9489 8.80169 58.8474 8.87958 58.7255 8.97973C58.6137 9.07988 58.507 9.12995 58.4055 9.12995C58.2937 9.16334 58.1667 9.20785 58.0245 9.26349C57.8823 9.31913 57.7401 9.38589 57.5979 9.46378C57.4556 9.54168 57.3134 9.61957 57.1712 9.69747C57.0391 9.76423 56.9223 9.831 56.8207 9.89776C56.8004 9.92002 56.7699 9.94227 56.7293 9.96453H56.7445C56.6531 10.0647 56.5617 10.1815 56.4703 10.3151C56.3788 10.4375 56.2976 10.5543 56.2265 10.6656C56.2061 10.7991 56.2112 10.9326 56.2417 11.0662C56.2823 11.1886 56.2976 11.3165 56.2874 11.4501C56.2874 11.4723 56.2823 11.489 56.2722 11.5001C56.2722 11.5113 56.2722 11.528 56.2722 11.5502L56.196 11.7171V11.8006C56.196 11.8229 56.1909 11.8507 56.1807 11.8841C56.1807 11.9063 56.1807 11.9286 56.1807 11.9508V12.4015C56.1604 12.6129 56.1249 12.841 56.0741 13.0858C56.0334 13.3307 55.9979 13.5476 55.9674 13.7368C55.9471 13.8481 55.9217 13.9983 55.8912 14.1875C55.8709 14.3655 55.8303 14.6326 55.7693 14.9887C55.8404 14.9442 55.9115 14.8997 55.9826 14.8551C56.0538 14.8106 56.1401 14.7606 56.2417 14.7049C56.3534 14.6493 56.4804 14.5881 56.6226 14.5213C56.775 14.4434 56.968 14.3544 57.2017 14.2542C57.415 14.1541 57.6283 14.0595 57.8417 13.9705C58.055 13.8815 58.2683 13.7924 58.4816 13.7034C58.5324 13.67 58.5832 13.6367 58.634 13.6033C58.695 13.5699 58.7509 13.5309 58.8016 13.4864C58.8728 13.4419 58.9286 13.403 58.9693 13.3696C59.0099 13.3251 59.0505 13.2861 59.0912 13.2528C59.1318 13.2194 59.1826 13.186 59.2435 13.1526C59.3045 13.1192 59.3908 13.0747 59.5026 13.0191C59.6651 12.9523 59.8226 12.9245 59.975 12.9356C60.1375 12.9579 60.2442 13.0135 60.295 13.1025C60.3457 13.1804 60.361 13.2861 60.3407 13.4197C60.3407 13.4753 60.3305 13.5254 60.3102 13.5699C60.3 13.6144 60.2848 13.6589 60.2645 13.7034C60.1832 13.8147 60.1273 13.887 60.0969 13.9204C60.0664 13.9427 60.0105 13.9983 59.9292 14.0873L59.7616 14.2709C59.7311 14.3043 59.6804 14.3488 59.6092 14.4045C59.5483 14.449 59.4772 14.4935 59.3959 14.538C59.3248 14.5825 59.2537 14.627 59.1826 14.6715C59.1115 14.7049 59.0556 14.7272 59.015 14.7383L58.8778 14.8051L58.1312 15.1389C57.9788 15.2057 57.862 15.2613 57.7807 15.3058C57.6994 15.3503 57.6283 15.3893 57.5674 15.4227C57.5064 15.4449 57.4506 15.4727 57.3998 15.5061C57.349 15.5395 57.2779 15.5784 57.1864 15.6229C57.1052 15.6675 57.0391 15.7008 56.9883 15.7231C56.9376 15.7454 56.8868 15.762 56.836 15.7732C56.7953 15.7954 56.7496 15.8177 56.6988 15.8399C56.648 15.8622 56.5769 15.89 56.4855 15.9234L56.135 16.0903C56.0233 16.146 55.9115 16.1905 55.7998 16.2238C55.6881 16.2684 55.5712 16.3129 55.4493 16.3574C55.2868 16.413 55.1395 16.4687 55.0074 16.5243C54.8754 16.5799 54.7382 16.6356 54.596 16.6912C54.4741 16.7357 54.3674 16.7802 54.276 16.8247C54.1846 16.8693 54.0932 16.9026 54.0017 16.9249C53.9205 16.9583 53.829 16.9805 53.7274 16.9917C53.636 17.0028 53.5243 17.0028 53.3922 16.9917C53.057 16.9694 52.737 16.8359 52.4322 16.5911C52.1986 16.3908 52.0361 16.2127 51.9446 16.0569C51.8634 15.9011 51.8126 15.7565 51.7922 15.6229C51.7719 15.4894 51.7669 15.3559 51.777 15.2224C51.7973 15.0888 51.7973 14.9386 51.777 14.7717C51.7567 14.6715 51.7415 14.5714 51.7313 14.4712C51.7313 14.3711 51.7313 14.2542 51.7313 14.1207C51.7313 14.0762 51.7211 14.015 51.7008 13.9371C51.6907 13.8481 51.6907 13.7813 51.7008 13.7368C51.711 13.4475 51.6856 13.2472 51.6246 13.1359C51.4824 12.9245 51.3707 12.8077 51.2894 12.7854C51.2183 12.752 51.1726 12.7298 51.1523 12.7186C50.9186 12.8077 50.685 12.8967 50.4513 12.9857C50.2177 13.0636 49.984 13.1637 49.7504 13.2861C49.659 13.3307 49.5675 13.3974 49.4761 13.4864C49.3948 13.5755 49.3085 13.6478 49.2171 13.7034C49.1967 13.7146 49.1206 13.7424 48.9885 13.7869C48.8666 13.8314 48.7244 13.8815 48.5618 13.9371C48.3993 13.9927 48.2368 14.0484 48.0742 14.104C47.9218 14.1485 47.7999 14.1819 47.7085 14.2042C47.6577 14.2042 47.612 14.2042 47.5714 14.2042C47.5307 14.193 47.485 14.1708 47.4342 14.1374L47.4038 14.0873C47.292 14.0651 47.2209 13.9761 47.1904 13.8203V13.6367ZM55.2512 4.95708C55.1192 4.86806 55.0582 4.74009 55.0684 4.57317C55.0785 4.49528 55.109 4.43408 55.1598 4.38957C55.2208 4.33393 55.2766 4.28942 55.3274 4.25604C55.4595 4.17814 55.6271 4.15032 55.8303 4.17258C55.9319 4.19483 56.0233 4.21709 56.1046 4.23934C56.1858 4.2616 56.2722 4.30055 56.3636 4.35618C56.6176 4.54536 56.7953 4.77904 56.8969 5.05723C56.9985 5.33542 57.0391 5.64143 57.0188 5.97526C56.9883 6.32022 56.9172 6.62067 56.8055 6.8766C56.6937 7.12141 56.5211 7.38847 56.2874 7.67779C56.1858 7.8002 56.0588 7.92817 55.9065 8.0617C55.7642 8.1841 55.5966 8.29538 55.4036 8.39553C55.2106 8.49568 54.9922 8.57357 54.7484 8.62921C54.5147 8.68485 54.2557 8.70154 53.9713 8.67929C53.7071 8.65703 53.4582 8.57913 53.2246 8.4456C53.0011 8.30094 52.8081 8.1229 52.6456 7.91148C52.483 7.70005 52.3611 7.4608 52.2799 7.19374C52.1986 6.91555 52.1681 6.62623 52.1884 6.32578C52.2189 6.00308 52.2951 5.69707 52.417 5.40775C52.5389 5.11843 52.6913 4.85137 52.8741 4.60656C53.057 4.36175 53.2652 4.14476 53.4989 3.95559C53.7427 3.75529 53.9916 3.59394 54.2455 3.47154C54.3166 3.43815 54.4132 3.39364 54.5351 3.338C54.657 3.27124 54.789 3.2156 54.9312 3.17109C55.0836 3.11545 55.2462 3.07094 55.4188 3.03756C55.5915 3.00417 55.7642 2.99305 55.9369 3.00417C55.9979 3.00417 56.069 3.0153 56.1503 3.03756C56.2315 3.04868 56.3077 3.07094 56.3788 3.10432C56.4601 3.13771 56.5211 3.18222 56.5617 3.23785C56.6125 3.29349 56.6379 3.36582 56.6379 3.45484C56.6277 3.52161 56.5922 3.57725 56.5312 3.62176C56.4804 3.65514 56.4195 3.68296 56.3484 3.70522C56.2772 3.71634 56.2061 3.72747 56.135 3.7386C56.0639 3.7386 56.008 3.74416 55.9674 3.75529L55.7693 3.82206C55.5255 3.89995 55.2868 4.01679 55.0531 4.17258L54.855 4.27273C54.53 4.47303 54.2557 4.75678 54.0322 5.12399C53.8087 5.49121 53.6817 5.89737 53.6513 6.34247C53.6208 6.6763 53.6817 6.94337 53.8341 7.14367C53.9865 7.34396 54.2201 7.4608 54.5351 7.49419C54.6874 7.50531 54.8246 7.47193 54.9465 7.39404C55.0684 7.30502 55.175 7.19374 55.2665 7.06021C55.3579 6.92668 55.429 6.78202 55.4798 6.62623C55.5306 6.45931 55.5611 6.30353 55.5712 6.15887C55.5915 5.90293 55.5814 5.66369 55.5407 5.44113C55.5001 5.21858 55.4036 5.05723 55.2512 4.95708ZM54.8398 11.1997C54.7789 11.1886 54.7077 11.183 54.6265 11.183C54.5554 11.1719 54.4792 11.1719 54.3979 11.183L54.1084 11.3165C53.9967 11.4167 53.8595 11.5057 53.697 11.5836C53.5344 11.6615 53.3668 11.7338 53.1941 11.8006C53.184 11.834 53.1687 11.8729 53.1484 11.9174C53.1383 11.9508 53.123 12.012 53.1027 12.101C53.0824 12.1456 53.0722 12.1956 53.0722 12.2513C53.0722 12.2958 53.0722 12.3403 53.0722 12.3848C53.0722 12.3959 53.0671 12.4237 53.057 12.4683C53.057 12.5128 53.057 12.5628 53.057 12.6185C53.057 12.6741 53.057 12.7298 53.057 12.7854C53.057 12.8299 53.0621 12.8577 53.0722 12.8689C53.0722 12.8911 53.0773 12.9579 53.0875 13.0691C53.0976 13.1804 53.1027 13.3028 53.1027 13.4364C53.1129 13.5588 53.123 13.67 53.1332 13.7702C53.1433 13.8703 53.1484 13.9204 53.1484 13.9204L53.2246 14.5881C53.2348 14.755 53.2398 14.8941 53.2398 15.0054C53.2398 15.1055 53.2398 15.1945 53.2398 15.2724C53.25 15.3392 53.2652 15.406 53.2856 15.4727C53.316 15.5395 53.3617 15.6118 53.4227 15.6897C53.4836 15.7676 53.5802 15.8177 53.7122 15.8399C53.7427 15.8399 53.8087 15.8344 53.9103 15.8232C54.0119 15.8121 54.144 15.7843 54.3065 15.7398C54.3674 15.4727 54.4233 15.1834 54.4741 14.8718C54.5351 14.5603 54.5858 14.2542 54.6265 13.9538C54.6773 13.6422 54.7179 13.3473 54.7484 13.0691C54.789 12.7798 54.8195 12.535 54.8398 12.3347L54.8855 12.0677L54.916 11.8841C54.9262 11.7839 54.9262 11.6726 54.916 11.5502C54.916 11.4167 54.8906 11.3054 54.8398 11.2164V11.1997Z" fill="#333333"/>
<path d="M44.6847 8.85564C44.6526 8.87749 44.599 8.9048 44.5241 8.93757C44.4598 8.97035 44.3956 9.00312 44.3313 9.0359C44.2671 9.06867 44.2028 9.10144 44.1386 9.13422C44.085 9.15607 44.0529 9.17245 44.0422 9.18338C43.9565 9.20523 43.8815 9.238 43.8173 9.2817C43.753 9.31448 43.6995 9.33086 43.6567 9.33086C43.5067 9.39641 43.3889 9.4565 43.3033 9.51112C43.2283 9.56574 43.1533 9.62037 43.0784 9.67499C43.0034 9.72961 42.9124 9.79516 42.8053 9.87163C42.7089 9.94811 42.5643 10.041 42.3716 10.1502L41.5042 10.6254L41.4078 10.6746L41.3275 10.8712C41.2311 11.057 41.1293 11.3082 41.0223 11.625C40.9259 11.9309 40.8456 12.2423 40.7813 12.5591C40.9848 12.5045 41.1936 12.4171 41.4078 12.2969C41.622 12.1658 41.8094 12.0566 41.97 11.9692C42.0235 11.8709 42.1199 11.7944 42.2591 11.7398C42.3234 11.7616 42.3876 11.7616 42.4519 11.7398C42.5162 11.707 42.5804 11.6687 42.6447 11.625L42.6125 11.5923C42.8588 11.4284 43.1319 11.2755 43.4318 11.1334C43.7316 10.9914 44.0368 10.8712 44.3474 10.7729C44.4009 10.7074 44.4866 10.6473 44.6044 10.5927C44.7222 10.5271 44.8239 10.4725 44.9096 10.4288L44.8935 10.4943C44.9471 10.4069 45.0435 10.325 45.1827 10.2485C45.3219 10.1611 45.4665 10.0847 45.6164 10.0191C45.777 9.94265 45.927 9.88256 46.0662 9.83886C46.2054 9.78424 46.3071 9.746 46.3714 9.72415H46.4035C46.4249 9.71323 46.4463 9.71323 46.4678 9.72415C46.4892 9.72415 46.5213 9.72415 46.5641 9.72415C46.6926 9.76785 46.8212 9.82247 46.9497 9.88802C47.0782 9.95357 47.1424 10.0956 47.1424 10.3141L47.1264 10.4124L47.1103 10.4452C47.1103 10.467 47.1103 10.4998 47.1103 10.5435C47.1103 10.5872 47.0996 10.62 47.0782 10.6418L47.1906 10.7729C47.1371 10.8275 47.03 10.904 46.8693 11.0023C46.7087 11.0897 46.532 11.1826 46.3392 11.2809C46.1572 11.3683 45.9805 11.4393 45.8092 11.494C45.6378 11.5486 45.5147 11.565 45.4397 11.5431L45.0702 11.7234C44.9846 11.7671 44.8775 11.8435 44.749 11.9528C44.6312 12.0511 44.5134 12.1112 44.3956 12.133L44.2349 12.2805C44.2028 12.2805 44.1171 12.3078 43.9779 12.3625C43.8387 12.4171 43.6888 12.4772 43.5281 12.5427C43.3675 12.6083 43.2069 12.6738 43.0462 12.7394C42.8963 12.8049 42.7839 12.8595 42.7089 12.9032C42.4947 13.0016 42.2859 13.1272 42.0824 13.2801C41.8897 13.4331 41.7023 13.5369 41.5202 13.5915L41.5363 13.6243C41.4613 13.668 41.3596 13.7226 41.2311 13.7881C41.1133 13.8537 40.9848 13.9192 40.8456 13.9848C40.7063 14.0503 40.5618 14.105 40.4118 14.1487C40.2726 14.1924 40.1388 14.2033 40.0103 14.1814L39.6408 14.2961C39.6087 14.3945 39.4855 14.5092 39.2713 14.6403C39.0572 14.7714 38.8216 14.897 38.5646 15.0172C38.3182 15.1264 38.088 15.2193 37.8738 15.2957C37.6704 15.3722 37.5579 15.3995 37.5365 15.3777C37.2688 15.4105 37.0546 15.4596 36.894 15.5252C36.7333 15.5907 36.5566 15.689 36.3639 15.8201C36.3103 15.8529 36.2461 15.8693 36.1711 15.8693C36.0961 15.8693 36.0265 15.8857 35.9623 15.9185C35.8445 16.0277 35.6999 16.1151 35.5286 16.1806C35.3572 16.2571 35.2126 16.3172 35.0949 16.3609C34.9663 16.4592 34.8485 16.5302 34.7415 16.5739C34.6344 16.6176 34.5326 16.6559 34.4363 16.6886C34.3399 16.7214 34.2435 16.7487 34.1471 16.7706C34.0614 16.8034 33.9651 16.8525 33.858 16.9181C33.8044 16.9399 33.7509 16.9508 33.6973 16.9508C33.6545 16.9618 33.601 16.9618 33.5367 16.9508C33.4724 16.9727 33.4028 16.9782 33.3279 16.9672C33.2529 16.9672 33.1672 16.9782 33.0709 17C32.9745 16.9891 32.8513 16.9508 32.7014 16.8853C32.5515 16.8197 32.4712 16.716 32.4604 16.5739C32.4604 16.5302 32.4765 16.4865 32.5086 16.4428C32.5301 16.3991 32.5568 16.3391 32.589 16.2626C32.7389 16.1533 32.8995 16.0386 33.0709 15.9185C33.2422 15.8092 33.3761 15.7491 33.4724 15.7382C33.7509 15.6399 34.024 15.5416 34.2917 15.4432C34.5594 15.3449 34.795 15.2575 34.9985 15.181C35.2126 15.0936 35.384 15.0117 35.5125 14.9352C35.641 14.8588 35.7053 14.7877 35.7053 14.7222C35.8338 14.6894 36.0051 14.6348 36.2193 14.5583C36.4335 14.4709 36.653 14.3781 36.8779 14.2798C37.1135 14.1705 37.3384 14.0613 37.5526 13.952C37.7667 13.8318 37.9434 13.7281 38.0826 13.6407C38.1683 13.6297 38.2754 13.5806 38.4039 13.4932C38.5324 13.4058 38.6449 13.3348 38.7412 13.2801C38.7734 13.2583 38.8109 13.2474 38.8537 13.2474C38.9072 13.2364 38.9447 13.2091 38.9661 13.1654C39.0304 13.1545 39.0893 13.0944 39.1428 12.9852C39.2071 12.865 39.2606 12.7284 39.3035 12.5755C39.357 12.4116 39.4052 12.2368 39.448 12.0511C39.4909 11.8545 39.5337 11.6687 39.5765 11.494C39.2339 11.7234 38.9715 11.9091 38.7894 12.0511C38.6074 12.1931 38.4521 12.3078 38.3236 12.3952C38.2058 12.4717 38.0934 12.5318 37.9863 12.5755C37.8792 12.6083 37.7346 12.6465 37.5526 12.6902C37.4562 12.7339 37.3544 12.7667 37.2474 12.7885C37.1403 12.7995 37.0278 12.8158 36.91 12.8377C36.8672 12.8377 36.7922 12.8049 36.6851 12.7394C36.5887 12.6738 36.487 12.5973 36.3799 12.5099C36.2728 12.4116 36.1818 12.3188 36.1068 12.2314C36.0319 12.144 35.9944 12.073 35.9944 12.0183C35.9944 11.9965 36.0105 11.9692 36.0426 11.9364C36.0747 11.9036 36.1015 11.8435 36.1229 11.7561C36.3371 11.7124 36.6262 11.5704 36.9903 11.3301C37.3651 11.0788 37.7453 10.8002 38.1308 10.4943C38.5164 10.1775 38.8698 9.86071 39.191 9.54389C39.5123 9.22708 39.7318 8.97035 39.8496 8.7737C39.8603 8.71908 39.9192 8.64261 40.0263 8.54428C40.1441 8.44596 40.2726 8.32579 40.4118 8.18377C40.6153 8.03082 40.7652 7.91611 40.8616 7.83964C40.958 7.76317 40.9687 7.74678 40.8937 7.79048C40.8188 7.83418 40.6421 7.93796 40.3637 8.10183C40.0959 8.2657 39.689 8.50605 39.1428 8.82287C38.6824 9.04136 38.329 9.20523 38.0826 9.31448C37.8471 9.42372 37.6704 9.51112 37.5526 9.57667C37.4455 9.63129 37.3759 9.66953 37.3437 9.69138C37.3116 9.71323 37.2688 9.74054 37.2152 9.77331L36.9903 9.90441C36.9154 9.93718 36.819 9.95903 36.7012 9.96996C36.5941 9.96996 36.487 9.96996 36.3799 9.96996C36.3157 9.95903 36.2461 9.94811 36.1711 9.93718C36.1068 9.92626 36.0426 9.90987 35.9783 9.88802C35.9248 9.86617 35.882 9.8334 35.8498 9.7897C35.8177 9.746 35.807 9.68045 35.8177 9.59305C35.8177 9.48381 35.9141 9.3691 36.1068 9.24893C36.1925 9.18338 36.2568 9.13422 36.2996 9.10144C36.3424 9.05774 36.396 9.00858 36.4602 8.95396C36.5245 8.89934 36.6102 8.82833 36.7173 8.74093C36.8351 8.65353 37.0064 8.51697 37.2313 8.33125C37.3384 8.22201 37.4294 8.12915 37.5044 8.05267C37.59 7.9762 37.6704 7.90519 37.7453 7.83964C37.831 7.77409 37.9167 7.70855 38.0023 7.643C38.0987 7.57745 38.2165 7.49551 38.3557 7.39719C38.4842 7.30979 38.5913 7.22786 38.677 7.15139C38.7627 7.07491 38.8805 7.00936 39.0304 6.95474C39.009 6.95474 39.0411 6.91104 39.1268 6.82364C39.2124 6.72532 39.3249 6.61608 39.4641 6.4959C39.614 6.36481 39.7854 6.23371 39.9781 6.10261C40.1709 5.96059 40.3583 5.84588 40.5404 5.75849C41.3221 5.1467 41.6809 4.82443 41.6166 4.79165C41.5631 4.75888 41.0062 4.97737 39.946 5.44713C39.4427 5.72025 39.0572 5.94421 38.7894 6.119C38.5324 6.28287 38.3343 6.41397 38.1951 6.51229C38.0559 6.61061 37.9488 6.68162 37.8738 6.72532C37.8096 6.76902 37.7239 6.80726 37.6168 6.84003C37.499 6.9165 37.4026 6.98205 37.3277 7.03668C37.2527 7.08038 37.1831 7.11861 37.1188 7.15139C37.0653 7.17323 37.0118 7.19508 36.9582 7.21693C36.9154 7.23878 36.8618 7.26063 36.7976 7.28248C36.7333 7.29341 36.6744 7.29887 36.6209 7.29887C36.578 7.29887 36.5298 7.29887 36.4763 7.29887C36.3371 7.27702 36.2139 7.23332 36.1068 7.16777C36.0105 7.0913 35.973 6.97113 35.9944 6.80726C36.0051 6.75263 36.0158 6.69801 36.0265 6.64339C36.0372 6.58876 36.0533 6.53414 36.0747 6.47952C36.0961 6.40304 36.1176 6.34296 36.139 6.29926C36.1711 6.24464 36.2086 6.2064 36.2514 6.18455C36.305 6.15178 36.3639 6.12446 36.4281 6.10261C36.4924 6.08077 36.5673 6.04799 36.653 6.00429C36.8351 5.8732 36.9743 5.78034 37.0707 5.72571C37.167 5.67109 37.242 5.63831 37.2955 5.62739C37.3598 5.60554 37.408 5.60008 37.4401 5.611C37.4722 5.611 37.5097 5.611 37.5526 5.611C37.5204 5.55638 37.5151 5.51268 37.5365 5.47991C37.5686 5.44713 37.6543 5.39797 37.7935 5.33242C37.9327 5.26688 38.1362 5.16855 38.4039 5.03746C38.6716 4.90636 39.0411 4.71518 39.5123 4.46391C40.0156 4.27819 40.3958 4.12524 40.6528 4.00507C40.9098 3.8849 41.1026 3.78658 41.2311 3.71011C41.3703 3.62271 41.472 3.5517 41.5363 3.49707C41.6005 3.44245 41.6916 3.38236 41.8094 3.31682C41.9593 3.25127 42.0824 3.20211 42.1788 3.16933C42.2752 3.12563 42.3555 3.09832 42.4198 3.0874C42.484 3.06555 42.5429 3.05462 42.5965 3.05462C42.65 3.0437 42.7089 3.03277 42.7732 3.02185C42.8588 3 42.9338 2.99454 42.9981 3.00546C43.073 3.00546 43.1266 3.00546 43.1587 3.00546L43.2551 3.02185C43.2979 3.03277 43.3461 3.03824 43.3996 3.03824C43.4532 3.03824 43.5228 3.14202 43.6085 3.34959C43.6299 3.40421 43.6513 3.46976 43.6727 3.54624C43.6941 3.61178 43.6995 3.67733 43.6888 3.74288C43.6781 3.78658 43.6459 3.85213 43.5924 3.93952C43.5496 4.016 43.4853 4.10339 43.3996 4.20172C43.3354 4.32189 43.2818 4.40929 43.239 4.46391C43.2069 4.50761 43.1801 4.54585 43.1587 4.57862C43.1373 4.60047 43.1212 4.61686 43.1105 4.62778C43.1105 4.62778 43.1051 4.63871 43.0944 4.66055L42.725 4.9883L42.4037 5.3652C42.3823 5.39797 42.3555 5.42528 42.3234 5.44713C42.2913 5.46898 42.227 5.51268 42.1306 5.57823C42.045 5.64378 41.9111 5.7421 41.729 5.8732C41.5577 6.00429 41.3221 6.20094 41.0223 6.46313C40.7117 6.65977 40.4654 6.81818 40.2833 6.93835C40.112 7.05853 39.9674 7.16231 39.8496 7.24971C39.7318 7.33711 39.6247 7.41358 39.5284 7.47913C39.4427 7.53375 39.3356 7.5993 39.2071 7.67577C39.0036 7.81779 38.8537 7.92704 38.7573 8.00351C38.6609 8.06906 38.6502 8.09091 38.7252 8.06906C38.8109 8.03629 38.9983 7.94343 39.2874 7.79048C39.5765 7.63753 40.0049 7.40812 40.5725 7.10222C41.1722 6.76356 41.6273 6.4959 41.9379 6.29926C42.2484 6.10261 42.4733 5.94967 42.6125 5.84042C42.7625 5.73117 42.8588 5.66016 42.9017 5.62739C42.9552 5.59462 43.0195 5.57277 43.0944 5.56184C43.1587 5.55092 43.2176 5.54545 43.2711 5.54545C43.3247 5.53453 43.3782 5.52907 43.4318 5.52907C43.6138 5.55092 43.7745 5.59462 43.9137 5.66016C44.0529 5.71479 44.1118 5.81311 44.0904 5.95513C44.1011 6.0316 44.0261 6.15178 43.8655 6.31565C43.7691 6.35934 43.6459 6.46313 43.496 6.627C43.3461 6.79087 43.1908 6.97113 43.0302 7.16777C42.8695 7.29887 42.741 7.40812 42.6447 7.49551C42.5483 7.58291 42.468 7.65938 42.4037 7.72493C42.3395 7.79048 42.2752 7.85603 42.2109 7.92158C42.1574 7.9762 42.0824 8.04175 41.9861 8.11822L41.6327 8.44596C41.6112 8.45689 41.5631 8.50605 41.4881 8.59345C41.4238 8.68084 41.3489 8.78463 41.2632 8.9048C41.0812 9.0359 40.9473 9.13968 40.8616 9.21615C40.7759 9.2817 40.6903 9.35271 40.6046 9.42918C40.5189 9.50566 40.4065 9.59306 40.2673 9.69138C40.1388 9.7897 39.946 9.93172 39.689 10.1174L38.9019 10.7401C39.0197 10.6855 39.175 10.5981 39.3677 10.478C39.5712 10.3578 39.8282 10.1939 40.1388 9.98634L41.729 9.08506C41.7933 9.04136 41.8629 9.00858 41.9379 8.98674C42.0128 8.96489 42.0878 8.92119 42.1628 8.85564L43.4157 8.24932C43.6513 8.11822 43.8334 8.01444 43.9619 7.93796C44.1011 7.86149 44.2082 7.80687 44.2831 7.77409C44.3688 7.73039 44.4331 7.70308 44.4759 7.69216C44.5187 7.68123 44.5562 7.67031 44.5883 7.65938C44.6419 7.64846 44.6847 7.63753 44.7168 7.62661C44.7597 7.61568 44.8561 7.62115 45.006 7.643C45.0595 7.65392 45.1077 7.66485 45.1506 7.67577C45.2041 7.6867 45.2416 7.71401 45.263 7.75771C45.3808 7.95435 45.4076 8.11822 45.3433 8.24932C45.2791 8.44596 45.2202 8.56067 45.1666 8.59345C45.1131 8.61529 45.0274 8.65899 44.9096 8.72454L44.6526 8.85564H44.6847Z" fill="#333333"/>
<path d="M26.6035 5.89991C26.4854 5.72743 26.3834 5.60345 26.2975 5.52799C26.2224 5.44175 26.1579 5.37706 26.1043 5.33394C26.0506 5.29082 26.0076 5.26387 25.9754 5.25309C25.9432 5.23153 25.911 5.1938 25.8788 5.1399C25.8144 5.04287 25.7768 4.98358 25.7661 4.96202C25.7553 4.92968 25.7661 4.87039 25.7983 4.78415C25.8305 4.70868 25.852 4.66556 25.8627 4.65478C25.8842 4.63322 25.9056 4.60627 25.9271 4.57393C25.9593 4.55237 25.9862 4.53081 26.0076 4.50925C26.0291 4.47691 26.115 4.43917 26.2653 4.39605C26.319 4.39605 26.3673 4.39605 26.4103 4.39605C26.4532 4.38527 26.5015 4.38527 26.5552 4.39605C26.8129 4.41761 27.0544 4.48769 27.2799 4.60627C27.5161 4.71407 27.7201 4.85422 27.8919 5.0267C28.0636 5.19919 28.1978 5.39863 28.2945 5.62501C28.3911 5.84062 28.4287 6.06162 28.4072 6.288C28.3535 6.93482 28.1549 7.4415 27.8113 7.80803C27.4785 8.16378 27.0544 8.46024 26.5391 8.69741C26.4103 8.75131 26.2653 8.79982 26.1043 8.84294C25.9432 8.87529 25.7768 8.90224 25.605 8.9238C25.4333 8.94536 25.2615 8.96153 25.0897 8.97231C24.9286 8.97231 24.7783 8.96692 24.6388 8.95614C24.4026 8.93458 24.1556 8.88607 23.898 8.8106C23.651 8.73514 23.4148 8.62734 23.1894 8.48719C22.8673 8.30393 22.6204 8.14761 22.4486 8.01825C22.2875 7.8781 22.1694 7.75413 22.0943 7.64633C22.0191 7.52774 21.9762 7.40916 21.9654 7.29058C21.9547 7.17199 21.944 7.03724 21.9332 6.88631C21.9225 6.80007 21.9171 6.70844 21.9171 6.61141C21.9279 6.51439 21.9386 6.41198 21.9493 6.30417C21.9815 5.99154 22.0782 5.71126 22.2392 5.46331C22.3573 5.25848 22.4539 5.10756 22.5291 5.01053C22.615 4.90273 22.6848 4.82727 22.7384 4.78415C22.8029 4.73024 22.8512 4.69251 22.8834 4.67095C22.9263 4.64939 22.9693 4.61166 23.0122 4.55776C23.0981 4.47152 23.1518 4.423 23.1733 4.41222C23.1947 4.39066 23.2162 4.3691 23.2377 4.34754L23.2699 4.28286C23.2914 4.28286 23.3128 4.26669 23.3343 4.23435C23.3665 4.19123 23.388 4.16967 23.3987 4.16967C23.5061 4.08342 23.6296 3.99718 23.7691 3.91094C23.9087 3.81392 24.059 3.72228 24.2201 3.63604C24.4348 3.51746 24.6066 3.43121 24.7354 3.37731C24.8642 3.32341 24.977 3.28568 25.0736 3.26412C25.1702 3.23178 25.2668 3.21022 25.3635 3.19944C25.4601 3.17788 25.5836 3.14014 25.7339 3.08624C25.8412 3.06468 25.9432 3.04312 26.0399 3.02156C26.1472 3 26.2653 2.99461 26.3941 3.00539C26.4586 3.01617 26.5391 3.02695 26.6357 3.03773C26.7431 3.04851 26.8397 3.07007 26.9256 3.10241C27.0222 3.13475 27.1027 3.17788 27.1672 3.23178C27.2316 3.28568 27.2584 3.36114 27.2477 3.45816C27.2369 3.60909 27.1564 3.70072 27.0061 3.73306C26.8236 3.78696 26.7109 3.81392 26.6679 3.81392C26.6357 3.81392 26.5874 3.81392 26.523 3.81392L26.3941 3.84626C26.115 3.8786 25.809 3.98101 25.4762 4.1535C25.1541 4.32598 24.8428 4.53081 24.5421 4.76798C24.2523 5.00514 24.0053 5.26387 23.8013 5.54416C23.5974 5.81367 23.4846 6.06162 23.4631 6.288C23.4417 6.51439 23.4685 6.71922 23.5437 6.90248C23.6296 7.07497 23.7423 7.23128 23.8819 7.37143C24.0322 7.50079 24.2039 7.6086 24.3972 7.69484C24.5905 7.7703 24.7998 7.81881 25.0253 7.84037C25.1756 7.86193 25.3474 7.84037 25.5406 7.77569C25.7446 7.70023 25.9379 7.60859 26.1204 7.50079C26.3029 7.38221 26.4586 7.24745 26.5874 7.09653C26.727 6.9456 26.8021 6.79468 26.8129 6.64375C26.8451 6.38503 26.7753 6.13708 26.6035 5.89991ZM29.9693 12.9664C29.9479 13.1389 29.9371 13.3168 29.9371 13.5001C29.9371 13.6833 29.9264 13.8881 29.9049 14.1145C29.8942 14.3301 29.8673 14.5781 29.8244 14.8584C29.7922 15.1279 29.7331 15.4459 29.6472 15.8124C29.6258 15.8879 29.5989 15.9957 29.5667 16.1358C29.5452 16.2868 29.5184 16.4377 29.4862 16.5886C29.4647 16.7395 29.4379 16.8743 29.4057 16.9929C29.3735 17.1115 29.3466 17.1761 29.3251 17.1869L29.309 17.3001L29.1802 17.5912L29.1963 17.575C28.9923 17.8876 28.7024 18.0278 28.3267 17.9955C28.2945 17.9955 28.2462 17.9631 28.1817 17.8984C28.1281 17.8445 28.0797 17.7745 28.0368 17.6882C27.9939 17.6128 27.9563 17.5211 27.9241 17.4133C27.9026 17.3163 27.908 17.2193 27.9402 17.1222C27.9616 16.939 28.0153 16.7288 28.1012 16.4916C28.1978 16.2544 28.2837 15.9256 28.3589 15.5052C28.4018 15.3004 28.4448 15.0848 28.4877 14.8584C28.5414 14.6212 28.5897 14.384 28.6327 14.1469C28.6756 13.8989 28.7024 13.6618 28.7132 13.4354C28.7239 13.1982 28.7132 12.9826 28.681 12.7885C28.6595 12.67 28.6273 12.5568 28.5843 12.449C28.5521 12.3412 28.5307 12.2388 28.5199 12.1417C28.5092 12.0339 28.5199 11.9315 28.5521 11.8345C28.5843 11.7375 28.6649 11.6351 28.7937 11.5272C28.9011 11.441 29.0245 11.4087 29.1641 11.4302C29.3144 11.441 29.454 11.5111 29.5828 11.6404C29.7117 11.759 29.8136 11.9315 29.8888 12.1579C29.9747 12.3735 30.0015 12.643 29.9693 12.9664ZM32.2562 8.01825C32.1058 8.20151 31.9019 8.38478 31.6442 8.56805C31.3972 8.75131 31.1235 8.93458 30.8229 9.11784C30.5222 9.29033 30.2163 9.47359 29.9049 9.66764C29.5936 9.85091 29.3037 10.045 29.0353 10.2498C28.9923 10.2821 28.885 10.3899 28.7132 10.5732C28.5521 10.7457 28.3804 10.9343 28.1978 11.1392C28.0153 11.344 27.8435 11.538 27.6825 11.7213C27.5215 11.9046 27.4248 12.0178 27.3926 12.0609C27.3067 12.2226 27.2047 12.3735 27.0866 12.5136C26.9793 12.6538 26.8558 12.7939 26.7162 12.9341C26.5874 13.0634 26.4478 13.1982 26.2975 13.3383C26.1579 13.4785 26.0184 13.6294 25.8788 13.7911C25.7285 13.9636 25.5567 14.1523 25.3635 14.3571C25.1809 14.5511 24.9931 14.756 24.7998 14.9716C24.6066 15.1764 24.4187 15.3812 24.2362 15.586C24.0536 15.7909 23.8926 15.9741 23.753 16.1358C23.4739 16.2975 23.2162 16.4862 22.98 16.7018C22.7438 16.9282 22.5023 17.1222 22.2553 17.284C22.1587 17.3163 22.046 17.3325 21.9171 17.3325C21.799 17.3325 21.6863 17.3163 21.5789 17.284C21.4716 17.2624 21.3749 17.2354 21.2891 17.2031C21.2139 17.1708 21.1763 17.1438 21.1763 17.1222C21.1656 16.8959 21.2139 16.6749 21.3213 16.4593C21.4394 16.2544 21.5736 16.0927 21.7239 15.9741C21.8634 15.7909 21.9869 15.6399 22.0943 15.5214C22.2124 15.4028 22.3358 15.295 22.4647 15.198C22.5935 15.1009 22.7331 15.0093 22.8834 14.9231C23.0337 14.826 23.2108 14.7074 23.4148 14.5673C23.447 14.5134 23.5276 14.4379 23.6564 14.3409C23.7852 14.2439 23.9248 14.1307 24.0751 14.0013C24.2362 13.872 24.3972 13.7372 24.5582 13.5971C24.7193 13.4569 24.8589 13.3168 24.977 13.1766C25.1809 12.9826 25.3903 12.767 25.605 12.5298C25.8198 12.2819 26.0237 12.0339 26.217 11.786C26.421 11.5272 26.6142 11.2793 26.7968 11.0421C26.9793 10.805 27.1457 10.5894 27.296 10.3953L26.7484 10.8643C26.5445 10.9936 26.319 11.1338 26.0721 11.2847C25.8251 11.4356 25.5621 11.5003 25.2829 11.4787L24.9125 11.6566C24.8803 11.6782 24.7622 11.7429 24.5582 11.8507C24.3543 11.9477 24.1234 12.0555 23.8658 12.1741C23.6188 12.2819 23.3826 12.3843 23.1572 12.4813C22.9317 12.5783 22.7868 12.6268 22.7223 12.6268C22.5076 12.7239 22.3197 12.8263 22.1587 12.9341C21.9976 13.0419 21.8259 13.1173 21.6433 13.1605C21.5789 13.2036 21.5091 13.2305 21.434 13.2413C21.3588 13.2521 21.2837 13.2898 21.2085 13.3545C21.0582 13.4408 20.9025 13.5162 20.7415 13.5809C20.5912 13.6456 20.4516 13.7157 20.3228 13.7911C20.2047 13.8558 20.0973 13.9097 20.0007 13.9528C19.9148 13.9852 19.8236 14.0175 19.7269 14.0498C19.641 14.0714 19.5498 14.093 19.4532 14.1145C19.3673 14.1361 19.2706 14.1684 19.1633 14.2116C19.0881 14.2439 19.0291 14.2547 18.9861 14.2439C18.9539 14.2331 18.9002 14.2331 18.8251 14.2439C18.7499 14.2655 18.6748 14.2762 18.5996 14.2762C18.5352 14.2762 18.4762 14.2708 18.4225 14.2601C18.3795 14.2708 18.3151 14.2708 18.2292 14.2601C18.1541 14.2385 18.0789 14.2116 18.0038 14.1792C17.9286 14.1361 17.8642 14.0876 17.8105 14.0337C17.7568 13.9798 17.73 13.9205 17.73 13.8558C17.73 13.8127 17.7407 13.7696 17.7622 13.7264C17.7729 13.6833 17.7729 13.624 17.7622 13.5486C17.934 13.4408 18.1111 13.333 18.2936 13.2252C18.4869 13.1066 18.7124 12.9988 18.97 12.9017C19.3887 12.7508 19.8074 12.6107 20.2262 12.4813C20.6556 12.3519 21.0153 12.228 21.3052 12.1094C21.3374 12.0339 21.4447 11.9531 21.6272 11.8668C21.8098 11.7698 22.0138 11.6728 22.2392 11.5758C22.4647 11.4787 22.6794 11.3871 22.8834 11.3009C23.0981 11.2038 23.2431 11.1068 23.3182 11.0098C23.4363 10.9559 23.5383 10.902 23.6242 10.8481C23.7208 10.7834 23.8389 10.7079 23.9785 10.6217C24.0429 10.6001 24.102 10.5786 24.1556 10.557C24.2093 10.5355 24.2737 10.4977 24.3489 10.4438L25.9271 9.84552C26.2277 9.75927 26.48 9.66764 26.684 9.57062C26.888 9.47359 27.092 9.37118 27.296 9.26338L27.5537 9.13401C27.6073 9.15557 27.6664 9.1394 27.7308 9.0855C27.806 9.0316 27.865 8.99387 27.908 8.97231C28.1549 8.82138 28.4287 8.67585 28.7293 8.5357C29.0299 8.39556 29.3198 8.2662 29.5989 8.14761H29.5667C29.5989 8.11527 29.6419 8.08293 29.6955 8.05059C29.7492 8.00747 29.8083 7.96974 29.8727 7.9374C29.9371 7.90505 29.9962 7.8781 30.0498 7.85654C30.1143 7.8242 30.1626 7.80264 30.1948 7.79186L30.1626 7.80803C30.2485 7.78647 30.3612 7.73257 30.5008 7.64633C30.6511 7.56008 30.8014 7.47384 30.9517 7.3876C31.1127 7.29058 31.2577 7.20972 31.3865 7.14504C31.5153 7.08036 31.6066 7.06419 31.6603 7.09653H31.6925C31.714 7.08575 31.7569 7.09114 31.8213 7.1127C31.8965 7.1127 31.9716 7.12348 32.0468 7.14504C32.1327 7.15582 32.2078 7.18277 32.2723 7.22589C32.3367 7.25823 32.385 7.30675 32.4172 7.37143C32.4601 7.42533 32.4709 7.50079 32.4494 7.59782L32.4333 7.69484L32.2562 8.01825Z" fill="#333333"/>
<path d="M3.35915 15.3396C3.23145 15.3283 3.13568 15.2943 3.07183 15.2377C3.00798 15.1811 2.9867 15.0565 3.00798 14.864C2.9867 14.7281 3.00798 14.6206 3.07183 14.5413C3.13568 14.462 3.21549 14.3884 3.31126 14.3205C3.40703 14.2412 3.5028 14.1619 3.59858 14.0827C3.69435 14.0034 3.76352 13.9015 3.80608 13.7769L4.2211 13.3693L4.49245 13.0975L5.13093 12.0444C5.23735 11.9651 5.34376 11.8688 5.45018 11.7556C5.56723 11.631 5.67896 11.5065 5.78538 11.3819C5.89179 11.2573 5.99288 11.1384 6.08866 11.0252C6.18443 10.912 6.26956 10.8157 6.34405 10.7364L6.47175 10.6005C6.50367 10.5213 6.5622 10.4307 6.64733 10.3288C6.73246 10.2155 6.80163 10.1419 6.85484 10.108L7.44543 9.42852C7.488 9.28131 7.54653 9.13409 7.62101 8.98688C7.70615 8.83967 7.80192 8.69246 7.90833 8.54525C8.01475 8.38671 8.12116 8.23384 8.22757 8.08663C8.33399 7.93942 8.43508 7.78654 8.53085 7.62801C8.67983 7.44682 8.79689 7.27697 8.88202 7.11843C8.96715 6.94857 9.04164 6.76739 9.10549 6.57488C9.12677 6.54091 9.17998 6.46164 9.26511 6.33708C9.36088 6.20119 9.41941 6.09927 9.44069 6.03133C9.22786 6.03133 9.02567 6.09927 8.83413 6.23516C8.65323 6.35972 8.51489 6.45032 8.41912 6.50694C8.33399 6.56356 8.25418 6.62584 8.17969 6.69378C8.1052 6.7504 8.03071 6.79004 7.95622 6.81268C7.80724 6.84665 7.66358 6.90327 7.52524 6.98254C7.39755 7.05049 7.26985 7.12409 7.14215 7.20336C7.01446 7.28263 6.88676 7.3619 6.75906 7.44116C6.63137 7.50911 6.49303 7.56006 6.34405 7.59404C6.21635 7.7186 6.06205 7.84316 5.88115 7.96773C5.71089 8.08097 5.52999 8.12626 5.33844 8.10361C5.22139 8.12626 5.09369 8.16023 4.95535 8.20553C4.82766 8.2395 4.69464 8.2395 4.5563 8.20553C4.46053 8.21685 4.34879 8.21119 4.2211 8.18854C4.10404 8.15457 4.01891 8.10928 3.9657 8.05266C3.86993 7.98471 3.79012 7.93375 3.72627 7.89978C3.67307 7.85449 3.64646 7.78654 3.64646 7.69595C3.64646 7.54874 3.67307 7.44682 3.72627 7.3902C3.77948 7.32226 3.84333 7.2713 3.91782 7.23733C3.99231 7.20336 4.07212 7.18071 4.15725 7.16939C4.24238 7.14674 4.32751 7.10144 4.41264 7.0335L5.03516 6.96556C5.21606 6.89761 5.40761 6.80136 5.6098 6.6768C5.82262 6.55223 6.05141 6.43899 6.29616 6.33708C6.41322 6.24648 6.53559 6.17288 6.66329 6.11626C6.80163 6.05964 6.93997 6.00868 7.0783 5.96339C7.21664 5.90677 7.3603 5.85015 7.50928 5.79353C7.65826 5.72558 7.81256 5.64065 7.97218 5.53874C8.24886 5.40285 8.47764 5.28395 8.65855 5.18203C8.85009 5.06879 9.07888 4.93291 9.34492 4.77437C9.4939 4.66113 9.71204 4.54789 9.99936 4.43465C10.2867 4.32141 10.5208 4.25913 10.7017 4.24781C10.7549 4.25913 10.8187 4.2931 10.8932 4.34972C10.9784 4.39502 11.0582 4.45164 11.1327 4.51958C11.2072 4.5762 11.2657 4.63848 11.3082 4.70643C11.3615 4.77437 11.3881 4.83099 11.3881 4.87629C11.3881 4.93291 11.3827 4.98386 11.3721 5.02916C11.3615 5.07446 11.3508 5.1424 11.3402 5.23299C11.287 5.48212 11.1965 5.74257 11.0688 6.01434C10.9518 6.28612 10.8187 6.50127 10.6698 6.65981C10.6591 6.70511 10.6378 6.77871 10.6059 6.88063C10.574 6.97122 10.5314 7.07313 10.4782 7.18637C10.4357 7.28829 10.3931 7.38454 10.3505 7.47513C10.308 7.5544 10.2707 7.60536 10.2388 7.62801C10.1856 7.68463 10.1271 7.76956 10.0632 7.8828C9.99936 7.99604 9.93551 8.11494 9.87166 8.2395C9.80782 8.36407 9.74929 8.48863 9.69608 8.61319C9.64287 8.72643 9.60563 8.8057 9.58435 8.851C9.57371 8.88497 9.64287 8.93593 9.79185 9.00387C9.95147 9.06049 10.1483 9.12277 10.3824 9.19071C10.6272 9.24733 10.8826 9.29829 11.1486 9.34359C11.4253 9.38888 11.6807 9.41719 11.9148 9.42852C12.0957 9.49646 12.2181 9.58139 12.2819 9.68331C12.3564 9.78522 12.4043 9.88148 12.4256 9.97207C12.3724 10.0627 12.2979 10.1759 12.2021 10.3118C12.1064 10.4363 11.9946 10.5156 11.8669 10.5496C11.8137 10.5722 11.7392 10.6062 11.6435 10.6515C11.5477 10.6855 11.4998 10.6911 11.4998 10.6685C11.2657 10.6458 11.0316 10.6119 10.7975 10.5666C10.5634 10.51 10.3346 10.4477 10.1111 10.3797C9.89827 10.3118 9.70672 10.2438 9.53646 10.1759C9.3662 10.0966 9.22786 10.023 9.12145 9.95508C9.00439 9.92111 8.89266 9.90412 8.78624 9.90412C8.67983 9.8928 8.58406 9.93243 8.49893 10.023C8.38187 10.2042 8.23289 10.4024 8.05199 10.6175C7.87109 10.8214 7.72211 10.9799 7.60505 11.0931C7.58377 11.1724 7.54652 11.2573 7.49332 11.3479C7.44011 11.4385 7.38158 11.5291 7.31774 11.6197C7.25389 11.699 7.19004 11.7726 7.12619 11.8405C7.06234 11.9085 7.00914 11.9538 6.96657 11.9764L6.91868 11.9934C6.86548 12.0953 6.79099 12.2029 6.69522 12.3161C6.61008 12.4294 6.47707 12.5539 6.29616 12.6898C6.14718 12.8823 5.99821 13.0918 5.84923 13.3183C5.70025 13.5335 5.50338 13.7146 5.25863 13.8618L4.97131 14.1506C4.89682 14.2412 4.79041 14.3544 4.65207 14.4903C4.51373 14.6149 4.36476 14.7395 4.20513 14.864C4.04551 14.9886 3.89121 15.0962 3.74224 15.1868C3.59326 15.2773 3.4762 15.3283 3.39107 15.3396H3.35915ZM12.3139 16.9703C12.2713 16.9703 12.2181 16.9363 12.1542 16.8684C12.101 16.8117 12.0478 16.7381 11.9946 16.6475C11.9521 16.5683 11.9201 16.472 11.8988 16.3588C11.8882 16.2455 11.9095 16.138 11.9627 16.036C11.9627 15.9228 11.984 15.8152 12.0265 15.7133C12.0691 15.6227 12.117 15.5208 12.1702 15.4076C12.2234 15.2943 12.2713 15.1641 12.3139 15.0169C12.3564 14.8697 12.3883 14.6885 12.4096 14.4733C12.4096 14.2129 12.4522 13.9694 12.5373 13.7429C12.6225 13.5165 12.7023 13.307 12.7768 13.1145C12.7874 12.7861 12.814 12.435 12.8566 12.0613C12.9098 11.6876 12.947 11.3366 12.9683 11.0082L13.0641 10.2948L13.1279 10.108V9.85317L13.112 9.83618C13.112 9.80221 13.1066 9.76824 13.096 9.73426C13.096 9.70029 13.096 9.67198 13.096 9.64933L13.1598 9.47948V9.0888L13.1758 8.93593L13.2397 8.74908L13.3195 6.98254C13.3514 6.93725 13.3674 6.85232 13.3674 6.72775C13.3674 6.60319 13.3514 6.47863 13.3195 6.35406C13.2875 6.21817 13.2609 6.07096 13.2397 5.91243L13.2556 5.79353L13.3035 5.55572L13.3195 5.28395L13.2556 5.0971V5.06313L13.2397 5.04615C13.2397 4.95555 13.2503 4.87629 13.2716 4.80834C13.2929 4.72907 13.3035 4.64981 13.3035 4.57054L13.2397 4.01L13.112 3.84014C13.112 3.85147 13.0907 3.8175 13.0481 3.73823C13.0162 3.65896 12.9843 3.59102 12.9523 3.5344L12.8406 3.36454L12.8246 3.27961C12.7502 3.20034 12.665 3.09276 12.5693 2.95687C12.4841 2.80966 12.4522 2.69642 12.4735 2.61716C12.4948 2.402 12.5639 2.24347 12.681 2.14155C12.8087 2.02831 12.947 1.98301 13.096 2.00566C13.1598 2.00566 13.2343 2.01699 13.3195 2.03963C13.4152 2.05096 13.5004 2.07361 13.5749 2.10758C13.66 2.14155 13.7345 2.18685 13.7983 2.24347C13.8622 2.28876 13.8994 2.34538 13.9101 2.41332C13.9633 2.50392 14.0218 2.60583 14.0856 2.71907C14.1495 2.82099 14.2187 2.91724 14.2932 3.00783L14.3889 3.19468L14.4368 3.38152C14.5326 3.52873 14.5911 3.64764 14.6124 3.73823C14.6443 3.8175 14.6922 3.94772 14.7561 4.1289C14.8093 4.19685 14.8412 4.27045 14.8518 4.34972C14.8625 4.42899 14.8837 4.51392 14.9157 4.60451L14.788 5.75955L14.772 7.06747L14.7561 7.71294C14.7773 7.90545 14.772 8.0753 14.7401 8.22252C14.7188 8.36973 14.6816 8.51128 14.6284 8.64716L14.5645 8.95291C14.5645 9.0435 14.5539 9.12277 14.5326 9.19071C14.5219 9.25866 14.5166 9.33793 14.5166 9.42852V9.4455C14.5592 9.42286 14.6177 9.3719 14.6922 9.29263C14.7135 9.26998 14.7401 9.253 14.772 9.24167C14.8039 9.21903 14.8359 9.19638 14.8678 9.17373H14.8997L15.3147 8.64716C15.3999 8.5679 15.485 8.50562 15.5701 8.46032C15.6659 8.41502 15.751 8.36407 15.8255 8.30745V8.29046L15.8894 8.13759L16.0809 7.81485C16.0915 7.80353 16.1554 7.74691 16.2724 7.64499C16.3895 7.53175 16.5278 7.41285 16.6875 7.28829C16.8471 7.16373 17.0067 7.04482 17.1663 6.93158C17.3366 6.80702 17.4696 6.72209 17.5654 6.6768L17.725 6.52392C17.7782 6.47863 17.8474 6.45032 17.9325 6.43899C18.0176 6.41634 18.0762 6.39936 18.1081 6.38803C18.2251 6.41068 18.3422 6.48995 18.4592 6.62584C18.5869 6.76172 18.6508 6.88629 18.6508 6.99953L18.5391 6.96556C18.5603 7.22601 18.5337 7.42984 18.4592 7.57705C18.3848 7.72426 18.289 7.84883 18.1719 7.95074C18.0549 8.04133 17.9219 8.12626 17.7729 8.20553C17.6345 8.27347 17.5015 8.36407 17.3738 8.4773V8.51128C17.3206 8.57922 17.2461 8.6415 17.1504 8.69812C17.0546 8.74342 16.9641 8.77739 16.879 8.80004L16.5917 9.05483V9.07181L16.4001 9.27564L16.3523 9.30962L16.1448 9.51345C16.0809 9.57007 16.0011 9.64933 15.9053 9.75125C15.8202 9.84184 15.7244 9.93243 15.618 10.023H15.5222C15.4903 10.057 15.4477 10.1023 15.3945 10.1589C15.352 10.2155 15.3041 10.2778 15.2509 10.3458C15.1977 10.4024 15.1445 10.4533 15.0913 10.4986C15.0487 10.5439 15.0168 10.5666 14.9955 10.5666C14.9636 10.6005 14.9316 10.6458 14.8997 10.7025C14.8784 10.7591 14.8518 10.81 14.8199 10.8553C14.7986 10.9799 14.7401 11.0818 14.6443 11.1611C14.5592 11.229 14.4794 11.3196 14.4049 11.4329L14.2453 11.5687L14.2932 11.6707C14.3144 11.8065 14.2932 12.016 14.2293 12.2991C14.1655 12.5709 14.091 12.8597 14.0058 13.1654C13.9313 13.4712 13.8569 13.7656 13.7824 14.0487C13.7079 14.3318 13.6706 14.5469 13.6706 14.6942C13.6068 14.7848 13.5536 14.898 13.511 15.0339C13.4684 15.1698 13.4312 15.3113 13.3993 15.4585C13.3674 15.5944 13.3407 15.719 13.3195 15.8322C13.2982 15.9568 13.2716 16.0417 13.2397 16.087L13.2237 16.2059L13.1279 16.5117L13.1439 16.4437C13.0162 16.6475 12.8885 16.7948 12.7608 16.8853C12.6437 16.9873 12.4948 17.0212 12.3139 16.9873V16.9703Z" fill="#333333"/>
</svg>
