<svg width="64" height="20" viewBox="0 0 64 20" fill="none" xmlns="http://www.w3.org/2000/svg">
<path d="M57.3969 7.7754C58.9293 7.7754 59.7434 6.82201 59.7434 5.63027C59.7434 4.42265 58.9293 3.46926 57.3969 3.46926C55.8326 3.46926 55.0344 4.42265 55.0344 5.63027C55.0344 6.82201 55.8326 7.7754 57.3969 7.7754ZM51.6982 10.6515V9.61862H54.0767V7.75951C53.2466 7.21926 52.7837 6.47243 52.7837 5.63027C52.7837 3.97773 54.5556 2.65887 57.3969 2.65887C60.2223 2.65887 61.9942 3.97773 61.9942 5.63027C61.9942 6.59955 61.3876 7.4576 60.3021 7.99786V9.61862H62.9998V10.6515H51.6982ZM52.8316 14.4332C52.8316 12.733 54.8429 11.3506 57.3331 11.3506C59.8073 11.3506 61.8346 12.733 61.8346 14.4332C61.8346 16.1335 59.8073 17.5 57.3331 17.5C54.8429 17.5 52.8316 16.1335 52.8316 14.4332ZM55.226 14.4332C55.226 15.625 56.1678 16.5943 57.3331 16.5943C58.4824 16.5943 59.4402 15.625 59.4402 14.4332C59.4402 13.2256 58.4824 12.2563 57.3331 12.2563C56.1678 12.2563 55.226 13.2256 55.226 14.4332ZM56.4711 9.61862H57.9077V8.58578C57.7481 8.60167 57.5725 8.60167 57.3969 8.60167C57.0777 8.60167 56.7584 8.58578 56.4711 8.554V9.61862Z" fill="#333333"/>
<path d="M39.4379 11.1599L43.8276 2.67474H45.9028L50.2925 11.1599H47.7704L44.1469 3.9936L40.4436 11.1599H39.4379ZM39.1187 16.5466V15.5137H50.4202V16.5466H39.1187Z" fill="#333333"/>
<path d="M28.8372 8.45864C28.2147 8.45864 27.7039 7.95017 27.7039 7.31457V2.67474H30.0983V7.45758H36.7068V8.45864H28.8372ZM26.5386 10.7944V9.76161H37.8402V10.7944H35.781V17.5H33.3866V10.7944H30.9922V17.5H28.5978V10.7944H26.5386Z" fill="#333333"/>
<path d="M16.7405 10.8421C16.102 10.8421 15.5912 10.3336 15.5912 9.69805V2.67474H24.5942V3.6758H17.9856V9.84106H24.5942V10.8421H16.7405ZM14.4419 16.5466V15.5137H25.7435V16.5466H14.4419Z" fill="#333333"/>
<path d="M9.57197 2.5H11.9185V5.70974H13.4828V7.1875H11.9185V17.5H9.57197V2.5ZM1 8.76059V7.75953H5.56533V3.67585H1V2.67479H6.7785C7.43297 2.67479 7.95974 3.21504 7.95974 3.86652V13.5117H5.56533V8.76059H1Z" fill="#333333"/>
</svg>
