<svg width="64" height="20" viewBox="0 0 64 20" fill="none" xmlns="http://www.w3.org/2000/svg">
<path d="M39.814 3.89062C40.2723 3.89062 40.6369 3.99479 40.9077 4.20312C41.1785 4.41146 41.314 4.70312 41.314 5.07812V6.14062C41.314 6.53646 41.1942 6.83854 40.9546 7.04688C40.715 7.26562 40.3504 7.375 39.8608 7.375H36.4702C36.241 7.375 36.0796 7.42708 35.9858 7.53125C35.8921 7.625 35.8452 7.78125 35.8452 8V9.01562C35.8452 9.25521 35.9025 9.4375 36.0171 9.5625C36.1317 9.6875 36.314 9.75 36.564 9.75C37.9077 9.75 39.1004 9.68229 40.1421 9.54688C41.2775 9.40104 42.2098 9.18229 42.939 8.89062C43.0744 8.83854 43.1942 8.83854 43.2983 8.89062C43.4025 8.94271 43.4754 9.02083 43.5171 9.125C43.5588 9.23958 43.564 9.34896 43.5327 9.45312C43.491 9.55729 43.4077 9.63542 43.2827 9.6875C42.366 10 41.2671 10.224 39.9858 10.3594C38.9754 10.4635 37.7983 10.5156 36.4546 10.5156C35.9338 10.5156 35.5431 10.375 35.2827 10.0938C35.0431 9.84375 34.9233 9.51042 34.9233 9.09375V7.95312C34.9233 7.53646 35.0379 7.20312 35.2671 6.95312C35.5171 6.69271 35.8713 6.5625 36.3296 6.5625H39.7358C39.9963 6.5625 40.1733 6.52083 40.2671 6.4375C40.3713 6.36458 40.4233 6.21354 40.4233 5.98438V5.29688C40.4233 5.08854 40.3608 4.93229 40.2358 4.82812C40.1108 4.73438 39.9442 4.6875 39.7358 4.6875H35.314C34.991 4.6875 34.8348 4.55208 34.8452 4.28125C34.8452 4.02083 35.0119 3.89062 35.3452 3.89062H39.814ZM45.7827 10.2031C45.7827 10.349 45.7306 10.4688 45.6265 10.5625C45.5431 10.6458 45.439 10.6875 45.314 10.6875C45.1785 10.6875 45.0692 10.6458 44.9858 10.5625C44.8921 10.4688 44.8452 10.349 44.8452 10.2031V3.98438C44.8452 3.84896 44.8921 3.73958 44.9858 3.65625C45.0692 3.58333 45.1785 3.54688 45.314 3.54688C45.439 3.54688 45.5431 3.58333 45.6265 3.65625C45.7306 3.72917 45.7827 3.83333 45.7827 3.96875V10.2031ZM44.8452 13.0938C44.8452 12.8958 44.7879 12.7552 44.6733 12.6719C44.5692 12.599 44.3921 12.5625 44.1421 12.5625H37.3452C37.0952 12.5625 36.9181 12.6094 36.814 12.7031C36.7306 12.7865 36.689 12.9271 36.689 13.125V14.8906C36.689 15.099 36.7358 15.2448 36.8296 15.3281C36.9338 15.4115 37.1213 15.4531 37.3921 15.4531H44.1577C44.3973 15.4531 44.5692 15.4167 44.6733 15.3438C44.7879 15.2604 44.8452 15.1302 44.8452 14.9531V13.0938ZM44.3608 11.7656C44.7983 11.7656 45.1473 11.8646 45.4077 12.0625C45.6577 12.2604 45.7827 12.526 45.7827 12.8594V15.0469C45.7827 15.4427 45.6577 15.7448 45.4077 15.9531C45.1681 16.151 44.84 16.25 44.4233 16.25H37.2202C36.6994 16.25 36.3192 16.1354 36.0796 15.9062C35.8608 15.6979 35.7515 15.3854 35.7515 14.9688V12.9219C35.7515 12.5885 35.866 12.3125 36.0952 12.0938C36.3244 11.875 36.6317 11.7656 37.0171 11.7656H44.3608Z" fill="#333333"/>
<path d="M28.2825 3.79688C28.8138 3.79688 29.2356 3.92708 29.5481 4.1875C29.871 4.45833 30.0325 4.83854 30.0325 5.32812V6.01562C30.0325 6.54688 29.9648 7.04167 29.8294 7.5C29.7148 7.92708 29.5377 8.35417 29.2981 8.78125H28.4075C28.6679 8.3125 28.845 7.86458 28.9388 7.4375C29.0429 7.04167 29.095 6.55729 29.095 5.98438V5.40625C29.095 5.15625 29.0065 4.95833 28.8294 4.8125C28.6627 4.67708 28.4335 4.60938 28.1419 4.60938H19.7044C19.4231 4.60938 19.2825 4.47396 19.2825 4.20312C19.2825 3.93229 19.4231 3.79688 19.7044 3.79688H28.2825ZM30.8606 8.28125C31.1315 8.28125 31.2721 8.41667 31.2825 8.6875C31.2825 8.95833 31.1523 9.09375 30.8919 9.09375H25.2044V10.9062C25.2044 11.0625 25.1523 11.1875 25.0481 11.2812C24.9648 11.375 24.8658 11.4219 24.7513 11.4219C24.6263 11.4219 24.5221 11.3854 24.4388 11.3125C24.345 11.2188 24.2981 11.099 24.2981 10.9531V9.09375H18.6106C18.4752 9.09375 18.371 9.04688 18.2981 8.95312C18.2356 8.88021 18.2096 8.79167 18.22 8.6875C18.22 8.57292 18.2565 8.47917 18.3294 8.40625C18.4231 8.32292 18.5429 8.28125 18.6888 8.28125H30.8606ZM28.595 11.1406C28.9908 11.1406 29.3242 11.2344 29.595 11.4219C29.8867 11.6198 30.0325 11.8802 30.0325 12.2031V13.0781C30.0325 13.3802 29.9231 13.6302 29.7044 13.8281C29.4856 14.0365 29.2096 14.1406 28.8763 14.1406H20.9544C20.746 14.1406 20.6002 14.1823 20.5169 14.2656C20.444 14.349 20.4075 14.474 20.4075 14.6406V15.2344C20.4075 15.3906 20.4492 15.5 20.5325 15.5625C20.6158 15.625 20.7513 15.6562 20.9388 15.6562H29.72C29.8658 15.6562 29.9856 15.6927 30.0794 15.7656C30.1523 15.849 30.194 15.9427 30.2044 16.0469C30.2044 16.151 30.1679 16.2448 30.095 16.3281C30.0221 16.4115 29.9179 16.4531 29.7825 16.4531H20.595C20.2408 16.4531 19.9648 16.3542 19.7669 16.1562C19.569 15.9688 19.47 15.7135 19.47 15.3906V14.5C19.47 14.1458 19.5742 13.8698 19.7825 13.6719C19.9908 13.4635 20.2877 13.3594 20.6731 13.3594H28.5169C28.7044 13.3594 28.845 13.3281 28.9388 13.2656C29.0429 13.2031 29.095 13.1042 29.095 12.9688V12.4375C29.095 12.2604 29.0481 12.1354 28.9544 12.0625C28.8606 11.9792 28.7044 11.9375 28.4856 11.9375H19.9075C19.595 11.9375 19.4388 11.8021 19.4388 11.5312C19.4492 11.2708 19.6106 11.1406 19.9231 11.1406H28.595Z" fill="#333333"/>
</svg>
