<svg width="64" height="20" viewBox="0 0 64 20" fill="none" xmlns="http://www.w3.org/2000/svg">
<path d="M42.6719 11.6323C42.0327 11.4707 41.3464 11.3576 40.613 11.2929C40.6968 11.1529 40.7387 10.9805 40.7387 10.7758V7.60808C40.7387 7.40337 40.6968 7.23098 40.613 7.09091C41.2731 7.03704 41.907 6.93468 42.5147 6.78384C43.1225 6.633 43.6673 6.44983 44.1493 6.23434H41.2731L40.5972 6.3798C40.5553 5.94882 40.4872 5.54478 40.3929 5.16768C40.3091 4.7798 40.1781 4.39192 40 4.00404L41.336 3.47071L40.7544 4.00404H43.332V3.64848C43.332 3.46532 43.2272 3.33603 43.0177 3.26061C42.8186 3.18518 42.4833 3.16364 42.0118 3.19596L44.6523 2.37172L44.5737 2C45.0557 2.31246 45.5377 2.56566 46.0196 2.7596C46.5016 2.94276 47.0046 3.0936 47.5285 3.21212C47.4132 3.25522 47.3346 3.29832 47.2927 3.34141C47.2613 3.38451 47.2456 3.44377 47.2456 3.51919V4.00404H49.7917L50.0904 3.90707C49.9961 4.30572 49.928 4.70438 49.8861 5.10303C49.8546 5.49091 49.8337 5.89495 49.8232 6.31515L49.2259 6.23434H46.0982C46.5907 6.44983 47.1356 6.633 47.7328 6.78384C48.3405 6.93468 48.9745 7.03704 49.6346 7.09091C49.5508 7.23098 49.5088 7.38721 49.5088 7.5596V10.7758C49.5088 10.9805 49.5508 11.1529 49.6346 11.2929C49.2678 11.3145 48.8854 11.363 48.4872 11.4384C48.0891 11.503 47.6857 11.5946 47.277 11.7131C46.8788 11.8209 46.4912 11.9556 46.1139 12.1172C45.7472 12.268 45.4172 12.4458 45.1238 12.6505C44.9352 12.532 44.7256 12.4135 44.4951 12.2949C44.2646 12.1764 44.0131 12.0687 43.7407 11.9717C43.594 11.9178 43.3792 11.8694 43.0963 11.8263C42.8238 11.7724 42.499 11.7778 42.1218 11.8424L42.6719 11.6323ZM54.3497 13.4909L49.9646 14.5576C50.3314 14.3636 50.5147 14.1104 50.5147 13.798V4.16566C50.5147 3.92862 50.389 3.71313 50.1375 3.51919C49.8861 3.31448 49.4984 3.21751 48.9745 3.22828L51.9136 2.56566L51.6621 2.11313C52.1441 2.56566 52.647 2.94276 53.1709 3.24444C53.7053 3.54613 54.2502 3.77778 54.8055 3.93939C54.5226 4.09024 54.3392 4.30034 54.2554 4.5697C54.1821 4.83906 54.1401 5.1138 54.1297 5.39394L54.1139 6.26667H55.5285L56 5.87879C55.7695 6.62222 55.6071 7.34411 55.5128 8.04444C55.4185 8.74478 55.3608 9.44512 55.3399 10.1455L54.947 9.87071H54.0668L54.0196 13.0869L54.3497 13.4909ZM46.8841 3.45454C46.6955 3.40067 46.5226 3.34141 46.3654 3.27677C46.2083 3.21212 46.0249 3.12054 45.8153 3.00202C46.0039 3.15286 46.1716 3.26061 46.3183 3.32525C46.4754 3.3899 46.6431 3.44916 46.8212 3.50303L46.8527 3.97172L46.8841 3.45454ZM51.6149 4.97374L51.4892 3.92323V7.41414L51.6149 4.97374ZM49.2416 4.61818L49.2259 5.08687L49.3674 4.37576L49.2574 4.52121H47.0727L49.2416 4.61818ZM41.8232 4.63434L41.666 4.5697L43.9921 4.48889H41.336L41.5874 4.55354L40.8173 4.6505L41.8232 4.63434ZM41.9175 7.9798L41.8232 7.31717V9.72525L41.9175 7.9798ZM41.6031 8.1899L41.5088 7.52727V10.1293L41.6031 8.1899ZM45.1238 9.96768L45.9725 9.61212V8.77172L45.1238 8.41616L44.275 8.77172V9.61212L45.1238 9.96768ZM47.1356 11.1313C47.4709 11.0343 47.7642 10.9589 48.0157 10.9051C48.2672 10.8404 48.5501 10.7919 48.8644 10.7596C48.8435 10.5118 48.8225 10.2478 48.8016 9.96768C48.7911 9.68754 48.7911 9.39124 48.8016 9.07879C48.7597 9.3697 48.7387 9.66061 48.7387 9.95151C48.7387 10.2316 48.7387 10.4687 48.7387 10.6626C48.4872 10.7165 48.2305 10.7758 47.9686 10.8404C47.7066 10.9051 47.4289 11.002 47.1356 11.1313ZM42.9391 12.4889C43.3477 12.6397 43.8193 12.7852 44.3536 12.9253C44.888 13.0653 45.4538 13.1892 46.0511 13.297C45.9044 13.3508 45.7996 13.4155 45.7367 13.4909C45.6739 13.5556 45.632 13.631 45.611 13.7172C45.6005 13.8034 45.5953 13.8949 45.5953 13.9919C45.6058 14.0781 45.611 14.1643 45.611 14.2505V15.0747H53.9568L54.5383 14.8C54.3287 15.3172 54.1663 15.8343 54.0511 16.3515C53.9463 16.8687 53.8887 17.4182 53.8782 18L52.9666 17.7253H43.1434L41.4617 18C41.6084 17.8168 41.7079 17.6337 41.7603 17.4505C41.8127 17.2781 41.8389 17.0842 41.8389 16.8687V13.8465C41.8389 13.5771 41.7184 13.3724 41.4774 13.2323C41.2364 13.0815 40.9535 13.0007 40.6287 12.9899L42.9391 12.4889ZM42.8134 14.4606L42.6719 13.6848V16.8364L42.8134 14.4606ZM50.6562 17.1273L49.5717 16.9495L52.778 16.901L49.0373 16.8848L49.9646 17.0788H44.165L50.6562 17.1273Z" fill="#333333"/>
<path d="M24.4792 10.256C24.5538 10.1173 24.5964 9.984 24.607 9.856C24.6283 9.71733 24.639 9.57333 24.639 9.424V6.912C24.639 6.67733 24.6124 6.48533 24.5591 6.336C24.5059 6.18667 24.3195 6.112 24 6.112L25.885 5.856C26.0767 5.888 26.2577 5.90933 26.4281 5.92C26.6092 5.93067 26.7849 5.936 26.9553 5.936H28.9042V5.376H25.5815L24.8466 5.408C24.8253 5.20533 24.7934 5.02933 24.7508 4.88C24.7188 4.73067 24.6762 4.58667 24.623 4.448C24.5804 4.30933 24.5272 4.17067 24.4633 4.032C24.3994 3.88267 24.3248 3.712 24.2396 3.52L25.5655 2.768L24.9904 3.52H32.4026C32.5091 3.52 32.5996 3.52 32.6741 3.52C32.7593 3.50933 32.8498 3.488 32.9457 3.456C32.8285 3.616 32.7433 3.792 32.6901 3.984C32.6475 4.176 32.6155 4.37867 32.5942 4.592L32.4665 5.936H32.6741L32.5304 7.744H28.2971V8.336H32.9617L33.0735 8.32L32.9457 6.816L34.639 6.8V6.352L33.9042 6.384L33.1693 6.48L32.9457 3.872L34.623 3.856C34.5911 3.65333 34.5005 3.472 34.3514 3.312C34.2023 3.14133 33.9787 3.02933 33.6805 2.976L36.0607 2.448L35.8051 2C36.295 2.448 36.8062 2.82133 37.3387 3.12C37.8818 3.41867 38.4356 3.648 39 3.808C38.787 3.89333 38.6219 4.01067 38.5048 4.16C38.3983 4.30933 38.3397 4.47467 38.3291 4.656L38.2013 9.296L38.5367 9.696L34.3195 10.256C34.5325 10.0747 34.639 9.84533 34.639 9.568V9.296L33.9042 9.328L33.1853 9.424C33.1427 9.63733 33.1054 9.904 33.0735 10.224L32.77 10.16H25.8371L24.4792 10.256ZM37.4984 7.248L37.6262 4.832L37.4984 3.792V7.248ZM31.8275 5.76L32.0192 3.84L31.8275 4.08L30.2141 4.128L31.8594 4.176L31.8275 5.76ZM24.9425 4.192H26.1725L25.9649 4.144L28.1853 4.064H25.6454L25.8371 4.128L24.9425 4.192ZM25.6773 9.024L25.7732 7.104L25.6773 6.176V9.024ZM25.3578 9.6L25.4537 7.392L25.3578 6.464V9.6ZM25.246 18C25.3951 17.8827 25.4909 17.7547 25.5335 17.616C25.5868 17.4773 25.6134 17.3333 25.6134 17.184V14.128C25.6134 13.9147 25.5921 13.728 25.5495 13.568C25.5069 13.3973 25.3898 13.264 25.1981 13.168H34.623V12.656H26.524L25.8211 12.752C25.7785 12.3467 25.7039 11.9893 25.5974 11.68C25.4909 11.36 25.3419 11.0347 25.1502 10.704H36.2843L38.6006 10.64C38.4728 10.7893 38.393 10.9707 38.361 11.184C38.3397 11.3867 38.3291 11.6107 38.3291 11.856V15.088H29.3195V15.6H38.393L38.984 15.536C38.771 15.8773 38.6273 16.224 38.5527 16.576C38.4888 16.9387 38.4622 17.328 38.4728 17.744L37.5463 17.552H29.0799L25.246 18ZM26.2843 16.56L26.3962 14.608L26.2843 13.84V16.56ZM27.8019 16.96L35.2141 17.056L34.2236 16.912L36.9872 16.864L33.0415 16.816L34.3035 16.96H27.8019Z" fill="#333333"/>
<path d="M18.026 11.459C18.2396 11.2732 18.3463 11.0383 18.3463 10.7541V4.08197C18.3463 3.84153 18.2716 3.61749 18.1221 3.40984C17.9726 3.20219 17.7271 3.06557 17.3854 3L19.7718 2.45902L19.5155 2C20.0067 2.45902 20.5192 2.84153 21.0531 3.14754C21.5976 3.45355 22.1528 3.68852 22.7187 3.85246C22.5052 3.93989 22.3397 4.06011 22.2222 4.21311C22.1154 4.36612 22.0567 4.53552 22.046 4.72131L22.03 5.2623H23.5195L24 4.86885C23.7651 5.62295 23.5996 6.35519 23.5035 7.06557C23.4074 7.77596 23.3487 8.48634 23.3273 9.19672L22.9269 8.91803H21.9499L21.9179 10.4754L22.2543 10.8852L18.026 11.459ZM9.61762 11.4426C9.79913 11.3552 9.93794 11.2732 10.034 11.1967C10.1301 11.1093 10.1889 11.0383 10.2102 10.9836L12.1321 6.85246C12.1855 6.73224 12.2603 6.62295 12.3564 6.52459C12.4631 6.4153 12.5699 6.32787 12.6767 6.26229L12.6446 6.22951C12.5379 6.29508 12.4151 6.35519 12.2763 6.40984C12.1481 6.45355 12.02 6.47541 11.8919 6.47541H9.77778L8.76877 6.70492C8.74741 6.14754 8.68335 5.61202 8.57658 5.09836C8.48048 4.5847 8.28829 4.11475 8 3.68852L9.50551 3.01639L8.92893 3.68852H17.0651L17.7377 3.63934C17.6523 3.75956 17.5776 3.87432 17.5135 3.98361C17.4494 4.0929 17.3907 4.20765 17.3373 4.32787L14.3904 10.6393L14.5826 11L9.61762 11.4426ZM19.2272 7.37705L19.3554 4.90164L19.2272 3.83607V7.37705ZM15.8478 6L16.7608 4.03279L16.5045 4.27869H15.2713L16.4565 4.37705L15.8478 6ZM8.97698 4.44262L10.3063 4.47541L10.1622 4.36066L12.7087 4.27869L9.90591 4.22951L10.034 4.34426L8.97698 4.44262ZM11.6036 10.7541L12.5646 8.68852L13.2693 6.80328L11.6036 10.7541ZM11.3313 10.4098L12.0841 8.98361L12.8368 7.09836L11.3313 10.4098ZM9.90591 17.0164C9.82049 16.623 9.68702 16.2951 9.50551 16.0328C9.32399 15.7814 9.16383 15.5956 9.02503 15.4754C8.87554 15.3552 8.72606 15.2459 8.57658 15.1475C8.42709 15.0492 8.27761 14.9563 8.12813 14.8689C8.42709 14.694 8.72072 14.4918 9.00901 14.2623C9.30797 14.0328 9.58025 13.7814 9.82583 13.5082C10.0714 13.235 10.285 12.9508 10.4665 12.6557C10.648 12.3607 10.7761 12.0546 10.8509 11.7377C11.043 11.7705 11.2192 11.7923 11.3794 11.8033C11.5502 11.8142 11.7264 11.8197 11.9079 11.8197H19.4675C19.649 11.8197 19.8358 11.8142 20.028 11.8033C20.2202 11.7923 20.4124 11.7705 20.6046 11.7377C20.6793 12.0219 20.7968 12.3115 20.957 12.6066C21.1278 12.9016 21.3253 13.1749 21.5495 13.4262V12.7213C21.635 13.1148 21.7684 13.4426 21.9499 13.7049C22.1315 13.9563 22.2916 14.1421 22.4304 14.2623C22.5799 14.3825 22.7294 14.4918 22.8789 14.5902C23.0284 14.6885 23.1778 14.7814 23.3273 14.8689C23.0177 15.0437 22.7187 15.2459 22.4304 15.4754C22.1421 15.7049 21.8752 15.9563 21.6296 16.2295C21.384 16.5027 21.1705 16.7869 20.989 17.082C20.8075 17.388 20.6793 17.694 20.6046 18C20.4124 17.9672 20.2202 17.9454 20.028 17.9344C19.8358 17.9235 19.649 17.918 19.4675 17.918H12.02C11.8172 17.918 11.6196 17.9235 11.4274 17.9344C11.2352 17.9454 11.043 17.9672 10.8509 18C10.7761 17.7158 10.6533 17.4262 10.4825 17.1311C10.3223 16.8361 10.1301 16.5628 9.90591 16.3115V17.0164ZM12.7407 14.8689L13.4454 15.2623H18.01L18.7147 14.8689L18.01 14.4754H13.4454L12.7407 14.8689ZM18.2823 17.3115C18.6133 17.2787 18.9229 17.2568 19.2112 17.2459C19.5102 17.2459 19.8198 17.2732 20.1401 17.3279C20.2469 16.9454 20.3964 16.623 20.5886 16.3607C20.7808 16.1093 21.0317 15.8743 21.3413 15.6557C20.7007 16.0383 20.2683 16.5464 20.044 17.1803C19.7878 17.1694 19.5048 17.1639 19.1952 17.1639C18.8962 17.1749 18.5919 17.224 18.2823 17.3115Z" fill="#333333"/>
</svg>
