<svg width="64" height="20" viewBox="0 0 64 20" fill="none" xmlns="http://www.w3.org/2000/svg">
<path d="M42.6587 5.55342C42.6587 4.96439 42.8095 4.45218 43.1111 4.01681C43.4127 3.56863 43.8191 3.19728 44.3305 2.90276C44.855 2.59544 45.4647 2.37135 46.1597 2.23049C46.8678 2.07683 47.6217 2 48.4216 2C49.2083 2 49.9492 2.07683 50.6441 2.23049C51.3522 2.37135 51.9685 2.59544 52.493 2.90276C53.0175 3.19728 53.4305 3.56863 53.7321 4.01681C54.0337 4.45218 54.1845 4.96439 54.1845 5.55342C54.1845 6.14246 54.0337 6.66106 53.7321 7.10924C53.4305 7.55742 53.0175 7.92877 52.493 8.22329C51.9816 8.51781 51.3719 8.7419 50.6638 8.89556C49.9688 9.03642 49.2214 9.10684 48.4216 9.10684C47.6217 9.10684 46.8678 9.03001 46.1597 8.87635C45.4647 8.72269 44.855 8.4986 44.3305 8.20408C43.806 7.90956 43.393 7.54462 43.0914 7.10924C42.8029 6.66106 42.6587 6.14246 42.6587 5.55342ZM44.2322 5.55342C44.2322 6.28331 44.5993 6.82753 45.3336 7.18607C46.081 7.53181 47.1103 7.70468 48.4216 7.70468C49.7853 7.70468 50.8211 7.52541 51.5292 7.16687C52.2504 6.80832 52.611 6.27051 52.611 5.55342C52.611 4.83633 52.2373 4.29852 51.4899 3.93998C50.7556 3.58143 49.7328 3.40216 48.4216 3.40216C47.071 3.40216 46.0351 3.58143 45.314 3.93998C44.5928 4.28571 44.2322 4.82353 44.2322 5.55342ZM41.6753 11.5462C41.4655 11.5206 41.295 11.431 41.1639 11.2773C41.0328 11.1108 40.9803 10.9316 41.0066 10.7395C41.0328 10.5218 41.1246 10.3617 41.2819 10.2593C41.4524 10.1441 41.6359 10.0992 41.8326 10.1249C42.3571 10.1761 42.9734 10.2209 43.6815 10.2593C44.4026 10.2849 45.1697 10.3105 45.9827 10.3361C46.7957 10.3489 47.6348 10.3617 48.5003 10.3746C49.3657 10.3746 50.2049 10.3681 51.0178 10.3553C51.8308 10.3297 52.5913 10.2977 53.2994 10.2593C54.0205 10.2209 54.6368 10.1761 55.1482 10.1249C55.358 10.0992 55.5481 10.1441 55.7186 10.2593C55.8891 10.3745 55.9808 10.5346 55.9939 10.7395C56.0202 10.9316 55.9612 11.1108 55.8169 11.2773C55.6727 11.431 55.5088 11.5206 55.3252 11.5462C55.0761 11.5846 54.7483 11.6166 54.3418 11.6423C53.9484 11.6679 53.4961 11.6935 52.9847 11.7191C52.4864 11.7319 51.9488 11.7447 51.3719 11.7575C50.808 11.7703 50.218 11.7767 49.6017 11.7767V14.5042C49.6017 14.6579 49.5165 14.8051 49.346 14.946C49.1887 15.074 48.9985 15.1381 48.7756 15.1381C48.5658 15.1381 48.3822 15.074 48.2249 14.946C48.0675 14.8179 47.9889 14.6707 47.9889 14.5042V11.7959C47.3464 11.7959 46.7104 11.7895 46.081 11.7767C45.4647 11.7639 44.8812 11.7511 44.3305 11.7383C43.7798 11.7127 43.275 11.6871 42.8161 11.6615C42.3571 11.623 41.9769 11.5846 41.6753 11.5462ZM44.4682 13.4286C44.3895 13.8511 44.3305 14.2737 44.2912 14.6963C44.265 15.106 44.2846 15.535 44.3502 15.9832C44.3502 16.0344 44.4026 16.0792 44.5075 16.1176C44.6649 16.1817 44.9075 16.2393 45.2353 16.2905C45.5631 16.3545 45.9302 16.4058 46.3367 16.4442C46.7432 16.4826 47.1628 16.5146 47.5955 16.5402C48.0413 16.5658 48.4478 16.5786 48.815 16.5786C49.7197 16.5786 50.6245 16.521 51.5292 16.4058C52.4471 16.2905 53.2404 16.1241 53.9091 15.9064C54.0533 15.8423 54.2172 15.8487 54.4008 15.9256C54.5975 15.9896 54.7286 16.1241 54.7942 16.3289C54.8597 16.521 54.8532 16.7003 54.7745 16.8667C54.7089 17.0332 54.6106 17.1485 54.4795 17.2125C54.1254 17.3661 53.7124 17.4878 53.2404 17.5774C52.7814 17.6799 52.2963 17.7567 51.7849 17.8079C51.2735 17.8719 50.7621 17.9168 50.2508 17.9424C49.7394 17.9808 49.2608 18 48.815 18C48.3691 18 47.9036 17.9872 47.4185 17.9616C46.9464 17.9488 46.4875 17.9168 46.0417 17.8655C45.609 17.8271 45.2025 17.7695 44.8222 17.6927C44.442 17.6287 44.1207 17.5454 43.8585 17.443C43.6225 17.3533 43.4061 17.2253 43.2094 17.0588C43.0127 16.8924 42.8882 16.6683 42.8357 16.3866C42.7571 15.8744 42.7308 15.3301 42.7571 14.7539C42.7964 14.1777 42.862 13.6591 42.9537 13.1981C42.98 13.0444 43.0783 12.91 43.2488 12.7947C43.4323 12.6795 43.6356 12.6411 43.8585 12.6795C44.0814 12.7179 44.2453 12.8203 44.3502 12.9868C44.4551 13.1405 44.4944 13.2877 44.4682 13.4286Z" fill="#333333"/>
<path d="M34.5171 9.17113C34.5171 10.1522 34.4082 11.0364 34.1904 11.8238C33.9725 12.6112 33.6526 13.2889 33.2305 13.8568C32.822 14.4119 32.3251 14.8443 31.7396 15.1541C31.1541 15.451 30.4938 15.5995 29.7586 15.5995C29.0097 15.5995 28.3358 15.4446 27.7367 15.1348C27.1512 14.825 26.6543 14.3925 26.2458 13.8375C25.8373 13.2695 25.5242 12.5918 25.3063 11.8044C25.1021 11.0041 25 10.1263 25 9.17113C25 8.21592 25.1021 7.34461 25.3063 6.55721C25.5242 5.7698 25.8373 5.09212 26.2458 4.52415C26.6543 3.95619 27.1512 3.51731 27.7367 3.20751C28.3358 2.89771 29.0097 2.74281 29.7586 2.74281C30.5483 2.74281 31.2358 2.91062 31.8213 3.24624C32.4204 3.58185 32.9173 4.04009 33.3122 4.62097C33.7206 5.20184 34.0202 5.88598 34.2108 6.67338C34.415 7.44788 34.5171 8.28046 34.5171 9.17113ZM32.8425 9.20986C32.8425 7.59632 32.5838 6.36358 32.0664 5.51164C31.549 4.64678 30.7729 4.21436 29.7381 4.21436C28.7578 4.21436 28.0022 4.63388 27.4712 5.47291C26.9402 6.29904 26.6747 7.54469 26.6747 9.20986C26.6747 10.7589 26.9266 11.9658 27.4303 12.8306C27.9477 13.6955 28.717 14.1279 29.7381 14.1279C30.7865 14.1279 31.5626 13.6955 32.0664 12.8306C32.5838 11.9658 32.8425 10.7589 32.8425 9.20986ZM38.7651 2.62664C38.8332 3.05261 38.8809 3.64639 38.9081 4.40798C38.9489 5.15666 38.9762 5.98279 38.9898 6.88637C39.0034 7.78995 39.0034 8.7258 38.9898 9.69392C38.9898 10.662 38.9762 11.585 38.9489 12.4627C38.9353 13.3276 38.9081 14.1085 38.8672 14.8056C38.84 15.5026 38.806 16.0254 38.7651 16.374C38.7379 16.5676 38.629 16.7225 38.4384 16.8386C38.2478 16.9677 38.0503 17.0194 37.8461 16.9935C37.6283 16.9806 37.4444 16.9032 37.2947 16.7612C37.1585 16.6192 37.0973 16.4449 37.1109 16.2384C37.1517 15.7479 37.1858 15.1412 37.213 14.4183C37.2402 13.6955 37.2674 12.9081 37.2947 12.0561H35.3545C35.1911 12.0561 35.0345 11.9851 34.8848 11.8431C34.7486 11.6882 34.6805 11.5204 34.6805 11.3397C34.6805 11.159 34.7486 10.9977 34.8848 10.8557C35.0209 10.7008 35.1775 10.6233 35.3545 10.6233H37.3151V7.40915H35.3545C35.1911 7.40915 35.0345 7.33816 34.8848 7.19617C34.7486 7.04127 34.6805 6.87346 34.6805 6.69274C34.6805 6.51203 34.7486 6.35068 34.8848 6.20868C35.0209 6.05378 35.1775 5.97633 35.3545 5.97633H37.2947C37.2674 5.34383 37.2402 4.7565 37.213 4.21436C37.1858 3.6593 37.1517 3.17524 37.1109 2.76217C37.0836 2.55564 37.1381 2.38784 37.2743 2.25875C37.424 2.11676 37.6078 2.03286 37.8257 2.00704C38.0435 1.98122 38.2478 2.0264 38.4384 2.14258C38.629 2.24584 38.7379 2.4072 38.7651 2.62664Z" fill="#333333"/>
<path d="M17.5937 8.70028C17.5541 8.84052 17.4553 8.96801 17.2972 9.08275C17.139 9.18475 16.9414 9.21662 16.7042 9.17837C16.4669 9.14012 16.2956 9.04451 16.1902 8.89152C16.0848 8.72578 16.0452 8.57279 16.0716 8.43255C16.1507 8.05007 16.2231 7.65484 16.289 7.24687C16.3549 6.8389 16.4076 6.45005 16.4472 6.08032C16.4999 5.69784 16.5328 5.34724 16.546 5.02851C16.5592 4.69703 16.5526 4.4293 16.5262 4.22531C16.4999 4.00858 16.4011 3.90021 16.2297 3.90021H9.84494C9.6868 3.90021 9.54184 3.83009 9.41006 3.68985C9.27828 3.53686 9.21239 3.37112 9.21239 3.19263C9.21239 2.98864 9.28487 2.8229 9.42983 2.69541C9.58796 2.56792 9.73951 2.50417 9.88447 2.50417H16.9809C17.2313 2.50417 17.4619 2.57429 17.6727 2.71453C17.8836 2.85478 18.0088 3.07151 18.0483 3.36474C18.0879 3.72172 18.101 4.13607 18.0879 4.60779C18.0879 5.07951 18.0615 5.56398 18.0088 6.0612C17.9693 6.55841 17.9099 7.03651 17.8309 7.49548C17.765 7.95445 17.6859 8.35605 17.5937 8.70028ZM8.67867 11.3011C8.46782 11.2756 8.29651 11.1864 8.16473 11.0334C8.03295 10.8676 7.98023 10.6892 8.00659 10.4979C8.03295 10.2812 8.12519 10.1154 8.28333 10.0007C8.45465 9.88595 8.63914 9.84133 8.83681 9.86683C10.405 10.0071 12.0061 10.0899 13.6402 10.1154C15.2743 10.1282 16.8689 10.0453 18.4239 9.86683C18.6479 9.84133 18.839 9.89233 18.9971 10.0198C19.1685 10.1473 19.2607 10.3067 19.2739 10.4979C19.3002 10.6892 19.2409 10.8676 19.096 11.0334C18.951 11.1864 18.7863 11.2756 18.6018 11.3011C18.101 11.3649 17.4948 11.4159 16.7832 11.4541C16.0848 11.4924 15.3402 11.5242 14.5495 11.5497V16.3689C14.5495 16.5219 14.4639 16.6621 14.2926 16.7896C14.1344 16.9299 13.9433 17 13.7193 17C13.5085 17 13.324 16.9363 13.1658 16.8088C13.0077 16.6813 12.9286 16.5347 12.9286 16.3689V11.5497C12.1379 11.5497 11.3736 11.5306 10.6356 11.4924C9.89765 11.4414 9.24533 11.3776 8.67867 11.3011ZM22.7727 2.61892C22.8386 3.03964 22.8847 3.6261 22.911 4.3783C22.9506 5.11776 22.9769 5.9337 22.9901 6.82615C23.0033 7.71859 23.0033 8.64291 22.9901 9.5991C22.9901 10.5553 22.9769 11.4669 22.9506 12.3338C22.9374 13.188 22.911 13.9593 22.8715 14.6478C22.8452 15.3362 22.8122 15.8526 22.7727 16.1968C22.7463 16.388 22.6409 16.541 22.4564 16.6558C22.2719 16.7833 22.0808 16.8343 21.8832 16.8088C21.6723 16.796 21.4944 16.7195 21.3494 16.5793C21.2177 16.439 21.1584 16.2669 21.1715 16.0629C21.2111 15.5785 21.244 14.9856 21.2704 14.2844C21.3099 13.5705 21.3363 12.8055 21.3494 11.9896C21.3626 11.1609 21.3692 10.3131 21.3692 9.44611C21.3824 8.56641 21.3758 7.71859 21.3494 6.90264C21.3363 6.07395 21.3165 5.30262 21.2901 4.58866C21.2638 3.86196 21.2242 3.25 21.1715 2.75278C21.1452 2.54879 21.1979 2.38306 21.3297 2.25556C21.4746 2.11532 21.6525 2.03245 21.8634 2.00695C22.0742 1.98146 22.2719 2.02608 22.4564 2.14082C22.6409 2.24281 22.7463 2.40218 22.7727 2.61892Z" fill="#333333"/>
</svg>
