<svg width="64" height="20" viewBox="0 0 64 20" fill="none" xmlns="http://www.w3.org/2000/svg">
<path d="M48.7806 17.5C43.3964 17.5 41.0587 16.6139 41.0587 14.8734C41.0587 13.1171 43.3964 12.2152 48.7806 12.2152C54.1648 12.2152 56.5025 13.1171 56.5025 14.8734C56.5025 16.6139 54.1648 17.5 48.7806 17.5ZM40.561 11.8196V9.68354H43.502V8.75C41.843 8.21203 40.9984 7.34177 40.9984 6.17089H45.6889C46.0659 6.53481 46.7747 6.66139 48.7655 6.66139C51.3295 6.66139 51.9629 6.31329 51.9629 5.9019C51.9629 5.47468 51.3295 5.1424 48.7655 5.1424C46.7597 5.1424 45.8397 5.41139 45.6889 6.01266L40.9984 5.6962C41.1643 3.60759 43.6226 2.5 48.7806 2.5C54.1347 2.5 56.5779 3.68671 56.5779 5.93354C56.5779 7.21519 55.7635 8.16456 54.0593 8.73418V9.68354H57.0002V11.8196H40.561ZM45.4325 14.7785C45.4325 15.0633 46.4731 15.2057 48.7806 15.2057C51.0881 15.2057 52.1288 15.0633 52.1288 14.7785C52.1288 14.5095 51.0881 14.3513 48.7806 14.3513C46.4731 14.3513 45.4325 14.5095 45.4325 14.7785ZM46.9708 9.68354H50.5904V9.31962C50.0324 9.35127 49.4291 9.36709 48.7806 9.36709C48.1321 9.36709 47.5288 9.35127 46.9708 9.31962V9.68354Z" fill="#333333"/>
<path d="M25.1754 12.2152H39.5785V17.3417H35.2802V15.1424H25.1754V12.2152ZM24.1196 11.5823C24.1196 5.98099 24.6022 4.39871 26.0049 2.72149H30.077C29.6697 3.32276 29.353 3.86074 29.0816 4.41453C29.7904 4.24048 30.4842 4.14555 31.2232 4.14555C33.8474 4.14555 34.8126 5.12656 34.8126 7.75314V11.5823L30.816 11.7405V8.78162C30.816 8.11706 30.4992 7.81643 29.6547 7.81643C29.2776 7.81643 28.7648 7.91137 28.2219 8.10124C28.1465 9.09808 28.1163 10.269 28.1163 11.7405L24.1196 11.5823ZM35.3556 11.8196V2.6582H39.5785V11.8196H35.3556Z" fill="#333333"/>
<path d="M18.236 2.6582H22.2326V5.68036H23.2884V9.41453H22.2326V11.9304H18.236V2.6582ZM7 11.5031C7 7.87972 7.40721 6.78795 8.50818 5.75947H7.07541V2.8639H17.6176V5.75947H12.4898C12.2786 5.99681 12.0826 6.23415 11.9167 6.45567C12.6406 6.28162 13.3494 6.20251 14.1035 6.20251C16.7278 6.20251 17.693 6.91453 17.693 8.73415V11.5031L13.8471 11.6614V10.0949C13.8471 9.57276 13.6812 9.27213 12.7613 9.27213C12.2032 9.27213 11.5698 9.38289 10.9062 9.63605C10.8609 10.2057 10.8459 10.8702 10.8459 11.6614L7 11.5031ZM7.8295 14.8259C7.8295 13.0696 10.0164 12.1202 15.1442 12.1202C20.272 12.1202 22.4589 13.0696 22.4589 14.8259C22.4589 16.5664 20.272 17.5 15.1442 17.5C10.0164 17.5 7.8295 16.5664 7.8295 14.8259ZM12.0524 14.731C12.0524 15.0158 13.0931 15.0949 15.1442 15.0949C17.1953 15.0949 18.236 15.0158 18.236 14.731C18.236 14.462 17.1953 14.3671 15.1442 14.3671C13.0931 14.3671 12.0524 14.462 12.0524 14.731Z" fill="#333333"/>
</svg>
