<svg width="64" height="20" viewBox="0 0 64 20" fill="none" xmlns="http://www.w3.org/2000/svg">
<path d="M46.0946 7.66399H45.0166V10.464C45.0166 12.416 45.6699 12.816 46.0946 12.816V16.752C44.4122 16.752 43.1545 15.728 42.7299 14.784L42.4032 15.104C42.5012 15.264 42.8605 15.792 43.0565 15.952C42.2725 16.432 41.1129 16.736 39.9858 16.832V12.848C40.5902 12.848 41.0802 12.08 41.0802 10.464V7.66399H39.9858V4.09599H40.8352C40.9332 4.54399 41.5049 5.34399 41.9949 5.29599L42.2235 5.02399C41.5049 4.87999 41.1455 4.20799 41.1455 3.74399V3.02399H45.3106V4.09599H46.0946V7.66399ZM45.3759 11.952V7.95199C45.7026 7.93599 46.0782 7.91999 46.4703 7.88799V3.61599H50.0473V16.752H46.4703V11.92C46.0782 11.952 45.6862 11.952 45.3759 11.952ZM54 16.752H50.423V3.61599H54V16.752Z" fill="#333333"/>
<path d="M38.9744 10.64H33.9273V3.61597H38.9744V10.64ZM25.1235 10.64V7.39197C26.0219 7.23197 26.6916 6.73597 26.6916 5.18397V3.61597H31.9183V5.18397C31.9183 6.73597 32.5226 7.23197 33.5026 7.39197V10.64C31.6733 10.64 29.9419 10.336 28.4719 8.81597L28.1289 9.10397C28.3576 9.35997 28.6516 9.59997 28.9782 9.82397C27.8839 10.336 26.5282 10.64 25.1235 10.64ZM25.1235 14.624V11.072H38.9744V16.752H33.9273V14.624H25.1235Z" fill="#333333"/>
<path d="M10.098 6.70397V3.61597H18.1504V6.70397H16.5824C16.6967 7.31197 17.3011 7.71197 18.1504 7.71197V10.32C16.3211 10.32 14.7531 10.016 13.283 8.49597L12.94 8.78397C13.332 9.19997 13.773 9.53597 14.3447 9.91997C13.2504 10.656 11.5027 10.96 10.098 10.96V8.03197C10.931 8.03197 11.5517 7.61597 11.6497 6.70397H10.098ZM23.2955 10.48H18.5751V3.61597H23.2955V4.95997H24.5368V8.73597H23.2955V10.48ZM10 13.84C10 11.584 12.0907 10.704 16.8111 10.704C21.5315 10.704 23.6222 11.584 23.6222 13.84C23.6222 16.096 21.5315 16.976 16.8111 16.976C12.0907 16.976 10 16.096 10 13.84ZM14.8347 13.024L14.6224 13.488C15.9127 14.08 17.6441 14.288 19.0814 14.208V13.744C17.7258 13.824 16.0761 13.584 14.8347 13.024Z" fill="#333333"/>
</svg>
